<svg width="169" height="172" viewBox="0 0 169 172" fill="none" xmlns="http://www.w3.org/2000/svg">
<path d="M168.87 170.893H137.444L110.995 165.142C110.995 165.142 89.4342 151.921 71.9099 153.938L40.0076 126.933L38.5661 114.289L31.095 105.091L29.9418 92.1585M29.9418 92.1585C29.9418 92.1585 7.5162 97.9104 5.22225 65.4415L0.333496 63.7121L16.7171 67.1582L31.9474 61.6946L42.0133 64.276L50.6375 61.6946L59.8384 39.564H67.0211L72.7748 26.9198L82.6651 20.7794M29.9418 92.1585L39.1301 93.5996L40.2834 78.0857L42.0133 64.2886L43.154 41.306M43.154 41.306L0.333496 42.1706M43.154 41.306L59.8259 39.5765M43.154 41.306L43.154 34.1253L35.3946 24.3507L37.1245 12.5712L35.683 0.11496" stroke="#207C3E" stroke-width="2" stroke-miterlimit="10"/>
</svg>
