<svg width="84" height="107" viewBox="0 0 84 107" fill="none" xmlns="http://www.w3.org/2000/svg">
<path d="M82.0423 106.457L80.6007 95.8301L77.7302 90.3664V67.8474C77.7302 67.8474 75.712 63.9376 70.5475 62.7847C65.3829 61.6318 61.9232 62.7847 61.9232 62.7847L57.3227 55.8924M57.3227 55.8924L55.8812 49.8523V32.609H53.5872L46.9812 34.0502L44.1106 32.609C44.1106 32.609 43.2456 20.8295 38.0686 15.0776C38.0686 15.0776 34.6214 13.9247 34.0448 10.7668H19.6793L13.9257 2.72158L0.124329 0.992233M57.3227 55.8924C57.3227 55.8924 43.8097 63.3612 37.8429 57.7596C31.8761 52.1581 55.8812 38.9374 55.8812 38.9374" stroke="#317AAC" stroke-width="2" stroke-miterlimit="10"/>
</svg>
