<svg width="154" height="127" viewBox="0 0 154 127" fill="none" xmlns="http://www.w3.org/2000/svg">
<path d="M153.238 39.7785L132.429 46.0066L123.805 55.3927L117.287 60.7561L109.239 62.8614L98.509 58.6508L79.9192 38.3499L72.4482 39.3023L56.3529 36.4326L49.6466 29.5403H41.9875M41.9875 29.5403L35.0931 23.024L36.4344 6.74565C36.4344 6.74565 38.1643 -3.79328 29.1514 3.67545L9.0323 26.6581L0.0319824 26.3699M41.9875 29.5403L44.0935 34.3272L36.0458 42.3724M75.7575 125.869L80.6964 121.483L81.273 111.521L77.5375 106.157L79.2047 92.849L92.6676 84.9918L94.8738 74.7411L104.263 73.6007L109.252 62.8738" stroke="#5D4320" stroke-width="2" stroke-miterlimit="10"/>
</svg>
