<svg width="152" height="237" viewBox="0 0 152 237" fill="none" xmlns="http://www.w3.org/2000/svg">
<path d="M0.23761 0.971363L6.12918 2.41247L11.4441 12.3248L8.28525 16.3474L6.41749 28.4152L17.1978 35.9591L17.7619 36.3601C18.3009 37.0494 19.6422 38.7662 19.6422 38.7662V41.6359L24.3805 42.3501L28.5422 56.7112L38.9214 61.1598H41.3282L42.1931 58.7162L55.8441 59.1423L59.5796 57.2751L63.4655 51.9618L68.9309 56.4104L97.0976 85.8593L107.59 91.8994L125.415 108.278L121.679 113.453L120.814 128.967L128.473 138.454L135.756 139.607L141.698 141.524L147.063 145.446L149.558 155.308L150.561 194.194L137.624 203.529L136.91 208.843L127.283 221.061L128.285 236.149" stroke="#205E36" stroke-width="2" stroke-miterlimit="10"/>
</svg>
