<svg width="68" height="119" viewBox="0 0 68 119" fill="none" xmlns="http://www.w3.org/2000/svg">
<path d="M36.7974 117.38L40.2822 113.846L44.3061 112.656L45.5095 111.553L50.7241 112.267L61.5546 109.636L66.1049 104.748L65.0519 98.1443L57.6185 93.8836L53.4568 78.3572L57.4305 75.1491V70.312L55.4249 68.4072L52.9805 68.1566L47.8034 64.0964V54.0337L45.3089 46.4146L44.5442 41.8657L40.6709 39.2842L40.6207 33.9207L42.7768 30.6626L38.941 29.3718L33.7138 24.873L26.7191 24.1963L24.4251 19.1211L17.5809 16.8279L16.4778 12.6549L11.9651 11.7025V4.79769L8.90647 2.9305L0.219543 0.975601" stroke="#4D9B46" stroke-width="2" stroke-miterlimit="10"/>
</svg>
