<svg width="112" height="233" viewBox="0 0 112 233" fill="none" xmlns="http://www.w3.org/2000/svg">
<path d="M0.142334 228.385L22.6306 231.618C22.6306 231.618 68.0459 226.681 71.9694 226.393C75.893 226.105 80.2552 219.688 74.4138 217.195C68.5724 214.701 77.0462 207.809 77.0462 207.809C77.0462 207.809 83.0381 200.816 77.0462 195.403C71.0543 189.989 79.9168 185.966 79.9168 185.966L106.98 172.696L107.118 157.708L103.232 157.47L97.0023 142.482L86.9365 142.244L87.2248 134.863L100.5 121.267L101.503 107.144L110.177 97.5195L109.788 89.7124L103.27 88.8979L104.799 16.1028L91.3866 8.05763L89.9826 0.175354" stroke="#337AAB" stroke-width="2" stroke-miterlimit="10"/>
</svg>
