<svg width="854" height="29" viewBox="0 0 854 29" fill="none" xmlns="http://www.w3.org/2000/svg">
<path d="M302.392 17.568H310.384L311.368 16.296C311.368 16.296 311.432 16.344 311.56 16.44C311.688 16.536 311.84 16.664 312.016 16.824C312.208 16.984 312.408 17.16 312.616 17.352C312.824 17.544 313.016 17.728 313.192 17.904C313.144 18.16 312.944 18.288 312.592 18.288H302.584L302.392 17.568ZM301.816 22.968C302.328 22.888 302.992 22.776 303.808 22.632C304.64 22.488 305.576 22.32 306.616 22.128C307.672 21.92 308.792 21.696 309.976 21.456C311.176 21.216 312.392 20.968 313.624 20.712L313.72 21.12C312.552 21.536 311.128 22.024 309.448 22.584C307.768 23.144 305.784 23.776 303.496 24.48C303.432 24.64 303.352 24.76 303.256 24.84C303.16 24.936 303.056 25 302.944 25.032L301.816 22.968ZM302.728 5.616V4.896L304.288 5.616H311.704V6.312H304.168V15.192C304.168 15.24 304.112 15.304 304 15.384C303.888 15.464 303.736 15.536 303.544 15.6C303.368 15.664 303.176 15.696 302.968 15.696H302.728V5.616ZM310.96 5.616H310.72L311.584 4.656L313.504 6.12C313.424 6.216 313.296 6.312 313.12 6.408C312.944 6.488 312.736 6.552 312.496 6.6V14.664C312.496 14.728 312.416 14.808 312.256 14.904C312.112 14.984 311.944 15.064 311.752 15.144C311.56 15.208 311.376 15.24 311.2 15.24H310.96V5.616ZM303.496 9.576H311.728V10.272H303.496V9.576ZM303.52 13.512H311.752V14.184H303.52V13.512ZM314.8 7.848C315.888 8.072 316.784 8.36 317.488 8.712C318.208 9.064 318.768 9.44 319.168 9.84C319.568 10.224 319.84 10.6 319.984 10.968C320.144 11.32 320.192 11.624 320.128 11.88C320.08 12.136 319.944 12.312 319.72 12.408C319.512 12.488 319.248 12.456 318.928 12.312C318.736 11.784 318.4 11.256 317.92 10.728C317.44 10.184 316.896 9.688 316.288 9.24C315.696 8.776 315.12 8.392 314.56 8.088L314.8 7.848ZM313.456 5.568H322V6.264H313.672L313.456 5.568ZM312.616 12.888H322.576V13.584H312.832L312.616 12.888ZM317.32 12.96H318.88V23.448C318.88 23.864 318.816 24.24 318.688 24.576C318.56 24.912 318.304 25.192 317.92 25.416C317.552 25.64 316.976 25.792 316.192 25.872C316.176 25.616 316.12 25.376 316.024 25.152C315.928 24.944 315.8 24.784 315.64 24.672C315.432 24.512 315.136 24.384 314.752 24.288C314.384 24.192 313.888 24.104 313.264 24.024V23.664C313.264 23.664 313.408 23.68 313.696 23.712C314 23.728 314.352 23.752 314.752 23.784C315.168 23.8 315.56 23.824 315.928 23.856C316.296 23.872 316.552 23.88 316.696 23.88C316.952 23.88 317.12 23.848 317.2 23.784C317.28 23.704 317.32 23.568 317.32 23.376V12.96ZM321.952 12.888H321.664L322.648 11.88L324.472 13.632C324.376 13.696 324.256 13.744 324.112 13.776C323.968 13.808 323.776 13.84 323.536 13.872C323.296 14.256 323 14.688 322.648 15.168C322.296 15.648 321.92 16.112 321.52 16.56C321.136 16.992 320.76 17.376 320.392 17.712L320.08 17.52C320.304 17.104 320.536 16.616 320.776 16.056C321.032 15.48 321.264 14.912 321.472 14.352C321.68 13.792 321.84 13.304 321.952 12.888ZM321.328 5.568H321.04L322.096 4.536L323.92 6.288C323.76 6.416 323.424 6.496 322.912 6.528C322.544 6.896 322.072 7.296 321.496 7.728C320.936 8.16 320.352 8.584 319.744 9C319.136 9.4 318.576 9.752 318.064 10.056L317.776 9.84C318.144 9.472 318.56 9.032 319.024 8.52C319.488 7.992 319.928 7.464 320.344 6.936C320.776 6.408 321.104 5.952 321.328 5.568ZM306.784 5.616H308.272V22.344L306.784 22.656V5.616ZM336.232 4.992V4.224L338.008 4.992H345.304L346.048 4.08L347.776 5.4C347.696 5.48 347.584 5.56 347.44 5.64C347.312 5.72 347.136 5.776 346.912 5.808V12.192C346.912 12.24 346.784 12.328 346.528 12.456C346.272 12.568 345.968 12.624 345.616 12.624H345.352V5.688H337.72V12.384C337.72 12.448 337.608 12.544 337.384 12.672C337.16 12.8 336.856 12.864 336.472 12.864H336.232V4.992ZM337 7.968H346.024V8.688H337V7.968ZM336.952 11.088H346.096V11.784H336.952V11.088ZM340.576 12.336L342.808 12.576C342.792 12.736 342.728 12.872 342.616 12.984C342.504 13.08 342.312 13.152 342.04 13.2V17.76H340.576V12.336ZM334.888 17.52H345.856L346.912 16.2C346.912 16.2 347.016 16.288 347.224 16.464C347.448 16.64 347.712 16.856 348.016 17.112C348.32 17.352 348.592 17.592 348.832 17.832C348.768 18.088 348.56 18.216 348.208 18.216H335.08L334.888 17.52ZM336.184 13.176C336.904 13.464 337.472 13.784 337.888 14.136C338.32 14.472 338.632 14.808 338.824 15.144C339.016 15.464 339.112 15.76 339.112 16.032C339.112 16.304 339.04 16.528 338.896 16.704C338.768 16.864 338.592 16.952 338.368 16.968C338.16 16.984 337.936 16.896 337.696 16.704C337.632 16.336 337.504 15.944 337.312 15.528C337.12 15.112 336.896 14.72 336.64 14.352C336.384 13.968 336.136 13.632 335.896 13.344L336.184 13.176ZM345.208 12.96L347.44 13.92C347.376 14.048 347.272 14.152 347.128 14.232C346.984 14.296 346.784 14.312 346.528 14.28C346.096 14.776 345.616 15.264 345.088 15.744C344.576 16.224 344.096 16.616 343.648 16.92L343.288 16.68C343.592 16.232 343.912 15.672 344.248 15C344.584 14.328 344.904 13.648 345.208 12.96ZM327.448 8.064V7.344L328.912 8.064H333.928V8.784H328.792V20.688C328.792 20.768 328.68 20.872 328.456 21C328.232 21.128 327.968 21.192 327.664 21.192H327.448V8.064ZM333.208 8.064H332.968L333.688 7.176L335.56 8.568C335.496 8.664 335.368 8.76 335.176 8.856C334.984 8.936 334.776 8.992 334.552 9.024V18.696C334.552 19.08 334.52 19.416 334.456 19.704C334.392 19.976 334.248 20.192 334.024 20.352C333.8 20.512 333.448 20.616 332.968 20.664C332.952 20.488 332.928 20.304 332.896 20.112C332.864 19.92 332.808 19.768 332.728 19.656C332.648 19.544 332.536 19.456 332.392 19.392C332.248 19.312 332.064 19.248 331.84 19.2V18.816C331.84 18.816 331.912 18.824 332.056 18.84C332.2 18.84 332.36 18.848 332.536 18.864C332.712 18.88 332.84 18.888 332.92 18.888C333.112 18.888 333.208 18.768 333.208 18.528V8.064ZM330.16 8.376V4.032L332.512 4.272C332.496 4.432 332.424 4.568 332.296 4.68C332.168 4.792 331.96 4.872 331.672 4.92V8.376H331.48V8.424H331.6V25.32C331.6 25.368 331.544 25.432 331.432 25.512C331.32 25.592 331.176 25.664 331 25.728C330.824 25.792 330.632 25.824 330.424 25.824H330.208V8.424H330.328V8.376H330.16ZM342.328 17.688H343.816C343.816 17.816 343.816 17.944 343.816 18.072C343.816 18.2 343.816 18.304 343.816 18.384V23.736C343.816 23.88 343.848 23.976 343.912 24.024C343.976 24.088 344.144 24.12 344.416 24.12H345.736C346.024 24.12 346.28 24.112 346.504 24.096C346.728 24.096 346.896 24.096 347.008 24.096C347.136 24.08 347.24 23.984 347.32 23.808C347.4 23.632 347.496 23.264 347.608 22.704C347.72 22.128 347.84 21.528 347.968 20.904H348.28L348.352 23.88C348.592 23.976 348.736 24.072 348.784 24.168C348.848 24.28 348.88 24.4 348.88 24.528C348.88 24.736 348.792 24.912 348.616 25.056C348.44 25.2 348.12 25.304 347.656 25.368C347.208 25.448 346.544 25.488 345.664 25.488H344.032C343.552 25.488 343.184 25.44 342.928 25.344C342.688 25.248 342.528 25.096 342.448 24.888C342.368 24.68 342.328 24.408 342.328 24.072V17.688ZM338.488 17.832H340.168C340.04 19.304 339.736 20.56 339.256 21.6C338.776 22.624 338.064 23.48 337.12 24.168C336.176 24.856 334.936 25.424 333.4 25.872L333.256 25.488C334.552 24.928 335.56 24.296 336.28 23.592C337.016 22.872 337.544 22.048 337.864 21.12C338.2 20.176 338.408 19.08 338.488 17.832ZM351.568 16.656H359.272L360.232 15.384C360.232 15.384 360.336 15.472 360.544 15.648C360.752 15.808 360.992 16.008 361.264 16.248C361.552 16.488 361.808 16.72 362.032 16.944C361.968 17.2 361.768 17.328 361.432 17.328H351.76L351.568 16.656ZM362.008 16.656H370.336L371.416 15.264C371.416 15.264 371.48 15.32 371.608 15.432C371.736 15.528 371.904 15.664 372.112 15.84C372.32 16.016 372.536 16.2 372.76 16.392C372.984 16.584 373.184 16.768 373.36 16.944C373.312 17.2 373.104 17.328 372.736 17.328H362.2L362.008 16.656ZM366.352 13.344L368.728 13.608C368.696 13.752 368.616 13.88 368.488 13.992C368.376 14.104 368.168 14.176 367.864 14.208V25.368C367.864 25.432 367.8 25.504 367.672 25.584C367.544 25.664 367.392 25.728 367.216 25.776C367.04 25.824 366.856 25.848 366.664 25.848H366.352V13.344ZM356.104 13.296L358.432 13.536C358.416 13.696 358.344 13.832 358.216 13.944C358.088 14.04 357.88 14.112 357.592 14.16V25.296C357.592 25.36 357.528 25.432 357.4 25.512C357.288 25.592 357.136 25.664 356.944 25.728C356.768 25.808 356.584 25.848 356.392 25.848H356.104V13.296ZM357.52 18.168C358.352 18.36 359.024 18.592 359.536 18.864C360.064 19.136 360.456 19.424 360.712 19.728C360.968 20.016 361.128 20.296 361.192 20.568C361.256 20.824 361.232 21.048 361.12 21.24C361.024 21.416 360.872 21.528 360.664 21.576C360.456 21.608 360.224 21.552 359.968 21.408C359.84 21.056 359.624 20.696 359.32 20.328C359.016 19.944 358.68 19.584 358.312 19.248C357.96 18.896 357.616 18.608 357.28 18.384L357.52 18.168ZM355.792 16.656H357.28V17.016C356.736 18.504 355.968 19.864 354.976 21.096C354 22.312 352.832 23.384 351.472 24.312L351.184 23.928C352.256 22.952 353.176 21.84 353.944 20.592C354.728 19.328 355.344 18.016 355.792 16.656ZM365.848 16.656H367.36V17.016C366.608 18.632 365.584 20.08 364.288 21.36C362.992 22.64 361.456 23.736 359.68 24.648L359.416 24.24C360.888 23.296 362.168 22.168 363.256 20.856C364.36 19.544 365.224 18.144 365.848 16.656ZM368.032 16.656C368.416 17.552 368.912 18.4 369.52 19.2C370.144 20 370.824 20.712 371.56 21.336C372.296 21.944 373.04 22.432 373.792 22.8L373.744 23.04C373.12 23.136 372.704 23.552 372.496 24.288C371.44 23.504 370.488 22.48 369.64 21.216C368.808 19.936 368.144 18.472 367.648 16.824L368.032 16.656ZM352.744 6.816H369.16L370.24 5.424C370.24 5.424 370.304 5.48 370.432 5.592C370.576 5.688 370.752 5.824 370.96 6C371.168 6.176 371.384 6.368 371.608 6.576C371.848 6.768 372.064 6.96 372.256 7.152C372.24 7.264 372.168 7.352 372.04 7.416C371.928 7.48 371.792 7.512 371.632 7.512H352.936L352.744 6.816ZM361.504 3.888L363.976 4.152C363.944 4.312 363.864 4.456 363.736 4.584C363.608 4.696 363.392 4.768 363.088 4.8V13.968C363.088 14.032 363.024 14.096 362.896 14.16C362.768 14.224 362.6 14.288 362.392 14.352C362.2 14.4 362.008 14.424 361.816 14.424H361.504V3.888ZM360.592 6.816H362.272V7.2C361.2 8.72 359.792 10.04 358.048 11.16C356.32 12.28 354.392 13.208 352.264 13.944L352.024 13.536C353.864 12.736 355.528 11.752 357.016 10.584C358.504 9.416 359.696 8.16 360.592 6.816ZM363.304 6.816C363.816 7.44 364.44 8.032 365.176 8.592C365.928 9.152 366.736 9.672 367.6 10.152C368.48 10.632 369.376 11.056 370.288 11.424C371.216 11.792 372.104 12.088 372.952 12.312L372.928 12.552C372.624 12.6 372.352 12.728 372.112 12.936C371.888 13.128 371.736 13.4 371.656 13.752C370.568 13.32 369.472 12.776 368.368 12.12C367.264 11.448 366.24 10.688 365.296 9.84C364.352 8.976 363.568 8.056 362.944 7.08L363.304 6.816ZM386.344 9.432H395.224L396.352 7.992C396.352 7.992 396.416 8.048 396.544 8.16C396.688 8.272 396.864 8.416 397.072 8.592C397.296 8.768 397.52 8.96 397.744 9.168C397.968 9.376 398.176 9.568 398.368 9.744C398.32 10 398.12 10.128 397.768 10.128H386.536L386.344 9.432ZM390.424 9.432H392.056V9.816C391.4 12.296 390.4 14.592 389.056 16.704C387.728 18.8 386.032 20.632 383.968 22.2L383.656 21.864C384.792 20.792 385.8 19.592 386.68 18.264C387.56 16.92 388.312 15.496 388.936 13.992C389.56 12.488 390.056 10.968 390.424 9.432ZM390.952 3.936L393.376 4.176C393.344 4.336 393.264 4.48 393.136 4.608C393.024 4.736 392.808 4.824 392.488 4.872V25.2C392.488 25.264 392.424 25.344 392.296 25.44C392.168 25.552 392.008 25.64 391.816 25.704C391.64 25.784 391.456 25.824 391.264 25.824H390.952V3.936ZM376.192 9.456H383.368L384.448 8.064C384.448 8.064 384.552 8.16 384.76 8.352C384.984 8.528 385.248 8.752 385.552 9.024C385.872 9.28 386.152 9.528 386.392 9.768C386.344 10.024 386.136 10.152 385.768 10.152H376.384L376.192 9.456ZM380.512 9.456H382.12V9.84C381.624 12.064 380.888 14.168 379.912 16.152C378.952 18.136 377.728 19.92 376.24 21.504L375.904 21.192C376.672 20.12 377.352 18.944 377.944 17.664C378.536 16.384 379.048 15.048 379.48 13.656C379.912 12.248 380.256 10.848 380.512 9.456ZM380.608 3.912L383.032 4.152C383 4.328 382.92 4.472 382.792 4.584C382.68 4.696 382.472 4.776 382.168 4.824V25.248C382.168 25.312 382.104 25.392 381.976 25.488C381.848 25.584 381.688 25.664 381.496 25.728C381.32 25.792 381.136 25.824 380.944 25.824H380.608V3.912ZM382.168 12.072C383.048 12.424 383.76 12.808 384.304 13.224C384.848 13.624 385.248 14.024 385.504 14.424C385.776 14.808 385.928 15.16 385.96 15.48C385.992 15.8 385.944 16.064 385.816 16.272C385.704 16.464 385.528 16.576 385.288 16.608C385.064 16.64 384.808 16.56 384.52 16.368C384.424 15.92 384.224 15.448 383.92 14.952C383.632 14.456 383.304 13.976 382.936 13.512C382.584 13.032 382.232 12.616 381.88 12.264L382.168 12.072ZM392.824 9.648C393.128 11.008 393.568 12.352 394.144 13.68C394.736 14.992 395.424 16.2 396.208 17.304C397.008 18.392 397.872 19.288 398.8 19.992L398.752 20.232C398.384 20.408 398.096 20.648 397.888 20.952C397.68 21.256 397.544 21.608 397.48 22.008C396.616 21.096 395.84 19.992 395.152 18.696C394.48 17.4 393.912 15.992 393.448 14.472C392.984 12.952 392.608 11.416 392.32 9.864L392.824 9.648ZM402.184 22.968C402.904 22.952 403.84 22.912 404.992 22.848C406.16 22.784 407.464 22.704 408.904 22.608C410.344 22.512 411.88 22.4 413.512 22.272C415.144 22.144 416.808 22.008 418.504 21.864L418.528 22.296C416.752 22.648 414.656 23.024 412.24 23.424C409.84 23.824 407 24.248 403.72 24.696C403.656 24.824 403.56 24.928 403.432 25.008C403.32 25.104 403.208 25.168 403.096 25.2L402.184 22.968ZM414.04 17.064C415.224 17.768 416.224 18.472 417.04 19.176C417.872 19.864 418.544 20.528 419.056 21.168C419.568 21.808 419.952 22.408 420.208 22.968C420.464 23.512 420.608 23.992 420.64 24.408C420.688 24.824 420.648 25.152 420.52 25.392C420.392 25.632 420.208 25.76 419.968 25.776C419.728 25.808 419.456 25.712 419.152 25.488C418.976 24.848 418.688 24.168 418.288 23.448C417.904 22.712 417.456 21.976 416.944 21.24C416.432 20.488 415.896 19.776 415.336 19.104C414.792 18.416 414.256 17.8 413.728 17.256L414.04 17.064ZM414.616 4.176C415.176 5.584 415.904 6.92 416.8 8.184C417.696 9.432 418.68 10.552 419.752 11.544C420.84 12.52 421.936 13.296 423.04 13.872L422.968 14.136C422.616 14.184 422.304 14.32 422.032 14.544C421.76 14.768 421.56 15.072 421.432 15.456C420.392 14.704 419.416 13.776 418.504 12.672C417.592 11.568 416.768 10.312 416.032 8.904C415.312 7.496 414.704 5.976 414.208 4.344L414.616 4.176ZM407.488 4.584L409.96 5.52C409.896 5.664 409.792 5.776 409.648 5.856C409.504 5.936 409.296 5.968 409.024 5.952C408.112 8.16 406.976 10.096 405.616 11.76C404.272 13.408 402.792 14.744 401.176 15.768L400.888 15.504C401.768 14.704 402.624 13.744 403.456 12.624C404.288 11.504 405.048 10.264 405.736 8.904C406.44 7.528 407.024 6.088 407.488 4.584ZM409.888 11.856L412.48 12.528C412.448 12.672 412.36 12.8 412.216 12.912C412.072 13.008 411.864 13.056 411.592 13.056C411.24 14.048 410.8 15.144 410.272 16.344C409.744 17.544 409.16 18.752 408.52 19.968C407.896 21.168 407.24 22.288 406.552 23.328H406C406.512 22.224 407.016 21 407.512 19.656C408.008 18.312 408.464 16.968 408.88 15.624C409.296 14.264 409.632 13.008 409.888 11.856ZM432.16 16.224H440.824V16.896H432.16V16.224ZM440.08 13.296H439.888L440.656 12.504L442.288 13.728C442.224 13.792 442.12 13.864 441.976 13.944C441.832 14.024 441.672 14.08 441.496 14.112V17.136C441.496 17.184 441.424 17.248 441.28 17.328C441.152 17.392 440.992 17.456 440.8 17.52C440.624 17.584 440.456 17.616 440.296 17.616H440.08V13.296ZM431.512 13.296V12.576L433.048 13.296H440.92V13.968H432.928V17.4C432.928 17.432 432.864 17.488 432.736 17.568C432.624 17.632 432.472 17.696 432.28 17.76C432.104 17.808 431.92 17.832 431.728 17.832H431.512V13.296ZM435.808 6.552L437.968 6.792C437.952 6.936 437.888 7.056 437.776 7.152C437.664 7.232 437.496 7.288 437.272 7.32V11.376H435.808V6.552ZM430.72 8.64H439.936L440.872 7.464C440.872 7.464 440.968 7.544 441.16 7.704C441.368 7.864 441.608 8.056 441.88 8.28C442.152 8.504 442.4 8.72 442.624 8.928C442.56 9.184 442.352 9.312 442 9.312H430.912L430.72 8.64ZM429.496 11.088H441.04L442.024 9.912C442.024 9.912 442.12 9.992 442.312 10.152C442.52 10.312 442.76 10.512 443.032 10.752C443.32 10.976 443.576 11.2 443.8 11.424C443.736 11.68 443.528 11.808 443.176 11.808H429.688L429.496 11.088ZM435.568 16.224H437.104V16.608C436.32 17.792 435.312 18.856 434.08 19.8C432.864 20.728 431.512 21.52 430.024 22.176L429.76 21.768C430.992 21.064 432.112 20.232 433.12 19.272C434.128 18.312 434.944 17.296 435.568 16.224ZM437.248 16.224V22.488C437.248 22.552 437.136 22.656 436.912 22.8C436.688 22.928 436.392 22.992 436.024 22.992H435.808V16.224H437.248ZM427.768 23.712H445.432V24.408H427.768V23.712ZM444.712 5.328H444.472L445.36 4.296L447.28 5.832C447.088 6.04 446.736 6.2 446.224 6.312V25.032C446.224 25.08 446.152 25.144 446.008 25.224C445.88 25.32 445.712 25.408 445.504 25.488C445.312 25.568 445.12 25.608 444.928 25.608H444.712V5.328ZM426.952 5.328V4.488L428.608 5.328H445.456V6.024H428.464V25.248C428.464 25.312 428.408 25.392 428.296 25.488C428.184 25.6 428.032 25.688 427.84 25.752C427.664 25.832 427.456 25.872 427.216 25.872H426.952V5.328ZM441.808 16.608L443.2 17.88C443.136 17.96 443.048 18.008 442.936 18.024C442.84 18.04 442.68 18.008 442.456 17.928C442.136 18.136 441.72 18.4 441.208 18.72C440.696 19.024 440.24 19.288 439.84 19.512L439.624 19.248C439.944 18.912 440.312 18.48 440.728 17.952C441.16 17.424 441.52 16.976 441.808 16.608ZM437.248 18.384C438.352 18.608 439.336 18.888 440.2 19.224C441.064 19.544 441.752 19.912 442.264 20.328C442.584 20.6 442.792 20.872 442.888 21.144C443 21.4 443.016 21.616 442.936 21.792C442.872 21.968 442.744 22.072 442.552 22.104C442.36 22.136 442.12 22.04 441.832 21.816C441.56 21.464 441.176 21.096 440.68 20.712C440.2 20.328 439.656 19.968 439.048 19.632C438.456 19.28 437.832 18.992 437.176 18.768L437.248 18.384ZM460.936 7.92C461.144 8.192 461.344 8.48 461.536 8.784C461.728 9.088 461.88 9.4 461.992 9.72C462.104 10.04 462.16 10.376 462.16 10.728C462.16 11.288 462.096 11.904 461.968 12.576C461.84 13.232 461.656 13.904 461.416 14.592C461.208 15.168 460.936 15.8 460.6 16.488C460.28 17.16 459.904 17.832 459.472 18.504C459.056 19.16 458.608 19.768 458.128 20.328C457.648 20.872 457.152 21.312 456.64 21.648C456.144 21.968 455.656 22.128 455.176 22.128C454.776 22.128 454.376 21.984 453.976 21.696C453.592 21.408 453.24 21.008 452.92 20.496C452.616 19.984 452.368 19.4 452.176 18.744C451.984 18.072 451.888 17.368 451.888 16.632C451.888 15.816 452.008 15.008 452.248 14.208C452.504 13.408 452.872 12.64 453.352 11.904C453.832 11.168 454.408 10.496 455.08 9.888C456.072 9.008 457.168 8.36 458.368 7.944C459.568 7.528 460.808 7.32 462.088 7.32C463.336 7.32 464.488 7.512 465.544 7.896C466.6 8.28 467.52 8.832 468.304 9.552C469.104 10.272 469.728 11.136 470.176 12.144C470.624 13.152 470.848 14.28 470.848 15.528C470.848 16.52 470.672 17.504 470.32 18.48C469.968 19.44 469.392 20.32 468.592 21.12C467.808 21.92 466.752 22.592 465.424 23.136C464.096 23.664 462.456 23.984 460.504 24.096L460.408 23.544C462.36 23.192 463.976 22.64 465.256 21.888C466.552 21.12 467.52 20.168 468.16 19.032C468.8 17.88 469.12 16.584 469.12 15.144C469.12 13.704 468.8 12.464 468.16 11.424C467.536 10.384 466.68 9.576 465.592 9C464.52 8.424 463.32 8.136 461.992 8.136C460.856 8.136 459.728 8.36 458.608 8.808C457.504 9.24 456.536 9.872 455.704 10.704C454.952 11.44 454.352 12.288 453.904 13.248C453.456 14.192 453.232 15.192 453.232 16.248C453.232 17 453.328 17.688 453.52 18.312C453.728 18.92 453.984 19.408 454.288 19.776C454.608 20.128 454.936 20.304 455.272 20.304C455.672 20.304 456.096 20.096 456.544 19.68C457.008 19.264 457.456 18.744 457.888 18.12C458.336 17.48 458.744 16.816 459.112 16.128C459.496 15.44 459.808 14.808 460.048 14.232C460.288 13.656 460.488 13.032 460.648 12.36C460.824 11.688 460.912 11.08 460.912 10.536C460.912 10.056 460.832 9.632 460.672 9.264C460.528 8.88 460.336 8.488 460.096 8.088L460.936 7.92ZM475.432 17.568H483.424L484.408 16.296C484.408 16.296 484.472 16.344 484.6 16.44C484.728 16.536 484.88 16.664 485.056 16.824C485.248 16.984 485.448 17.16 485.656 17.352C485.864 17.544 486.056 17.728 486.232 17.904C486.184 18.16 485.984 18.288 485.632 18.288H475.624L475.432 17.568ZM474.856 22.968C475.368 22.888 476.032 22.776 476.848 22.632C477.68 22.488 478.616 22.32 479.656 22.128C480.712 21.92 481.832 21.696 483.016 21.456C484.216 21.216 485.432 20.968 486.664 20.712L486.76 21.12C485.592 21.536 484.168 22.024 482.488 22.584C480.808 23.144 478.824 23.776 476.536 24.48C476.472 24.64 476.392 24.76 476.296 24.84C476.2 24.936 476.096 25 475.984 25.032L474.856 22.968ZM475.768 5.616V4.896L477.328 5.616H484.744V6.312H477.208V15.192C477.208 15.24 477.152 15.304 477.04 15.384C476.928 15.464 476.776 15.536 476.584 15.6C476.408 15.664 476.216 15.696 476.008 15.696H475.768V5.616ZM484 5.616H483.76L484.624 4.656L486.544 6.12C486.464 6.216 486.336 6.312 486.16 6.408C485.984 6.488 485.776 6.552 485.536 6.6V14.664C485.536 14.728 485.456 14.808 485.296 14.904C485.152 14.984 484.984 15.064 484.792 15.144C484.6 15.208 484.416 15.24 484.24 15.24H484V5.616ZM476.536 9.576H484.768V10.272H476.536V9.576ZM476.56 13.512H484.792V14.184H476.56V13.512ZM487.84 7.848C488.928 8.072 489.824 8.36 490.528 8.712C491.248 9.064 491.808 9.44 492.208 9.84C492.608 10.224 492.88 10.6 493.024 10.968C493.184 11.32 493.232 11.624 493.168 11.88C493.12 12.136 492.984 12.312 492.76 12.408C492.552 12.488 492.288 12.456 491.968 12.312C491.776 11.784 491.44 11.256 490.96 10.728C490.48 10.184 489.936 9.688 489.328 9.24C488.736 8.776 488.16 8.392 487.6 8.088L487.84 7.848ZM486.496 5.568H495.04V6.264H486.712L486.496 5.568ZM485.656 12.888H495.616V13.584H485.872L485.656 12.888ZM490.36 12.96H491.92V23.448C491.92 23.864 491.856 24.24 491.728 24.576C491.6 24.912 491.344 25.192 490.96 25.416C490.592 25.64 490.016 25.792 489.232 25.872C489.216 25.616 489.16 25.376 489.064 25.152C488.968 24.944 488.84 24.784 488.68 24.672C488.472 24.512 488.176 24.384 487.792 24.288C487.424 24.192 486.928 24.104 486.304 24.024V23.664C486.304 23.664 486.448 23.68 486.736 23.712C487.04 23.728 487.392 23.752 487.792 23.784C488.208 23.8 488.6 23.824 488.968 23.856C489.336 23.872 489.592 23.88 489.736 23.88C489.992 23.88 490.16 23.848 490.24 23.784C490.32 23.704 490.36 23.568 490.36 23.376V12.96ZM494.992 12.888H494.704L495.688 11.88L497.512 13.632C497.416 13.696 497.296 13.744 497.152 13.776C497.008 13.808 496.816 13.84 496.576 13.872C496.336 14.256 496.04 14.688 495.688 15.168C495.336 15.648 494.96 16.112 494.56 16.56C494.176 16.992 493.8 17.376 493.432 17.712L493.12 17.52C493.344 17.104 493.576 16.616 493.816 16.056C494.072 15.48 494.304 14.912 494.512 14.352C494.72 13.792 494.88 13.304 494.992 12.888ZM494.368 5.568H494.08L495.136 4.536L496.96 6.288C496.8 6.416 496.464 6.496 495.952 6.528C495.584 6.896 495.112 7.296 494.536 7.728C493.976 8.16 493.392 8.584 492.784 9C492.176 9.4 491.616 9.752 491.104 10.056L490.816 9.84C491.184 9.472 491.6 9.032 492.064 8.52C492.528 7.992 492.968 7.464 493.384 6.936C493.816 6.408 494.144 5.952 494.368 5.568ZM479.824 5.616H481.312V22.344L479.824 22.656V5.616ZM504.352 17.784H519.76V18.48H504.352V17.784ZM504.424 12.312H516.52V13.008H504.424V12.312ZM504.424 9.456H516.52V10.152H504.424V9.456ZM503.608 6.672V5.88L505.312 6.672H516.616V7.368H505.168V18.768C505.168 18.816 505.104 18.888 504.976 18.984C504.864 19.064 504.704 19.144 504.496 19.224C504.304 19.288 504.096 19.32 503.872 19.32H503.608V6.672ZM515.728 6.672H515.488L516.376 5.688L518.32 7.2C518.24 7.28 518.104 7.368 517.912 7.464C517.736 7.56 517.528 7.632 517.288 7.68V13.296C517.288 13.344 517.208 13.408 517.048 13.488C516.904 13.568 516.728 13.64 516.52 13.704C516.328 13.768 516.144 13.8 515.968 13.8H515.728V6.672ZM518.944 17.784H518.68L519.592 16.848L521.392 18.336C521.296 18.4 521.168 18.464 521.008 18.528C520.864 18.576 520.672 18.616 520.432 18.648C520.304 20.392 520.08 21.832 519.76 22.968C519.44 24.088 519.032 24.832 518.536 25.2C518.232 25.44 517.872 25.616 517.456 25.728C517.04 25.84 516.608 25.896 516.16 25.896C516.16 25.672 516.128 25.456 516.064 25.248C516.016 25.056 515.904 24.904 515.728 24.792C515.552 24.68 515.272 24.568 514.888 24.456C514.504 24.36 514.104 24.28 513.688 24.216V23.808C514.008 23.824 514.368 23.848 514.768 23.88C515.184 23.912 515.576 23.944 515.944 23.976C516.312 24.008 516.576 24.024 516.736 24.024C517.12 24.024 517.4 23.944 517.576 23.784C517.88 23.56 518.152 22.92 518.392 21.864C518.632 20.792 518.816 19.432 518.944 17.784ZM504.4 15.048H518.584L519.808 13.56C519.808 13.56 519.88 13.616 520.024 13.728C520.168 13.84 520.352 13.992 520.576 14.184C520.816 14.36 521.056 14.552 521.296 14.76C521.552 14.968 521.776 15.168 521.968 15.36C521.904 15.616 521.696 15.744 521.344 15.744H504.4V15.048ZM502.696 19.824L503.104 19.8C503.312 20.696 503.352 21.48 503.224 22.152C503.096 22.808 502.872 23.352 502.552 23.784C502.248 24.216 501.928 24.536 501.592 24.744C501.272 24.92 500.936 25 500.584 24.984C500.232 24.984 499.992 24.848 499.864 24.576C499.768 24.32 499.784 24.088 499.912 23.88C500.056 23.656 500.256 23.472 500.512 23.328C500.864 23.152 501.2 22.896 501.52 22.56C501.856 22.224 502.136 21.824 502.36 21.36C502.584 20.88 502.696 20.368 502.696 19.824ZM505.816 19.752C506.328 20.232 506.704 20.712 506.944 21.192C507.2 21.656 507.352 22.096 507.4 22.512C507.448 22.912 507.424 23.264 507.328 23.568C507.248 23.856 507.12 24.08 506.944 24.24C506.768 24.4 506.568 24.464 506.344 24.432C506.136 24.4 505.936 24.264 505.744 24.024C505.856 23.336 505.88 22.608 505.816 21.84C505.752 21.072 505.64 20.408 505.48 19.848L505.816 19.752ZM509.056 19.536C509.76 19.856 510.312 20.208 510.712 20.592C511.112 20.96 511.4 21.328 511.576 21.696C511.752 22.048 511.832 22.376 511.816 22.68C511.8 22.968 511.72 23.208 511.576 23.4C511.432 23.576 511.248 23.672 511.024 23.688C510.816 23.688 510.592 23.584 510.352 23.376C510.336 22.976 510.248 22.552 510.088 22.104C509.928 21.64 509.728 21.2 509.488 20.784C509.264 20.368 509.032 20.008 508.792 19.704L509.056 19.536ZM512.704 19.2C513.472 19.36 514.088 19.568 514.552 19.824C515.016 20.08 515.368 20.352 515.608 20.64C515.848 20.928 515.984 21.208 516.016 21.48C516.048 21.736 516.008 21.952 515.896 22.128C515.8 22.304 515.648 22.424 515.44 22.488C515.248 22.536 515.024 22.488 514.768 22.344C514.656 22.008 514.472 21.656 514.216 21.288C513.976 20.92 513.704 20.568 513.4 20.232C513.096 19.896 512.784 19.616 512.464 19.392L512.704 19.2ZM509.68 3.744L512.32 4.272C512.208 4.624 511.896 4.8 511.384 4.8C511.224 5.024 511.04 5.264 510.832 5.52C510.624 5.776 510.408 6.032 510.184 6.288C509.976 6.544 509.792 6.776 509.632 6.984H508.792C508.904 6.568 509.048 6.048 509.224 5.424C509.416 4.784 509.568 4.224 509.68 3.744ZM530.536 5.976L530.584 5.424C530.84 5.36 531.08 5.312 531.304 5.28C531.544 5.248 531.808 5.24 532.096 5.256C532.384 5.272 532.712 5.344 533.08 5.472C533.464 5.584 533.792 5.728 534.064 5.904C534.352 6.064 534.496 6.24 534.496 6.432C534.496 6.576 534.464 6.736 534.4 6.912C534.336 7.088 534.256 7.296 534.16 7.536C534.08 7.776 533.984 8.048 533.872 8.352C533.744 8.832 533.576 9.456 533.368 10.224C533.16 10.976 532.92 11.784 532.648 12.648C532.392 13.512 532.112 14.352 531.808 15.168C531.52 15.968 531.216 16.8 530.896 17.664C530.576 18.512 530.248 19.336 529.912 20.136C529.592 20.936 529.272 21.672 528.952 22.344C528.648 23 528.368 23.536 528.112 23.952C527.952 24.224 527.8 24.416 527.656 24.528C527.512 24.656 527.312 24.72 527.056 24.72C526.864 24.72 526.696 24.624 526.552 24.432C526.424 24.24 526.36 24.008 526.36 23.736C526.36 23.56 526.376 23.408 526.408 23.28C526.456 23.152 526.528 23.016 526.624 22.872C526.72 22.728 526.824 22.552 526.936 22.344C527.544 21.432 528.168 20.36 528.808 19.128C529.464 17.896 530.088 16.44 530.68 14.76C530.904 14.152 531.112 13.504 531.304 12.816C531.512 12.128 531.704 11.44 531.88 10.752C532.056 10.064 532.2 9.424 532.312 8.832C532.44 8.24 532.52 7.744 532.552 7.344C532.584 7.072 532.56 6.872 532.48 6.744C532.4 6.616 532.256 6.496 532.048 6.384C531.808 6.288 531.552 6.208 531.28 6.144C531.024 6.08 530.776 6.024 530.536 5.976ZM525.904 9.48C526.416 9.928 526.888 10.264 527.32 10.488C527.752 10.712 528.256 10.832 528.832 10.848C529.552 10.848 530.248 10.792 530.92 10.68C531.592 10.552 532.184 10.416 532.696 10.272C533.496 10.032 534.208 9.784 534.832 9.528C535.456 9.256 535.992 9.008 536.44 8.784C536.616 8.688 536.768 8.608 536.896 8.544C537.04 8.48 537.16 8.448 537.256 8.448C537.4 8.448 537.552 8.48 537.712 8.544C537.872 8.592 538.008 8.664 538.12 8.76C538.232 8.856 538.288 8.976 538.288 9.12C538.288 9.344 538.2 9.536 538.024 9.696C537.864 9.84 537.568 10.008 537.136 10.2C536.944 10.28 536.584 10.416 536.056 10.608C535.544 10.8 534.96 11 534.304 11.208C533.648 11.4 533 11.56 532.36 11.688C531.88 11.8 531.312 11.904 530.656 12C530.016 12.096 529.408 12.144 528.832 12.144C528.368 12.144 527.928 12.08 527.512 11.952C527.112 11.808 526.744 11.568 526.408 11.232C526.072 10.88 525.768 10.4 525.496 9.792L525.904 9.48ZM536.32 13.8L536.176 13.224C536.752 12.984 537.416 12.784 538.168 12.624C538.936 12.448 539.72 12.36 540.52 12.36C541.32 12.36 541.984 12.424 542.512 12.552C543.056 12.68 543.472 12.808 543.76 12.936C544.048 13.08 544.264 13.24 544.408 13.416C544.552 13.592 544.624 13.784 544.624 13.992C544.624 14.2 544.528 14.344 544.336 14.424C544.16 14.504 543.928 14.56 543.64 14.592C543.416 14.608 543.2 14.64 542.992 14.688C542.8 14.736 542.544 14.832 542.224 14.976C541.856 15.12 541.416 15.312 540.904 15.552C540.408 15.792 539.952 16.016 539.536 16.224L539.224 15.792C539.496 15.6 539.808 15.392 540.16 15.168C540.512 14.944 540.84 14.728 541.144 14.52C541.448 14.296 541.648 14.136 541.744 14.04C541.92 13.88 541.888 13.768 541.648 13.704C541.36 13.592 541.024 13.52 540.64 13.488C540.272 13.44 539.904 13.416 539.536 13.416C539.008 13.416 538.472 13.448 537.928 13.512C537.384 13.576 536.848 13.672 536.32 13.8ZM534.808 18.84L534.232 18.912C534.248 19.328 534.288 19.76 534.352 20.208C534.416 20.656 534.552 21.112 534.76 21.576C535 22.28 535.392 22.848 535.936 23.28C536.496 23.712 537.16 24.024 537.928 24.216C538.712 24.424 539.568 24.528 540.496 24.528C541.184 24.528 541.8 24.496 542.344 24.432C542.888 24.368 543.344 24.296 543.712 24.216C544.064 24.152 544.368 24.048 544.624 23.904C544.896 23.76 545.032 23.568 545.032 23.328C545.032 23.136 544.976 22.984 544.864 22.872C544.752 22.744 544.6 22.656 544.408 22.608C544.232 22.544 544.048 22.512 543.856 22.512C543.616 22.512 543.352 22.552 543.064 22.632C542.776 22.696 542.392 22.768 541.912 22.848C541.432 22.928 540.792 22.968 539.992 22.968C538.952 22.968 538.064 22.824 537.328 22.536C536.608 22.248 536.04 21.776 535.624 21.12C535.4 20.768 535.224 20.384 535.096 19.968C534.984 19.552 534.888 19.176 534.808 18.84ZM550.936 8.496C551.4 8.944 551.824 9.288 552.208 9.528C552.608 9.768 553.016 9.936 553.432 10.032C553.848 10.128 554.32 10.176 554.848 10.176C555.648 10.176 556.496 10.104 557.392 9.96C558.304 9.8 559.168 9.6 559.984 9.36C560.8 9.12 561.48 8.864 562.024 8.592C562.472 8.352 562.832 8.168 563.104 8.04C563.376 7.896 563.6 7.824 563.776 7.824C563.904 7.824 564.04 7.84 564.184 7.872C564.328 7.888 564.456 7.928 564.568 7.992C564.68 8.04 564.776 8.112 564.856 8.208C564.936 8.304 564.976 8.424 564.976 8.568C564.976 8.776 564.832 8.976 564.544 9.168C564.256 9.36 563.896 9.544 563.464 9.72C563.128 9.832 562.656 9.992 562.048 10.2C561.44 10.392 560.736 10.584 559.936 10.776C559.136 10.952 558.28 11.104 557.368 11.232C556.456 11.36 555.536 11.424 554.608 11.424C554.112 11.424 553.68 11.4 553.312 11.352C552.944 11.304 552.608 11.2 552.304 11.04C552.016 10.864 551.728 10.6 551.44 10.248C551.152 9.896 550.84 9.416 550.504 8.808L550.936 8.496ZM555.088 6L555.064 5.472C555.32 5.408 555.576 5.352 555.832 5.304C556.088 5.256 556.336 5.232 556.576 5.232C556.944 5.232 557.32 5.304 557.704 5.448C558.088 5.576 558.408 5.736 558.664 5.928C558.92 6.12 559.048 6.312 559.048 6.504C559.048 6.648 559.008 6.776 558.928 6.888C558.848 7 558.752 7.128 558.64 7.272C558.528 7.416 558.44 7.616 558.376 7.872C558.264 8.224 558.144 8.632 558.016 9.096C557.904 9.56 557.768 10.128 557.608 10.8C557.496 11.248 557.36 11.776 557.2 12.384C557.04 12.976 556.872 13.592 556.696 14.232C556.52 14.856 556.36 15.44 556.216 15.984C556.072 16.528 555.952 16.984 555.856 17.352C555.792 17.624 555.776 17.792 555.808 17.856C555.84 17.904 555.984 17.816 556.24 17.592C557.36 16.744 558.472 16.064 559.576 15.552C560.68 15.024 561.864 14.76 563.128 14.76C564.312 14.76 565.288 14.976 566.056 15.408C566.824 15.824 567.392 16.376 567.76 17.064C568.128 17.752 568.312 18.504 568.312 19.32C568.312 20.184 568.088 20.944 567.64 21.6C567.192 22.256 566.576 22.816 565.792 23.28C565.024 23.744 564.136 24.112 563.128 24.384C562.136 24.656 561.088 24.84 559.984 24.936C558.88 25.032 557.784 25.048 556.696 24.984L556.624 24.384C557.568 24.352 558.424 24.272 559.192 24.144C559.976 24.016 560.688 23.864 561.328 23.688C562.736 23.304 563.832 22.848 564.616 22.32C565.4 21.792 565.936 21.232 566.224 20.64C566.528 20.048 566.68 19.472 566.68 18.912C566.68 18.208 566.512 17.608 566.176 17.112C565.856 16.616 565.416 16.24 564.856 15.984C564.312 15.712 563.704 15.576 563.032 15.576C562.376 15.576 561.72 15.696 561.064 15.936C560.408 16.16 559.768 16.464 559.144 16.848C558.536 17.232 557.96 17.664 557.416 18.144C556.888 18.624 556.408 19.112 555.976 19.608C555.864 19.736 555.744 19.912 555.616 20.136C555.488 20.344 555.36 20.528 555.232 20.688C555.104 20.848 554.96 20.928 554.8 20.928C554.64 20.928 554.48 20.848 554.32 20.688C554.176 20.512 554.048 20.304 553.936 20.064C553.84 19.808 553.792 19.552 553.792 19.296C553.792 19.104 553.832 18.936 553.912 18.792C554.008 18.648 554.144 18.368 554.32 17.952C554.464 17.584 554.624 17.096 554.8 16.488C554.992 15.864 555.184 15.192 555.376 14.472C555.568 13.752 555.744 13.072 555.904 12.432C556.08 11.776 556.216 11.232 556.312 10.8C556.424 10.32 556.528 9.84 556.624 9.36C556.736 8.864 556.824 8.408 556.888 7.992C556.968 7.576 557.008 7.264 557.008 7.056C557.04 6.816 557.016 6.656 556.936 6.576C556.856 6.48 556.72 6.4 556.528 6.336C556.336 6.256 556.12 6.192 555.88 6.144C555.656 6.096 555.392 6.048 555.088 6Z" fill="black"/>
<line x1="4.37114e-08" y1="14.5" x2="210" y2="14.5" stroke="black"/>
<line x1="654" y1="14.5" x2="854" y2="14.5" stroke="black"/>
</svg>
