<?xml version="1.0" encoding="UTF-8"?>
<svg id="_レイヤー_2" data-name="レイヤー 2" xmlns="http://www.w3.org/2000/svg" viewBox="0 0 449.87 174.29">
  <defs>
    <style>
      .cls-1 {
        fill: #50772e;
      }
    </style>
  </defs>
  <g id="_レイヤー_3" data-name="レイヤー 3">
    <path class="cls-1" d="M110.6,34.77c.9,1.1-.41.98-.96,1.17-2.68.91-9.34,1.56-11.38,3.24-1.16.95-5.15,9.51-5.44,11.21-.49,2.93.95,5.8,1.36,8.7,1.27,9.06,3.14,22.49-1.49,30.7-.91,1.61-3.08,3.14-3.39,3.92-3.34,8.4-3.95,13.25-9.35,21.5-.76,1.17-4.82,5.71-4.86,6.09-.05.53,2.23,2.27,2.88,2.55,1.32.43,7.76,1.8,8.12,2.11.64.55.32,2.54.83,3.45-1.4.26-1.75-1.78-2.61-2.01-.62-.17-3.26,1.74-4.96,1.84-2.62.16-4.9-.84-7.39-1.28.04-2.49,3.36-.59,2.7-3.06s-4.8.56-6.31,1.02c-1.08.32-4.02.93-4.93.64-.43-.14-.24-1.2-.52-1.22-.92-.06-6.95.43-7.65.72-3.82,5.94-12.22,11.47-15.68,17.13-3.37,5.52-9.16,28.86-11.47,30.66-1.62,1.26-12.76-.43-13.48-1.83-.32-.62.26-2.11.2-2.93-3.27,2.83-5.83,3.41-10.14,2.59-5.57-1.07-5.5-2.64-3.21-7.13,4.64-9.09,12.94-18.28,18.55-27.06,6.14-9.59,3.97-8.7,5.75-19.17,3.48-20.45,12.77-39.8,24.19-57.12,1.66-2.52,4.65-5.21,5.97-7.49,3.97-6.84,6-15.84,11.01-22.16,3.2-4.04,6.43-5.88,11.71-5.85,5.7.03,9.85,1.82,14.44,5.05.92.65,1.58,2.17,2.41,2.48,1.39.52,6.56-.58,8.96-.3,1.01.12,5.77,1.4,6.15,1.86Z"/>
    <g>
      <path class="cls-1" d="M169.97,145.33l-1.08-1.55c-.25-.53-1.1-1.02-2.55-1.48-1.45-.45-2.49-.93-3.12-1.43l-1.03-.84-.23-.61c.87.38,1.91.65,3.12.82,1.2.17,2.55.21,4.05.12.44-2.19.66-4.19.68-6,.02-1.81,0-3.77-.07-5.86,0-.87-.08-1.95-.23-3.23-.44-1.22-1.12-1.94-2.06-2.16-2.22.41-3.64.89-4.27,1.45-.25.38-.55.53-.89.47-1.53.12-2.66-.16-3.38-.84l-.52-.47-.14-.38c-2.03.72-3.34,1.28-3.94,1.69-.03,1.28-.06,2.23-.09,2.86l2.77-1.17c.69-.31,1.45-.61,2.3-.89l.56.28-.38.8c-.34.53-.7,1.02-1.08,1.45l-.75.42-.52.28c-.88.41-2.68,1.36-5.41,2.86-2.74,1.5-4.55,2.66-5.46,3.47-.25.12-1.41-.16-3.47-.84l-.28-.33c0-.56.12-1.03.38-1.41l-.14-.66.89-.42c.31.22.77.38,1.36.47.69-.31,1.76-.87,3.23-1.66,1.47-.8,2.51-1.43,3.14-1.9.06-.62.09-1.08.09-1.38s-.02-.79-.05-1.48c-1.16.44-2.25.88-3.28,1.31-.69-.06-1.29-.34-1.8-.84-.52-.5-.79-.97-.82-1.41.81-.03,1.39-.02,1.73.05.56-.22,1.23-.45,2.02-.68.78-.23,1.48-.48,2.11-.73l-.09-3.14c-1.06.25-1.83.53-2.3.84l-.28.89c-.41.47-.98.49-1.73.05l-.52-.98c-.47-1.44-.84-2.99-1.1-4.66-.27-1.67-.7-3.32-1.29-4.95-.41-.34-1.24-.87-2.48-1.59l.56-.42,1.17-.8c.34-.09.73-.14,1.17-.14s.95.06,1.55.19c1.5-.28,3.22-.64,5.16-1.08,1.16-.28,2.18-.55,3.07-.8.89-.25,1.56-.52,2.02-.82.45-.3,1.01-.33,1.66-.12.5.22,1.05.63,1.66,1.24s1.12,1.17,1.52,1.66c-.06.28-.11.55-.14.8l.38-.19c.25-.06.77-.16,1.55-.28,4.91-.69,8.09-1.23,9.56-1.64.87,0,1.46.22,1.76.66.3.44.6.86.91,1.27l.89,1.08c.75.56.08,1.5-2.02,2.81-2.09,1.31-3.63,2.38-4.59,3.19l1.17,1.08c.59.91.7,1.56.33,1.97,2.16-.22,3.85-.35,5.09-.4,1.23-.05,2.13-.07,2.7-.07.66.12,1.41.41,2.25.84l.56.84c1.22.88,1.55,1.69.98,2.44-2.66,1.84-4.52,3.05-5.6,3.61s-2.35,1.05-3.82,1.45c.06.84.09,1.64.09,2.39.25,2.69.25,5.48,0,8.39,0,.84-.11,1.88-.33,3.09-.22,1.22-.83,2.17-1.83,2.86-.09.19-.44.28-1.03.28ZM151.13,113.13c-.03-.87-.19-1.78-.47-2.72-.38-.19-.81-.3-1.31-.33-.72.22-1.36.42-1.92.61l.28,1.08c.16.72.3,1.52.42,2.39l.38-.14,2.62-.89ZM150.29,118.52c.5-.03.83-.08.98-.14l-.09-3.05-.56.05c-1.09.44-1.81.7-2.16.8l.09.47.38,2.39c.28-.19.73-.31,1.36-.38v-.14ZM153.15,109c.62.34,1.03.95,1.22,1.83l-.09,1.64.33-.09c.97-.28,1.66-.39,2.06-.33.12-.66.2-1.37.23-2.13.03-.77-.06-1.3-.28-1.62h-.98l-2.48.7ZM158.96,118.75c-.56.66-1.03,1.03-1.41,1.12-.44.09-.84-.05-1.22-.42l-.33-.42h-.66c-.22.09-.56.22-1.03.38-.12.94-.17,1.94-.14,3,1.12-.38,2.03-.66,2.72-.84.84-.28,1.56-.11,2.16.52l.14.23c.31.16.61.22.89.19,1.56-.53,3.23-1.06,5.02-1.59l3.56-.89-.23-.66c-.94-.78-1.84-1.53-2.72-2.25-.88-.34-1.8-.73-2.77-1.17l-.33-.52c.09-.19.26-.28.52-.28.75-.25,1.48-.3,2.2-.14l1.97.47c.87-.75,1.57-1.41,2.09-1.97s1.23-1.58,2.13-3.05h-.75c-1.56.03-2.71.1-3.45.21-.73.11-1.6.37-2.6.77-.78.31-1.83.03-3.14-.84l-.7-.42c-.25,1.47-.42,2.55-.52,3.23-.12.91-.28,1.81-.47,2.72-.19.91-.5,1.78-.94,2.62ZM154.37,114.49c-.03,1.03-.09,2.03-.19,3,.38-.12.87-.25,1.5-.38l.56.19c.28-1.06.41-2.23.38-3.52l-.47.33c-1,.22-1.59.34-1.78.38ZM178.32,122.13c-1.81-.47-3.34-.64-4.59-.52-1.09.06-1.88.14-2.34.23s-.98.25-1.55.47c.97.19,1.91.89,2.81,2.11.12.72.23,1.47.33,2.25.41-.22.9-.66,1.48-1.31.58-.66,1.87-1.73,3.87-3.23Z"/>
      <path class="cls-1" d="M195.47,143.74c-.25-.12-.46-.25-.63-.38-.17-.12-.35-.34-.54-.66l-.28-.28-.09-.42.05-.38v-.61l.33-.98.28-1.08c.41-.66.68-1.21.82-1.66.14-.45.33-.9.56-1.34.23-.44.41-.9.54-1.38.12-.48.26-.96.42-1.43l.66.09c.25.63.41,1.04.47,1.24.06.2.14.41.23.61.09.2.16.43.19.68l-.14.7c-.38,2.41-.65,3.73-.82,3.96-.17.23-.27.49-.3.77-.03.28-.11.55-.23.8l-.14.38-.47.61-.42.61-.47.14ZM219.94,146.13l-.7-.14-.61-.38.8-1.78-.28-.52c-.88-.31-1.7-.61-2.48-.89s-1.3-.73-1.55-1.36c.81.03,1.8.12,2.98.28,1.17.16,1.91.2,2.2.12.3-.08.54-.21.73-.4.31-.28,1.05-1.56,2.2-3.84.19-.56.44-1.16.75-1.78.31-.62.56-1.25.75-1.88.19-.62.36-1.26.52-1.9.16-.64.25-1.27.28-1.9-.03-.38-.08-.65-.14-.82-.06-.17-.34-.27-.84-.3h-.61c-3.94-.09-7.72.23-11.34.96-3.63.73-5.62,1.13-6,1.2l-.98.09c-.69.12-1.16.23-1.41.33-.25.09-.48.22-.68.38-.2.16-.51.23-.91.23l-.47.05-1.08-.05-1.12-.23c-.06-.34-.16-.59-.3-.75-.14-.16-.12-.33.07-.54.19-.2.36-.33.52-.38.16-.05.32-.08.49-.09.17-.02.51-.18,1.01-.49-.25-1.03-.42-3.23-.52-6.61s-.15-5.18-.16-5.41c-.02-.23-.05-.47-.12-.7-.06-.23-.17-.66-.33-1.29-.16-.62-.67-1.09-1.55-1.41l-.66-1.27c.03-.34.36-.64.98-.89.41-.12.73-.2.96-.23.23-.03.68-.02,1.34.05l2.48-.89,2.62-3.75.33-1.27-.61-.56-.14-.56.09-.42c.62-.87,1.27-1.41,1.92-1.59l2.86,1.08c.78.53,1.26.82,1.43.87s.3.13.38.26c.08.12.23.36.45.7.22.25.23.56.02.91-.2.36-.8.7-1.8,1.01l-.38.28c-.25.16-1.89,1.16-4.92,3,2.78-.59,4.3-.89,4.57-.89h.77c.25,0,.72-.16,1.41-.47.88-.06,1.66.02,2.34.23.69.22,1.15.39,1.38.52.23.12.52.5.84,1.12.33.63.35,1.23.07,1.8-.28.58-.5.91-.66,1.01s-.39,1.12-.7,3.09-.45,3.11-.42,3.42l-.14.7-1.27.8h-1.45l-.33-.66-2.91.33c-2.25.56-3.59.91-4.03,1.03-.44.12-.8.16-1.08.09v1.41l.14.56c8.25-1.75,14.5-2.92,18.75-3.52,1.41-.22,2.77-.03,4.1.56,1.33.59,2.1,1.09,2.32,1.5-.03.34-.11.61-.23.8s-.45.39-.98.61c-.69-.12-1.16-.2-1.43-.23-.27-.03-.52-.05-.75-.05s-.71-.09-1.43-.28c-1.56-.34-4.17-.23-7.83.35-3.66.58-7.94,1.43-12.84,2.55-.03.47-.03,1.11,0,1.92,1-.19,1.91-.35,2.72-.49.81-.14,1.58-.26,2.3-.38.72-.11,2.49-.41,5.32-.89,2.83-.48,6.24-.77,10.24-.87l.89-.38c.47.09.84.14,1.1.14s.51.12.73.38l.66.14.52.42c.09.25.2.48.33.68.12.2.23.42.33.63.22.28.34.49.35.63s.05.29.09.45c.05.16-.02.37-.21.63-.19.27-.3.63-.35,1.1s-.13.95-.26,1.43c-.12.49-.24.98-.35,1.48-.11.5-.26.98-.45,1.45-.41,1.06-.66,1.73-.77,1.99-.11.27-.24.52-.4.77-.16.25-.4.84-.73,1.78s-.85,1.81-1.57,2.62-1.22,1.28-1.5,1.41l-.33.52-.42.47-.47.14-.42.23-2.02.66ZM204.85,141.25l-.28-.23-.75-.19c-.16-.25-.29-.43-.4-.54-.11-.11-.54-1.62-1.29-4.52-.03-.28-.07-.52-.12-.7s-.12-.38-.21-.56-.2-.38-.3-.59c-.11-.2-.1-.52.02-.96l-.14-.52h.75l1.31.47,1.22.98,1.17,2.72.38,1.78c-.06.34-.07.6-.02.77.05.17.02.34-.07.49-.09.16-.15.31-.16.47-.02.16-.16.34-.45.56l-.66.56ZM212.54,114.58l.28-1.83-.28-.7-.75-.19-.47.09-1.73-.19c-.31-.03-.68-.02-1.1.05-.42.06-1.96.3-4.62.7.56.34.77.66.63.96-.14.3-.13.59.02.87l.05,1.12c1.06-.09,2.47-.32,4.22-.68,1.75-.36,2.89-.57,3.42-.63l.33.42ZM212.02,119.13l.38-.42.09-1.41v-.84c-.41-.09-.74-.12-1.01-.07s-.57.1-.91.16c-.34.06-.98.19-1.92.38s-1.49.3-1.66.35c-.17.05-.51.1-1.01.16l-1.36-.23.14,3.09.56.14.75-.14c.44-.16,1.23-.35,2.37-.59,1.14-.23,2.05-.4,2.74-.49l.84-.09ZM211.65,138.91l-.56-.38c-.06-.25-.38-.91-.94-1.97-.56-1.06-.95-1.76-1.15-2.09-.2-.33-.42-.65-.63-.96-.22-.31-.38-.7-.47-1.17l.14-.7,1.36.38c.62.09,1.01.18,1.17.26.16.08.3.17.45.28.14.11.37.3.68.59l.7.42.28.38.33.52.66,2.67-.23.61-.61,1.08-.66.09h-.52ZM220.74,137.92l-.98-.23-.47-.33c-.72-1.06-1.21-1.8-1.48-2.23s-.52-.85-.77-1.29c-.25-.44-.54-.86-.87-1.27-.33-.41-.59-.87-.77-1.41l.05-.56c.38.03.73.07,1.05.12s.66.11,1.01.19c.34.08.66.17.96.28.3.11.62.27.96.49l.56.52c.59.63.94,1.05,1.03,1.27.19.41.3.68.33.82s.16.46.38.96c.22.5.3,1.05.23,1.64l-.28.47-.56.47-.38.09Z"/>
      <path class="cls-1" d="M242.21,112.61c3.53.03,5.36.66,5.48,1.88,1.75,3,3.09,6.2,4.03,9.61,3.78-1.84,6.2-2.95,7.27-3.33,1.22-.87,2.03-1.47,2.44-1.78.41-.31.57-.84.49-1.59s.57-.66,1.95.28l1.45,1.45c.53,1.62-.06,2.68-1.78,3.16-1.72.49-2.83.89-3.33,1.22s-1.69.89-3.56,1.69-3.52,1.73-4.95,2.79c-1.42,1.06-2.43,1.87-3.02,2.41-.59.55-.95,1.22-1.05,2.02s-.09,1.58.05,2.34c.14.77.5,1.31,1.08,1.64s2.04.5,4.38.52c2.34.02,4.44-.15,6.28-.49,1.03.03,1.98.56,2.86,1.59-.06,1.09-1.09,1.8-3.09,2.11-5.06.56-8.88.28-11.44-.84-1.59-.84-2.59-1.69-2.98-2.55-.39-.86-.65-1.87-.77-3.02-.28-2.44,1.52-5.16,5.39-8.16-1.81-3.81-3.31-6.39-4.5-7.73-1.19-1.34-2.22-2.09-3.09-2.25-1.03.06-1.97-.44-2.81-1.5.59-.78,1.12-1.22,1.59-1.31s1.02-.14,1.64-.14Z"/>
      <path class="cls-1" d="M301.97,111.81c.16-.09.62-.1,1.41-.02.78.08,1.83.51,3.14,1.29,1.22,1.19,1.16,2.5-.19,3.94-1.5,4.69-2.91,6.8-4.22,6.33h-4.27c-2.47.44-3.97.88-4.5,1.31l1.78.8c.06.44-.03,1.05-.28,1.83,1.22-.44,2.73-.77,4.55-.98-.75-.81-1.16-1.61-1.22-2.39l.84.05c1.22.66,2.16,1.3,2.81,1.92,4.44-.62,7.3-1.06,8.58-1.31,1.28-.25,2.72-.16,4.31.28,1,.28,1.66.69,1.97,1.22.94.81.88,1.53-.19,2.16h-.7c-1.91-.59-3.05-.95-3.42-1.08-3.72-.16-6.7-.09-8.95.19,1.91,1.97,4.14,3.86,6.7,5.67,5.38,2.53,8.83,4.61,10.36,6.23-1.19.53-2.84.88-4.95,1.05-2.11.17-3.41.3-3.89.4s-.82-.11-1.01-.61c-1.53-1.19-3.78-3.38-6.75-6.56-.31,6.12-.55,9.56-.7,10.31s-.42,1.37-.8,1.85-.69.74-.94.77-.57-.15-.96-.54-.59-.77-.59-1.12-.06-1.13-.19-2.32c-4.38.31-6.66.7-6.84,1.17.03.56-.04,1.02-.21,1.36s-.38.52-.63.52-.7-.44-1.36-1.31c-.38-.31-.61-.75-.7-1.31-.12-2.84-.19-5.91-.19-9.19-4.28,4.09-7.39,6.58-9.33,7.45-1.91.63-3.17.94-3.8.94l1.5-.89c3.31-3.03,7.12-6.73,11.44-11.11-2.88.75-4.75,1.22-5.62,1.41s-2.7.73-5.48,1.64c-1.12-.09-2-.31-2.62-.66,1.28-.72,2.9-1.35,4.85-1.9,1.95-.55,5.29-1.38,10.01-2.51,1.31-1.53,1.84-2.64,1.59-3.33-1.34.75-2.22,1.11-2.62,1.08-.47-.25-.88-1.23-1.22-2.93-.34-1.7-.7-3.33-1.08-4.9-.34-1.47-.89-2.33-1.64-2.58-.06-.59.17-1.09.7-1.5.94-.44,2.16-.08,3.66,1.08l.56-.19c2.72-.94,5.91-1.81,9.56-2.62.12-.72.19-1.98.19-3.8-2.25.09-4.7.52-7.36,1.27.03,2.25-.23,3.61-.8,4.08-.75.16-1.5-1.05-2.25-3.61-1.94.81-3.55,1.45-4.83,1.92-1.84-.09-2.81-.5-2.91-1.22,2.81-.59,5.27-1.36,7.36-2.3-.22-.87-.55-1.88-.98-3-.38-.53-.88-1.03-1.5-1.5-.12-.34.38-.47,1.5-.38,1.22,0,2.17.27,2.86.8.72.25,1,.8.84,1.64.22.56.28,1.2.19,1.92,2.47-.56,5.16-1.08,8.06-1.55.16-.72.17-1.8.05-3.23l-.8-1.08c0-.22.23-.42.7-.61l.66.23c1.75.34,2.83.95,3.23,1.83-.12.97-.28,1.84-.47,2.62,2.34-.22,4.3-.42,5.86-.61.59.12,1.25.44,1.97.94,1.06.53,1.72,1.11,1.97,1.73,0,.16-.28.36-.84.61-1.09,0-1.99-.17-2.7-.52-.7-.34-2.91-.41-6.63-.19-.19.75-.58,1.69-1.17,2.81-.38.38-.7.67-.98.89.19-.03.36-.06.52-.09ZM299.07,118.85l-.52.28c-2.19-.12-4.67.38-7.45,1.5,0,1.22.16,2.17.47,2.86,2.66-1.03,5.94-1.62,9.84-1.78.38-2,.69-3.78.94-5.34.25-1.56.09-2.34-.47-2.34-.66-.47-3.98.05-9.98,1.55l-1.88-.19c.56,1.38.84,2.58.84,3.61,3.88-1.03,6.33-1.47,7.36-1.31.88.22,1.16.61.84,1.17ZM300.01,127.89c-1.44.09-3.42.5-5.95,1.22l-3,3.75c3.22-1.22,5.72-1.88,7.5-1.97.47-.28,1-.42,1.59-.42.19-.19,1.38.42,3.56,1.83l-3.7-4.41ZM299.07,132.58c-2.53.19-4.81.49-6.84.89.44,1.09.56,2.22.38,3.38,2.59-.75,4.28-1.01,5.06-.8l.94.75.09.52-.84.33c-1.06-.22-2.7.02-4.92.7-.16,1.34-.16,2.53,0,3.56,2.88-.25,5.14-.42,6.8-.52.19-1.69.27-3.7.26-6.02-.02-2.33-.32-3.26-.91-2.79Z"/>
      <path class="cls-1" d="M334.46,117.06c-.56,2.03-.92,3.47-1.08,4.31s-.36,1.93-.61,3.26c-.25,1.33-.44,2.38-.56,3.14-.12.77-.09,1.34.09,1.71,1.47-.94,3.59-1.82,6.35-2.65,2.77-.83,5.63-1.08,8.6-.77,4,.72,6.11,3.47,6.33,8.25-.62,2.03-1.39,3.52-2.3,4.45s-2.28,1.8-4.12,2.6-2.95,1.17-3.3,1.12-1.54.37-3.54,1.24c2.69-1.97,5.14-4.08,7.36-6.33.88-1,1.45-2.22,1.71-3.66.27-1.44-.08-2.58-1.03-3.45-.95-.86-2.24-1.29-3.87-1.29-2.59,0-4.91.32-6.94.96-2.03.64-3.56,1.68-4.59,3.12-.62,2.62-1.94,3.19-3.94,1.69-.34-.94-.5-2.27-.47-3.98.19-3.69,1.14-7.84,2.86-12.47.75-1.16,1.95-2.16,3.61-3l-.56,1.73ZM337.13,107.92c.38,0,1.12.31,2.25.94,1.38,1.28,2.27,2.67,2.67,4.17-.03.78-.08,1.45-.14,1.99-.06.55-.37.82-.91.82s-1.21-.61-1.99-1.83c-1.25.06-2.38.28-3.38.66.62-.78,1.39-1.48,2.3-2.11-.66-1.59-1.78-3.11-3.38-4.55.38-.47,1.23-.5,2.58-.09Z"/>
      <path class="cls-1" d="M381.01,107.88l-.52-.66c.62-.47,1.38-.73,2.25-.8.81.03,1.58.56,2.3,1.59,1.84,1,2.34,2.2,1.5,3.61-.12,1.59-.19,2.83-.19,3.7,2.62-.22,4.29-.33,4.99-.35.7-.02,1.4.16,2.09.54l2.06,1.12c.69.38,1.06.98,1.12,1.83-.44.44-1.06.52-1.88.23s-2.16-.48-4.03-.61c-2.25-.12-3.7-.08-4.36.14-.12,2.38-.24,4.54-.35,6.49-.11,1.95-.09,3.14.05,3.56s.15,1.55.02,3.4c-.34.97-.73,1.53-1.17,1.69-.69,4.59-1.52,7.54-2.51,8.84-.98,1.3-1.74,2-2.27,2.11s-1.19.63-1.97,1.57c1.62-3.19,2.66-7.23,3.09-12.14-1.97-.53-3.44-1.38-4.41-2.53-1-.81-1.58-1.7-1.73-2.67.06-.72.55-1.45,1.45-2.18.91-.73,1.88-1.59,2.91-2.55,1.41-1.03,2.62-.73,3.66.89-.12-2.12-.22-4.23-.28-6.33-3.38.5-5.62.94-6.75,1.31s-2.4.82-3.82,1.34-2.26.97-2.51,1.36c-.25.39-1.2.53-2.84.42-1.64-.11-2.65-.4-3.02-.87l2.62-1.08c4.34-2.5,9.81-4.19,16.41-5.06-.19-2.91-.33-4.76-.42-5.58-.22-.72-.72-1.5-1.5-2.34ZM379.18,127.89c-.78.34-.91.72-.38,1.12.5.81,1.53,1.52,3.09,2.11.47-3.09.52-4.7.14-4.83-.38-.12-.76-.1-1.15.07-.39.17-.96.68-1.71,1.52Z"/>
      <path class="cls-1" d="M410.02,144.67l-.28-.33-.23-.33-.98-1.78.05-.47-.05-.38.47-2.39-.05-.61.09-.75-.05-.38c.03-.53.08-.89.14-1.08s.1-.38.12-.56.04-.55.07-1.08l.14-.56.33-6v-.56c-2.59,3.94-4.8,5.8-6.61,5.58,3.91-6.69,6.11-10.77,6.61-12.26.5-1.48,1.08-2.9,1.73-4.24l-.05-.38.19-.38-.14-.66v-.56l.42-.23.94-.38c.59.25.98.45,1.15.59s.38.24.61.3c.23.06.57.3,1.01.7.06.28.12.5.19.66.06.16.05.42-.05.8l-.09.61-.7.8-.33.33-.47.28c-.22.38-.36.65-.42.82-.06.17-.14.34-.23.52-.09.17-.18.35-.26.54s-.65,1.06-1.71,2.62l.47.23.98.61-.19.89.38.89c-.12.28-.23.51-.3.68-.08.17-.15.38-.21.63l-.23.61-.23,8.06.19.38c-.12.5-.19.84-.19,1.03s0,.37-.02.54l-.21,2.32.19,1.12-.09.42.14.38-.23.47c0,.34-.03.59-.09.73s-.11.28-.14.42-.09.27-.16.38-.43.24-1.05.4h-.52ZM404.63,119.22l.14-.89c.03-.34.11-.62.23-.82.12-.2.26-.42.4-.66s.27-.47.38-.7.21-.46.3-.68l.33-.61c.16-.22.29-.43.4-.63.11-.2.21-.41.3-.61.09-.2,1.2-1.83,3.33-4.9l.33-.8c.06-.28.14-.48.23-.59.09-.11.11-.29.05-.54l-.14-.52v-.56c.28-.19.52-.31.73-.38.2-.06.38-.07.52-.02s.38.12.73.21l.61-.09c.31.03.55.07.73.12s.4.12.68.21l.33.42.38.42.33,1.12-.14.52.09.47-.38.56-.52.33-1.22.61c-.25.38-.42.62-.52.73-.09.11-.21.22-.35.33-.14.11-.29.3-.45.59-.28.19-.46.34-.54.47-.08.12-.16.24-.23.35-.08.11-1.02,1.09-2.84,2.93l-.47.42-2.2,2.16-.42.23c-.16.19-.32.32-.49.4-.17.08-.38.21-.63.4ZM416.87,138.91l-1.22-.7-.75-.61-.8-.7-.05-.47.66-.66.56-.23.47.09c.28-.12.55-.23.82-.3.27-.08.55-.16.84-.26s.97-.3,2.02-.61c1.05-.31,1.7-.51,1.97-.59.27-.08.52-.19.77-.35v-.66l-.05-.38v-4.59c0-.34-.14-.52-.42-.54-.28-.02-.55.02-.82.12s-.55.19-.84.28-.59.2-.89.33c-.3.12-.57.27-.82.42l-.33.19h-.42c-.28-.06-.53-.16-.75-.28l-.56-.61-.38-.98c.56-.25,1.09-.45,1.57-.61.48-.16.98-.3,1.48-.45l1.5-.42c.5-.14,1.03-.29,1.59-.45l.14-.28-.14-.52-.09-.7-.09-.61-.52-.19-.47-.47-.28-.8.09-.38.38-.19c.38-.09.68-.17.91-.23.23-.06.59-.08,1.05-.05.31.12.57.2.77.23.2.03.41.07.63.12s.41.12.59.21.3.2.4.3c.09.11.17.26.23.45s.09.42.09.7l-.14.47v.75l.42.19.8-.19.94-.05c.5.03.84.04,1.01.02.17-.02.34.02.49.09.16.08.33.23.52.45l.38.33-.14.84-.38.47c-.19.31-.34.48-.45.49-.11.02-.24,0-.4-.05s-.36-.08-.61-.09c-.25-.02-.48-.02-.7-.02s-.43-.02-.63-.07-.63,0-1.29.12c-.16.53-.24.9-.26,1.1-.02.2-.04.42-.07.63-.03.22-.1.7-.21,1.43-.11.73-.17,1.27-.19,1.62-.02.34-.07.72-.16,1.12-.09.41-.19.75-.28,1.03l.47.05c.28-.03.55-.09.8-.16.25-.08.47-.16.66-.23.19-.08.41-.17.66-.28.25-.11.53-.16.84-.16l1.08.14.66-.05c.31.16.58.27.8.33.22.06.48.41.8,1.03.09.28.14.58.14.89l-.28.66-.56.09-1.31.38h-1.31c-2.53.09-4.22.25-5.06.47-.84.22-1.47.4-1.88.54s-.84.26-1.31.35l-.89.56-.47.61c-.22.19-.5.36-.84.52h-.47ZM416.07,120.3l-.05-.56.28-.23c.94-.41,1.62-.71,2.06-.91.44-.2.87-.4,1.29-.59s.88-.37,1.36-.54c.48-.17.96-.32,1.43-.45l.05-.98-.09-2.3-.05-.42c-.38-.09-.69-.1-.94-.02-.25.08-.48.16-.7.23-.22.08-.42.17-.61.28-.19.11-.42.16-.7.16l-.56-.09-.7.05h-.75l-.66-.33-.09-.75c.22-.12.43-.26.63-.4s.41-.25.63-.33c.22-.08.42-.16.61-.26s.41-.16.66-.19c.25-.12.51-.23.77-.3.27-.08.54-.16.82-.26s.56-.18.84-.26c.28-.08.58-.16.89-.26l.09-.8-.05-.47.09-2.06c-.03-.25-.09-.45-.19-.59s-.22-.32-.38-.54l-.28-.33-.52-.8-.05-.47.61-.38,1.12.09,1.22.05.47.09.61.09c.5.03.79.11.87.23.08.12.29.3.63.52l.09.52c-.09.38-.12.69-.09.94l-.19,1.12v.42l-.14.7.19.28.89-.09c.5-.09.8-.15.91-.16.11-.02.23-.02.38-.02s.43-.02.87-.05l.89.28.94.61c.06.28.13.52.21.7s.04.5-.12.94l-.8.38c-.47.03-.8.05-1.01.07-.2.02-.43.04-.68.07h-.38l-.56-.14c-.28.03-.49.08-.63.14-.14.06-.28.09-.42.09s-.27,0-.4.02c-.12.02-.3.02-.52.02-.25,2.28-.47,3.58-.66,3.89-.12.22.33.19,1.36-.09l1.45-.14h1.03c.47.03.78.07.94.12s.29.12.4.23c.11.11.26.34.45.68l-.19.61.14.38-.23.56-.47.14-.42.05-.94.19h-.56l-.7.09-1.78-.09c-.28,0-.52.02-.7.07s-.35.11-.49.19c-.14.08-.31.12-.52.14-.2.02-.37.04-.49.07-.12.03-.25.1-.38.21-.12.11-.31.16-.56.16-.22.09-.41.17-.56.23-.16.06-.44.16-.84.28l-1.08.33-.8.19-1.59.14-.52-.05-1.41-.38ZM438.29,145.24l-.61-.19-.75-.89-.33-.8c-.28-.28-.5-.46-.66-.54s-.36-.16-.61-.23-.77-.27-1.55-.56-1.36-.51-1.73-.63c-.38-.12-.75-.3-1.12-.52l-.19-.33c-.16-.66-.06-.97.28-.94.34.03.7.09,1.05.19s1.2.22,2.51.38c.44.06.73.1.87.12.14.02.3.02.47.02s.48-.03.91-.09l.28-.8.09-.84.14-1.78c0-10.38-.04-15.64-.12-15.8-.08-.16-.14-.33-.19-.54-.05-.2-.18-.38-.4-.54l-.75.19-1.45.33c-.28.09-.53.16-.75.21s-.42.06-.61.05c-.19-.02-.36-.02-.52,0-.16.02-.32.05-.49.12-.17.06-.34.09-.49.09s-.44.05-.84.14l-1.22-.66.09-.61c.97-.44,1.93-.85,2.88-1.24.95-.39,1.92-.73,2.91-1.03.98-.3,2-.52,3.05-.66s2.07-.29,3.07-.45l1.03-.19c.44.12.78.19,1.03.19s.48.02.7.05c.22.03.43.07.63.12s.45.09.73.12l.52.38c.38.12.61.27.7.42.09.16.16.29.21.4.05.11.08.24.09.4.02.16.02.42.02.8l-.28.56-.52.47-.33.23c-.28-.09-.5-.15-.66-.16-.16-.02-.31-.03-.47-.05-.16-.02-.29-.05-.4-.12-.11-.06-.3-.09-.59-.09-.53-.09-.89-.16-1.08-.19-.19-.03-.38-.06-.59-.09-.2-.03-.85-.14-1.95-.33l.52.52.23.94c-.06.31-.08.63-.05.94v1.55c.09,5.06.14,7.75.14,8.06v1.78l.14,2.2.05.56-.19.75c.12.28.19.52.19.73v.77c0,.88,0,1.41-.02,1.59s-.02.38-.02.56-.11.42-.33.7l-.33,1.22-.28,1.17-.23.56c-.25.22-.44.4-.56.54s-.2.37-.23.68l-1.08.09ZM432.62,113.22c-.34-.09-.61-.19-.8-.28s-.27-.33-.23-.7c.66-.5,1.32-.89,1.99-1.17s1.34-.53,1.99-.75c.66-.22,2.03-.56,4.12-1.03l.75-.14.52-.05c.28-.06.5-.09.66-.09s.3.02.42.05c.12.03.3.06.54.09.23.03.48.05.73.05s.49.02.73.05c.23.03.54.19.91.47l.47.47c.06.28.13.52.21.73.08.2.07.51-.02.91-.22.22-.42.37-.61.45-.19.08-.42.07-.7-.02l-.89.09-1.22-.14-.52.05-.8-.09-.66.09c-.41.06-.98.13-1.73.21-.75.08-1.27.14-1.57.19s-.59.1-.89.16c-.3.06-.6.12-.91.19-.31.06-.62.11-.94.14l-.47-.05-.61.14h-.47Z"/>
    </g>
    <g>
      <path class="cls-1" d="M172.24,43.88c-2.16-1.14-3.59-1.99-4.31-2.56-.72-.57-1.35-1.12-1.89-1.66l-2.25-2.96c1.44-1.26,2.98-1.81,4.63-1.66,1.65.15,2.99.4,4.04.76,1.05.36,2.35,1.05,3.91,2.07l2.61,3.68.81,4.85c-3.05-.06-5.57-.9-7.55-2.52ZM171.34,79.9l-3.14-4.13-1.98-3.68c0-1.8.3-3.02.9-3.68l2.34.27,3.14,1.35c1.38-1.56,3.07-4.16,5.08-7.82,2.01-3.65,3.73-6.68,5.17-9.07-.9,5.21-1.23,8.33-.99,9.34-.36,1.44-1.86,5.54-4.49,12.31,1.08,1.86,1.86,3.53,2.34,5.03-.9,1.62-1.65,2.39-2.25,2.34-.6-.06-1.17-.15-1.71-.27l-4.4-1.98ZM178.53,26.45l-4.4-4.58-1.98-3.68c1.14-1.2,3.2-1.65,6.2-1.35,1.38.54,2.71,1.42,4,2.65,1.29,1.23,2.13,2.83,2.52,4.81.39,1.98.37,3.59-.04,4.85-.9-.06-1.74-.33-2.52-.81-.78-.48-2.04-1.11-3.77-1.89ZM192.45,71.19c-1.68-.72-3.44-1.62-5.3-2.7,1.74-1.32,4.01-2.34,6.83-3.05,6.29-1.44,9.81-2.23,10.56-2.38.75-.15,1.48-.28,2.2-.4.72-.12,1.41-.33,2.07-.63,2.75-10.3,4.13-19.56,4.13-27.76-.3-.66-.84-1.74-1.62-3.23-1.26.3-3,.73-5.21,1.3-2.22.57-3.7,1.17-4.45,1.8-.75.63-1.71.81-2.88.54s-3.67-1.66-7.5-4.18l3.41-1.08c.72-.24,1.74-.54,3.05-.9,1.32-.36,3.53-.87,6.65-1.53,3.11-.66,5.72-1.29,7.82-1.89,2.1-.6,5.53-1.39,10.29-2.38s8.13-1.57,10.11-1.75c1.98.3,3.19.48,3.64.54.45.06,1.3.78,2.56,2.16.9,3.77.12,5.41-2.34,4.9-2.46-.51-5.23-.61-8.31-.31-3.09.3-5.06.52-5.93.67-.87.15-2.71.55-5.53,1.21,1.44.66,2.7,1.26,3.77,1.8l.81.99.63,1.71c-.9,9.4-3.14,18.36-6.74,26.86,5.63-.6,9.67-.96,12.13-1.08,2.46-.12,4.28-.33,5.48-.63,1.2-.3,3.52.15,6.96,1.35,3.44,1.2,5.62,3.08,6.51,5.66-1.86,2.64-4.04,3.56-6.56,2.79-2.52-.78-4.48-1.51-5.88-2.2-1.41-.69-5.75-.82-13.03-.4-7.28.42-13.37,1.14-18.28,2.16-4.91,1.02-7.7,1.62-8.36,1.8l-1.71.27Z"/>
      <path class="cls-1" d="M277.18,82.69c-.54-.06-.94-.21-1.21-.45-.27-.24-.64-.93-1.12-2.07-.06-.9-.18-1.5-.36-1.8-.18-.3-.33-.55-.45-.76-.12-.21-.3-.49-.54-.85l-3.05-3.32c0-.66-.63-2.25-1.89-4.76,2.28,2.22,3.59,3.44,3.95,3.68.36.24.72.48,1.08.72.36.24.73.46,1.12.67.39.21,1.03.25,1.93.13.9-1.02,1.71-2.41,2.43-4.18.72-1.77,1.36-3.43,1.93-4.99.57-1.56,1.2-3.14,1.89-4.76.69-1.62,1.17-2.99,1.44-4.13.27-1.14.42-1.84.45-2.11.03-.27.06-.58.09-.94.03-.36.04-.69.04-.99s-.06-.96-.18-1.98l-7.73,1.44-1.08,1.08c-.48,1.08-.85,1.78-1.12,2.11-.27.33-.45.69-.54,1.08-.09.39-2.04,3.29-5.84,8.71-3.8,5.42-6.15,8.33-7.05,8.71-.9.39-1.47.64-1.71.76s-1.62.63-4.13,1.53c2.75-4.19,5.31-8.28,7.68-12.26,2.37-3.98,4.12-7.23,5.26-9.75,1.14-2.52,2.25-5.02,3.32-7.5,1.08-2.49,1.83-5.05,2.25-7.68l-.18-1.8-2.61.18-.27,2.25-1.8,2.43-2.43.54c-.3-.54-.53-1.11-.67-1.71-.15-.6-.35-2.14-.58-4.63-.24-2.49-.51-4.78-.81-6.87-.3-2.1-1.35-3.89-3.14-5.39l-.63-.63c.06-.72.09-1.23.09-1.53s-.03-.78-.09-1.44l.99-1.08h1.98c.66.06,1.11.18,1.35.36.24.18.48.36.72.54.24.18.52.33.85.45.33.12.73-.15,1.21-.81l1.17-.27c1.62-.24,6.17-1.23,13.66-2.96l.99.09,1.08-.9.81-.27,1.62.54c.66.36,1.3.64,1.93.85.63.21,1.24.45,1.84.72.6.27,1.35,1.03,2.25,2.29.9,1.26-.9,5.78-5.39,13.57-.36.42-.71.72-1.03.9-.33.18-.62.48-.85.9l-1.8.09-1.17-.18c-3.41.84-5.42,1.35-6.02,1.53v.45l.81.36.72.72c.84.84,1.29,1.45,1.35,1.84.06.39.18.78.36,1.17.18.39.27.82.27,1.3-.78,2.22-1.23,3.5-1.35,3.86h1.26l2.96-.81.81-.18,2.7-1.26c.84.36,1.45.58,1.84.67.39.09,1.26.54,2.61,1.35s1.81,1.96,1.39,3.46c-.42,1.5-.78,3-1.08,4.49-.3,1.5-.49,2.55-.58,3.14-.09.6-.67,2.41-1.75,5.44-1.08,3.03-1.71,4.84-1.89,5.44-.18.6-.42,1.18-.72,1.75-.3.57-.76,1.6-1.39,3.1-.63,1.5-1.12,2.88-1.48,4.13s-2.28,3.26-5.75,6.02c-.54.24-.87.39-.99.45ZM283.55,30.13c.36-1.08.6-1.78.72-2.11.12-.33.21-.7.27-1.12.06-.42.15-2.31.27-5.66l-.18-.99-1.26.18c-5.03-.18-9.76.27-14.2,1.35l1.44,1.8.63,7.01-.18,1.71h1.89c.78-.24,1.59-.42,2.43-.54.84-.12,1.72-.3,2.65-.54.93-.24,1.86-.42,2.79-.54.93-.12,1.84-.3,2.74-.54ZM308.35,56.45c-1.74-.96-2.55-1.96-2.43-3.01.12-1.05.27-3.8.45-8.27.18-4.46.07-7.73-.31-9.79-.39-2.07-.6-3.29-.63-3.68-.03-.39-.22-.78-.58-1.17-.36-.39-1.02-.94-1.98-1.66.24-2.22,1.26-3.28,3.05-3.19s4.1,1.33,6.92,3.73c.78,1.38.96,4,.54,7.86-.42,3.86-.55,8.54-.4,14.02.15,5.48-.55,7.68-2.11,6.6l-2.52-1.44ZM323.18,86.01c-.84-2.46-1.35-4.07-1.53-4.85-1.5-.96-3.4-2.04-5.71-3.23-2.31-1.2-3.82-2.67-4.54-4.4,2.39.6,4.58,1.08,6.56,1.44s3.5.51,4.58.45c.54-2.34.94-5.27,1.21-8.8.27-3.53.24-11.6-.09-24.21-.33-12.61-.64-20.47-.94-23.58-.78-2.04-1.63-3.29-2.56-3.77-.93-.48-1.75-1.65-2.47-3.5-.72-1.86-.24-2.54,1.44-2.07,1.68.48,2.99.85,3.95,1.12.96.27,1.66.39,2.11.36.45-.03,1.62.4,3.5,1.3s2.89,2.01,3.01,3.32c.12,1.32.04,2.46-.22,3.41-.27.96-.64,1.68-1.12,2.16.06,3.29-.03,8.37-.27,15.23-.24,6.86-.13,14.5.31,22.91.45,8.42.64,13.6.58,15.54-.06,1.95-.33,3.31-.81,4.09-.48.78-1.32,2.54-2.52,5.3-1.86,3.05-3.36,3.65-4.49,1.8Z"/>
      <path class="cls-1" d="M386.51,86.46c-.18-.96-.44-1.95-.76-2.96-.33-1.02-.66-2.17-.99-3.46-.33-1.29-.29-5.85.13-13.7l.18-21.92c-3.65.9-5.84,1.54-6.56,1.93-.72.39-1.53.7-2.43.94v10.78c.36,2.16.52,3.85.49,5.08-.03,1.23-.08,2.53-.13,3.91-.06,1.38-1.41,1.95-4.04,1.71-1.8-3.05-2.88-5.42-3.23-7.1,1.26-6.41,1.74-12.07,1.44-16.98-.18-.6-1.38-1.53-3.59-2.79,1.2-1.08,3.29-1.71,6.29-1.89,1.02.36,1.95,1.2,2.79,2.52,1.2-.36,2.08-.72,2.65-1.08.57-.36,1.54-.66,2.92-.9,1.38-.24,2.57-.45,3.59-.63.06-1.74-.09-3.22-.45-4.45-.36-1.23-.64-2.04-.85-2.43-.21-.39-.44-.88-.67-1.48-.24-.54-.18-1.29.18-2.25-3.77.84-8.6,2.01-14.46,3.5l-14.38,4.04c-.48.6-1.11.97-1.89,1.12-.78.15-2.23-.21-4.36-1.08-2.13-.87-3.25-1.78-3.37-2.74,1.14-.12,2.39-.3,3.77-.54,1.44-.48,2.77-.91,4-1.3,1.23-.39,4.57-1.24,10.02-2.56,5.45-1.32,9.64-2.34,12.58-3.05,2.93-.72,7.25-1.65,12.94-2.79,5.69-1.14,15.57-1.89,29.65-2.25.24-.78,1.77-.39,4.58,1.17,5.21,1.74,6.65,4.07,4.31,7.01l-1.8.63c-3.12-.54-4.99-1.11-5.62-1.71-.63-.6-2.68-.99-6.15-1.17-3.47-.18-7.68-.3-12.62-.36-4.94-.06-9.42.33-13.43,1.17-.36.12-.75.21-1.17.27.42.24.78.39,1.08.45.36.18.97.3,1.84.36.87.06,1.68.69,2.43,1.89.75,1.2,1.15,2.1,1.21,2.7.06.6,0,1.23-.18,1.89v3.05c4.13-.24,6.47-.4,7.01-.49s.99-.46,1.35-1.12c1.68-.42,2.98-.39,3.91.09.93.48,1.5.9,1.71,1.26.21.36.6.6,1.17.72.57.12,1.63.72,3.19,1.8.12,2.64-.13,4.13-.76,4.49s-1.06,4.43-1.3,12.22c-.48,1.98-.6,3.56-.36,4.76-.42,1.38-.73,2.37-.94,2.96-.21.6-.9,1.33-2.07,2.2-1.17.87-2.5,1.12-4,.76-.9-1.5-1.17-2.96-.81-4.4-.12-.6-.45-.99-.99-1.17s-2.37-1.2-5.48-3.05c-.54-.96-.81-1.71-.81-2.25,1.38.36,2.7.76,3.95,1.21s2.39.49,3.41.13c.24-3.05.48-6.23.72-9.52.24-3.29.19-5.24-.13-5.84-.33-.6-.54-.96-.63-1.08-.09-.12-1.27-.15-3.55-.09l-4.76.27c-.36,2.16-.6,6.23-.72,12.22-.12,5.99-.2,10.62-.22,13.88-.03,3.26-.18,5.95-.45,8.04-.27,2.1-.76,3.85-1.48,5.26-.72,1.41-1.68,2.8-2.88,4.18ZM387.5,20.96l-2.88-4.76c-.78-1.8-1.86-3.11-3.23-3.95l-2.07-1.35c-.66-.54-1.09-1.15-1.3-1.84-.21-.69-.18-1.18.09-1.48.27-.3.61-.63,1.03-.99,2.39.42,3.85.7,4.36.85.51.15,1.02.33,1.53.54.51.21,1.05.38,1.62.49.57.12,1.56,1.03,2.96,2.74,1.41,1.71,2.12,3.19,2.16,4.45.03,1.26-.17,2.82-.58,4.67-.66.36-1.12.66-1.39.9-.27.24-1.03.15-2.29-.27Z"/>
    </g>
    <path class="cls-1" d="M114.33,127.01c-5.1.83-10.69,1.55-14.56,1.46,0,0-21.82,1.49-25.14,1.5-3.32,0-3.11-.49-3.11-.49,0,0-.6-1.73-1.52-1.44-.92.29-.38,1.15-.38,1.15,0,0-1.61.41-1.57,1.67,0,0-16.2,4.9-23.64,6.38-7.43,1.48-19.8,5.36-19.8,5.36,0,0-12.22,4.45-15.28,6.16C6.27,150.46,0,153.81,0,153.81l1.88,7.5s22.47-11.12,31.71-13.56c9.24-2.43,18.28-5.03,21.74-4.68,0,0,.95,1.37,1.63,1.64.68.27,1.46-1.03,1.46-1.03,0,0,.52.98,1.64.14,1.12-.83,1.37-1.17.27-2.45,0,0,.36-1,5.83-2.12,5.48-1.11,5.89-1.22,5.89-1.22,0,0,7.58-1.35,12.03-1.25,4.45.1,23.96-1.37,23.96-1.37l2.25-.29s.16-.04.31-.08c.16-.04,1.43.19,1.92,1.9,0,0,2.49.65,2.37-1.59,0,0,.33-.24.79-.53l-1.35-7.81Z"/>
  </g>
</svg>