<svg width="131" height="383" viewBox="0 0 131 383" fill="none" xmlns="http://www.w3.org/2000/svg">
<path d="M83.8723 60.5711L91.8643 60.5889L92.8511 59.3191C92.8511 59.3191 92.915 59.3672 93.0428 59.4635C93.1706 59.5598 93.3223 59.6882 93.498 59.8485C93.6896 60.009 93.8892 60.1854 94.0968 60.3779C94.3043 60.5703 94.4959 60.7548 94.6715 60.9312C94.623 61.1871 94.4227 61.3146 94.0707 61.3138L84.0627 61.2915L83.8723 60.5711ZM83.2843 65.9698C83.7964 65.8909 84.4607 65.7804 85.277 65.6382C86.1093 65.4961 87.0457 65.3302 88.0861 65.1405C89.1426 64.9348 90.2631 64.7133 91.4476 64.476C92.6482 64.2387 93.8647 63.9934 95.0973 63.7401L95.1924 64.1483C94.0234 64.5617 92.5983 65.0465 90.9171 65.6028C89.2359 66.159 87.2505 66.7866 84.9609 67.4855C84.8965 67.6454 84.8163 67.7652 84.7201 67.845C84.6239 67.9408 84.5197 68.0045 84.4077 68.0363L83.2843 65.9698ZM84.235 48.6198L84.2366 47.8998L85.795 48.6233L93.211 48.6399L93.2094 49.3359L85.6734 49.3191L85.6536 58.199C85.6535 58.247 85.5974 58.3109 85.4852 58.3907C85.373 58.4704 85.2208 58.5421 85.0287 58.6056C84.8526 58.6692 84.6605 58.7008 84.4525 58.7004L84.2125 58.6998L84.235 48.6198ZM92.467 48.6382L92.227 48.6377L93.0931 47.6796L95.0098 49.1479C94.9296 49.2437 94.8014 49.3394 94.6252 49.435C94.449 49.5146 94.2409 49.5782 94.0008 49.6256L93.9828 57.6896C93.9826 57.7536 93.9025 57.8334 93.7422 57.9291C93.5981 58.0088 93.4299 58.0884 93.2377 58.168C93.0456 58.2315 92.8615 58.2631 92.6855 58.2627L92.4455 58.2622L92.467 48.6382ZM84.9942 52.5815L93.2261 52.5999L93.2246 53.2959L84.9926 53.2775L84.9942 52.5815ZM85.0094 56.5176L93.2413 56.536L93.2398 57.208L85.0079 57.1896L85.0094 56.5176ZM96.302 50.8788C97.3895 51.1052 98.2848 51.3952 98.988 51.7488C99.7073 52.1024 100.266 52.4796 100.666 52.8805C101.065 53.2654 101.336 53.642 101.479 54.0103C101.638 54.3627 101.686 54.6668 101.621 54.9227C101.572 55.1786 101.436 55.3543 101.212 55.4498C101.004 55.5293 100.74 55.4967 100.42 55.352C100.229 54.8236 99.8944 54.2948 99.4155 53.7657C98.9368 53.2207 98.3939 52.7235 97.7869 52.2741C97.1959 51.8088 96.6208 51.4235 96.0614 51.1182L96.302 50.8788ZM94.9631 48.5958L103.507 48.6149L103.505 49.3109L95.1775 49.2923L94.9631 48.5958ZM94.1067 55.9139L104.067 55.9361L104.065 56.6321L94.3212 56.6104L94.1067 55.9139ZM98.8106 55.9964L100.371 55.9999L100.347 66.4878C100.346 66.9038 100.281 67.2797 100.153 67.6154C100.024 67.9511 99.7673 68.2306 99.3828 68.4537C99.0143 68.6769 98.4379 68.8276 97.6537 68.9058C97.6383 68.6498 97.5829 68.4097 97.4874 68.1855C97.3918 67.9773 97.2642 67.817 97.1044 67.7046C96.8968 67.5442 96.6011 67.4155 96.2173 67.3186C95.8495 67.2218 95.3537 67.1327 94.7299 67.0513L94.7307 66.6913C94.7307 66.6913 94.8746 66.7076 95.1626 66.7403C95.4665 66.757 95.8185 66.7817 96.2184 66.8146C96.6344 66.8316 97.0263 66.8564 97.3942 66.8893C97.7622 66.9061 98.0182 66.9147 98.1622 66.915C98.4182 66.9155 98.5863 66.8839 98.6664 66.8201C98.7466 66.7403 98.7869 66.6044 98.7873 66.4124L98.8106 55.9964ZM103.443 55.9347L103.155 55.9341L104.141 54.9283L105.961 56.6844C105.865 56.7481 105.745 56.7959 105.601 56.8275C105.457 56.8592 105.265 56.8908 105.025 56.9223C104.784 57.3057 104.487 57.7371 104.134 58.2163C103.781 58.6955 103.404 59.1587 103.003 59.6058C102.618 60.0369 102.241 60.4201 101.872 60.7552L101.56 60.5625C101.785 60.147 102.018 59.6596 102.26 59.1001C102.517 58.5247 102.75 57.9572 102.959 57.3977C103.169 56.8381 103.33 56.3505 103.443 55.9347ZM102.835 48.6134L102.547 48.6127L103.605 47.5831L105.425 49.3391C105.265 49.4668 104.929 49.546 104.417 49.5769C104.048 49.9441 103.575 50.343 102.998 50.7737C102.437 51.2045 101.852 51.6272 101.243 52.0418C100.635 52.4405 100.074 52.7912 99.561 53.0941L99.2735 52.8774C99.6423 52.5102 100.059 52.0712 100.524 51.5602C100.99 51.0332 101.431 50.5062 101.848 49.9792C102.281 49.4521 102.61 48.9969 102.835 48.6134ZM88.291 48.6289L89.779 48.6322L89.7416 65.3602L88.2529 65.6689L88.291 48.6289ZM88.0071 89.7964L103.415 89.8308L103.414 90.5268L88.0055 90.4924L88.0071 89.7964ZM88.0913 84.3245L100.187 84.3515L100.186 85.0475L88.0898 85.0205L88.0913 84.3245ZM88.0977 81.4685L100.194 81.4955L100.192 82.1915L88.0961 82.1645L88.0977 81.4685ZM87.2879 78.6827L87.2897 77.8907L88.9919 78.6865L100.296 78.7118L100.294 79.4078L88.8463 79.3822L88.8209 90.7822C88.8208 90.8302 88.7566 90.902 88.6284 90.9978C88.5162 91.0775 88.3561 91.1571 88.1479 91.2367C87.9557 91.3003 87.7477 91.3318 87.5237 91.3313L87.2597 91.3307L87.2879 78.6827ZM99.4079 78.7098L99.1679 78.7092L100.058 77.7272L101.999 79.2436C101.919 79.3234 101.782 79.4111 101.59 79.5067C101.414 79.6023 101.206 79.6738 100.966 79.7213L100.953 85.3372C100.953 85.3852 100.873 85.4491 100.713 85.5287C100.568 85.6084 100.392 85.68 100.184 85.7435C99.992 85.8071 99.808 85.8387 99.632 85.8383L99.392 85.8378L99.4079 78.7098ZM102.599 89.8289L102.335 89.8283L103.249 88.8944L105.046 90.3864C104.95 90.4502 104.822 90.5139 104.661 90.5775C104.517 90.6252 104.325 90.6648 104.085 90.6963C103.953 92.44 103.726 93.8795 103.403 95.0147C103.081 96.134 102.671 96.8771 102.175 97.244C101.87 97.4833 101.51 97.6585 101.093 97.7696C100.677 97.8807 100.245 97.9357 99.797 97.9347C99.7975 97.7107 99.7659 97.4946 99.7024 97.2865C99.6548 97.0944 99.5432 96.9421 99.3674 96.8297C99.1917 96.7173 98.9119 96.6047 98.5282 96.4919C98.1444 96.395 97.7446 96.3141 97.3287 96.2492L97.3296 95.8412C97.6496 95.8579 98.0095 95.8827 98.4095 95.9156C98.8254 95.9485 99.2173 95.9814 99.5852 96.0142C99.9532 96.047 100.217 96.0636 100.377 96.064C100.761 96.0648 101.041 95.9855 101.218 95.8259C101.522 95.6025 101.796 94.9632 102.038 93.9077C102.28 92.8362 102.467 91.4766 102.599 89.8289ZM88.0612 87.0605L102.245 87.0921L103.472 85.6069C103.472 85.6069 103.544 85.663 103.688 85.7754C103.832 85.8877 104.016 86.0401 104.239 86.2326C104.479 86.4091 104.718 86.6017 104.958 86.8102C105.213 87.0188 105.437 87.2193 105.628 87.4117C105.564 87.6675 105.356 87.7951 105.004 87.7943L88.0597 87.7565L88.0612 87.0605ZM86.3465 91.8327L86.7546 91.8096C86.9606 92.706 86.9989 93.4901 86.8694 94.1618C86.7399 94.8175 86.5147 95.361 86.1937 95.7923C85.8887 96.2237 85.568 96.5429 85.2316 96.7502C84.9112 96.9255 84.575 97.0047 84.223 96.9879C83.871 96.9872 83.6313 96.8506 83.5039 96.5783C83.4085 96.3221 83.425 96.0902 83.5535 95.8824C83.698 95.6588 83.8984 95.4752 84.1547 95.3318C84.5071 95.1566 84.8437 94.9013 85.1644 94.566C85.5012 94.2308 85.7821 93.8314 86.0071 93.3679C86.2322 92.8884 86.3453 92.3767 86.3465 91.8327ZM89.4667 91.7676C89.9776 92.2488 90.3526 92.7296 90.5915 93.2101C90.8464 93.6747 90.9975 94.115 91.0445 94.5312C91.0916 94.9313 91.0669 95.2832 90.9702 95.587C90.8895 95.8748 90.761 96.0985 90.5847 96.2581C90.4083 96.4177 90.2082 96.4813 89.9843 96.4488C89.7763 96.4163 89.5766 96.2799 89.3852 96.0395C89.4987 95.3517 89.5243 94.6238 89.462 93.8556C89.3998 93.0875 89.2892 92.4232 89.1305 91.8629L89.4667 91.7676ZM92.7072 91.5589C93.4105 91.8804 93.9617 92.2337 94.3608 92.6186C94.76 92.9874 95.0472 93.3561 95.2223 93.7245C95.3976 94.0769 95.4768 94.405 95.4602 94.709C95.4435 94.997 95.363 95.2368 95.2185 95.4285C95.0742 95.6042 94.8899 95.6997 94.6659 95.7152C94.4579 95.7148 94.2341 95.6103 93.9946 95.4017C93.9795 95.0017 93.8924 94.5775 93.7334 94.1292C93.5745 93.6648 93.3755 93.2244 93.1364 92.8078C92.9133 92.3913 92.6821 92.0308 92.4428 91.7263L92.7072 91.5589ZM96.3559 91.231C97.1236 91.3927 97.7391 91.6021 98.2025 91.8591C98.6659 92.1162 99.0173 92.3889 99.2567 92.6775C99.4961 92.966 99.6314 93.2463 99.6628 93.5184C99.6942 93.7745 99.6538 93.9904 99.5414 94.1661C99.445 94.3419 99.2927 94.4616 99.0846 94.5251C98.8925 94.5727 98.6686 94.5242 98.4129 94.3796C98.3016 94.0434 98.1184 93.6909 97.8633 93.3224C97.6241 92.9538 97.3529 92.6012 97.0496 92.2646C96.7464 91.9279 96.435 91.6472 96.1155 91.4225L96.3559 91.231ZM93.3664 75.7683L96.0052 76.3022C95.8925 76.6539 95.5801 76.8292 95.0681 76.8281C94.9076 77.0517 94.723 77.2913 94.5145 77.5469C94.3059 77.8024 94.0893 78.0579 93.8647 78.3134C93.6562 78.5689 93.4717 78.8005 93.3112 79.0082L92.4712 79.0063C92.5841 78.5906 92.7293 78.0709 92.9067 77.4473C93.1001 76.8077 93.2534 76.248 93.3664 75.7683ZM93.9884 108.946C94.1958 109.218 94.3951 109.507 94.5864 109.811C94.7778 110.116 94.9291 110.428 95.0404 110.748C95.1516 111.068 95.2069 111.404 95.2061 111.756C95.2049 112.316 95.1395 112.932 95.01 113.604C94.8805 114.26 94.695 114.931 94.4535 115.619C94.2442 116.194 93.9708 116.826 93.6333 117.513C93.3118 118.184 92.9343 118.855 92.5008 119.526C92.0833 120.182 91.6339 120.789 91.1527 121.347C90.6715 121.89 90.1745 122.329 89.6617 122.664C89.165 122.983 88.6767 123.142 88.1967 123.141C87.7967 123.14 87.397 122.995 86.9976 122.706C86.6143 122.417 86.2632 122.017 85.9443 121.504C85.6415 120.991 85.3948 120.407 85.2042 119.75C85.0137 119.078 84.9193 118.374 84.9209 117.638C84.9228 116.822 85.0446 116.014 85.2864 115.214C85.5441 114.415 85.9139 113.648 86.3955 112.913C86.8771 112.178 87.4546 111.507 88.128 110.901C89.122 110.023 90.2194 109.377 91.4203 108.964C92.6213 108.551 93.8617 108.345 95.1417 108.348C96.3897 108.351 97.5413 108.546 98.5964 108.932C99.6516 109.318 100.57 109.872 101.353 110.594C102.151 111.316 102.773 112.181 103.219 113.19C103.665 114.199 103.886 115.328 103.883 116.576C103.881 117.568 103.703 118.551 103.349 119.527C102.995 120.486 102.417 121.365 101.615 122.163C100.829 122.961 99.7716 123.631 98.4424 124.172C97.1132 124.697 95.4725 125.013 93.5203 125.121L93.4255 124.569C95.3783 124.221 96.9955 123.673 98.2772 122.923C99.5749 122.158 100.545 121.208 101.188 120.074C101.83 118.923 102.153 117.628 102.156 116.188C102.159 114.748 101.842 113.507 101.205 112.466C100.583 111.424 99.7287 110.615 98.642 110.036C97.5712 109.458 96.3719 109.167 95.0439 109.164C93.9079 109.162 92.7794 109.383 91.6584 109.829C90.5534 110.258 89.584 110.888 88.7502 111.718C87.9965 112.452 87.3946 113.299 86.9445 114.258C86.4944 115.201 86.2682 116.201 86.2658 117.257C86.2641 118.009 86.3586 118.697 86.5492 119.321C86.7558 119.93 87.0107 120.418 87.3139 120.787C87.6331 121.14 87.9607 121.316 88.2967 121.317C88.6967 121.318 89.1212 121.111 89.5701 120.696C90.0351 120.281 90.4842 119.762 90.9176 119.139C91.367 118.5 91.7765 117.837 92.1461 117.15C92.5316 116.463 92.845 115.831 93.0863 115.256C93.3276 114.68 93.529 114.057 93.6905 113.385C93.868 112.714 93.9573 112.106 93.9585 111.562C93.9596 111.082 93.8806 110.658 93.7214 110.289C93.5782 109.905 93.3871 109.512 93.148 109.112L93.9884 108.946ZM91.0145 140.267L97.6624 140.282L97.6609 140.978L91.0129 140.963L91.0145 140.267ZM91.0061 144.011L97.6541 144.026L97.6525 144.722L91.0045 144.707L91.0061 144.011ZM90.3745 136.642L90.3762 135.898L91.9825 136.645L97.7425 136.658L97.741 137.354L91.861 137.341L91.8429 145.429C91.8428 145.477 91.7787 145.541 91.6505 145.621C91.5383 145.7 91.3862 145.772 91.194 145.836C91.0019 145.899 90.8018 145.931 90.5938 145.93L90.3538 145.93L90.3745 136.642ZM96.7345 136.656L96.4945 136.655L97.3607 135.697L99.2773 137.19C99.2132 137.269 99.085 137.357 98.8928 137.453C98.7166 137.532 98.5085 137.588 98.2684 137.619L98.2515 145.203C98.2514 145.251 98.1712 145.315 98.011 145.395C97.8669 145.475 97.6987 145.554 97.5065 145.634C97.3144 145.697 97.1303 145.729 96.9543 145.728L96.7143 145.728L96.7345 136.656ZM93.5729 133.817L96.0919 134.255C95.9951 134.622 95.6987 134.806 95.2027 134.805C94.9779 135.14 94.7131 135.507 94.4082 135.907C94.1033 136.306 93.8305 136.665 93.5898 136.985L92.9418 136.983C93.0387 136.568 93.1439 136.056 93.2572 135.448C93.3866 134.824 93.4918 134.281 93.5729 133.817ZM98.9326 141.101C100.132 141.28 101.124 141.53 101.907 141.852C102.706 142.157 103.338 142.495 103.801 142.864C104.28 143.233 104.607 143.594 104.782 143.946C104.973 144.298 105.045 144.603 104.996 144.858C104.964 145.114 104.835 145.298 104.611 145.41C104.387 145.505 104.107 145.488 103.771 145.36C103.468 144.911 103.029 144.438 102.454 143.941C101.879 143.427 101.257 142.946 100.586 142.497C99.9305 142.031 99.3074 141.662 98.716 141.388L98.9326 141.101ZM84.4728 135.645C85.4642 135.903 86.2635 136.209 86.8707 136.562C87.4939 136.915 87.9651 137.276 88.2843 137.645C88.6035 138.014 88.8027 138.366 88.8819 138.702C88.9612 139.023 88.9446 139.303 88.8321 139.542C88.7356 139.766 88.5672 139.91 88.3271 139.973C88.103 140.021 87.8391 139.956 87.5355 139.779C87.3765 139.347 87.1135 138.89 86.7466 138.41C86.3797 137.929 85.9727 137.464 85.5257 137.015C85.0787 136.566 84.6476 136.181 84.2323 135.86L84.4728 135.645ZM83.4221 143.994C83.8064 143.851 84.3349 143.636 85.0076 143.35C85.6962 143.047 86.465 142.705 87.3139 142.323C88.1627 141.941 89.0356 141.535 89.9326 141.105L90.0758 141.441C89.5149 141.856 88.8257 142.39 88.0083 143.044C87.1908 143.699 86.2372 144.417 85.1474 145.198C85.0987 145.518 84.9702 145.734 84.762 145.845L83.4221 143.994ZM83.2933 147.954L101.845 147.995L103.049 146.486C103.049 146.486 103.12 146.55 103.264 146.679C103.408 146.791 103.6 146.943 103.839 147.136C104.079 147.312 104.318 147.505 104.558 147.713C104.813 147.922 105.045 148.123 105.253 148.315C105.204 148.571 104.996 148.698 104.628 148.698L83.5077 148.65L83.2933 147.954ZM92.0773 147.974L94.0933 147.978L94.0924 148.362C93.3061 149.4 92.36 150.35 91.254 151.212C90.1481 152.057 88.9224 152.823 87.5769 153.508C86.2314 154.177 84.7981 154.749 83.2771 155.226L83.0859 154.842C84.3511 154.3 85.5445 153.663 86.6662 152.93C87.8038 152.196 88.8296 151.414 89.7434 150.584C90.6733 149.738 91.4513 148.868 92.0773 147.974ZM95.2453 147.981C95.9473 148.846 96.8575 149.656 97.9758 150.411C99.0942 151.149 100.317 151.792 101.644 152.339C102.97 152.87 104.265 153.273 105.529 153.548L105.504 153.812C105.184 153.875 104.896 154.018 104.639 154.242C104.383 154.481 104.198 154.793 104.085 155.176C102.854 154.758 101.655 154.211 100.489 153.536C99.3384 152.862 98.2841 152.075 97.3261 151.177C96.3681 150.279 95.5623 149.293 94.9087 148.22L95.2453 147.981ZM93.4504 145.673L95.9458 145.942C95.9294 146.102 95.8571 146.238 95.7289 146.35C95.6006 146.461 95.3765 146.541 95.0564 146.588L95.0368 155.348C95.0367 155.412 94.9645 155.484 94.8203 155.564C94.6921 155.643 94.532 155.715 94.3398 155.779C94.1477 155.842 93.9476 155.874 93.7396 155.873L93.4276 155.873L93.4504 145.673ZM102.425 135.421L104.702 136.842C104.574 137.033 104.318 137.065 103.934 136.936C103.565 137.223 103.109 137.55 102.564 137.917C102.035 138.268 101.474 138.643 100.881 139.041C100.304 139.424 99.7676 139.775 99.2709 140.094L99.0076 139.781C99.3925 139.35 99.7936 138.871 100.211 138.344C100.644 137.817 101.053 137.298 101.438 136.786C101.839 136.259 102.168 135.804 102.425 135.421ZM89.7844 175.241L98.4484 175.26L98.4469 175.932L89.7829 175.913L89.7844 175.241ZM97.7109 172.33L97.5189 172.33L98.2887 171.54L99.9179 172.767C99.8538 172.831 99.7496 172.903 99.6055 172.982C99.4613 173.062 99.3012 173.118 99.1251 173.149L99.1183 176.173C99.1182 176.221 99.0461 176.285 98.9019 176.365C98.7738 176.429 98.6136 176.492 98.4215 176.556C98.2453 176.619 98.0773 176.651 97.9173 176.651L97.7013 176.65L97.7109 172.33ZM89.1429 172.311L89.1445 171.591L90.6789 172.315L98.5509 172.332L98.5494 173.004L90.5574 172.986L90.5498 176.418C90.5497 176.45 90.4856 176.506 90.3574 176.586C90.2453 176.65 90.0931 176.713 89.901 176.777C89.7249 176.824 89.5408 176.848 89.3488 176.848L89.1328 176.847L89.1429 172.311ZM93.454 165.577L95.6134 165.822C95.5971 165.965 95.5328 166.085 95.4206 166.181C95.3085 166.261 95.1403 166.316 94.9163 166.348L94.9072 170.404L93.4432 170.401L93.454 165.577ZM88.3613 167.653L97.5773 167.674L98.5159 166.5C98.5159 166.5 98.6117 166.58 98.8034 166.741C99.011 166.901 99.2506 167.094 99.5221 167.318C99.7936 167.543 100.041 167.759 100.265 167.968C100.2 168.224 99.9918 168.351 99.6398 168.351L88.5518 168.326L88.3613 167.653ZM87.1319 170.099L98.6758 170.124L99.6625 168.951C99.6625 168.951 99.7583 169.031 99.9499 169.191C100.158 169.352 100.397 169.552 100.669 169.793C100.956 170.017 101.212 170.242 101.435 170.467C101.371 170.722 101.162 170.85 100.81 170.849L87.3223 170.819L87.1319 170.099ZM93.1924 175.248L94.7284 175.252L94.7275 175.636C93.9409 176.818 92.9305 177.88 91.6964 178.821C90.4783 179.746 89.1246 180.535 87.6351 181.188L87.372 180.779C88.6056 180.078 89.7274 179.248 90.7376 178.291C91.7477 177.333 92.566 176.319 93.1924 175.248ZM94.8724 175.252L94.8584 181.516C94.8583 181.58 94.746 181.684 94.5217 181.827C94.2974 181.955 94.0013 182.018 93.6333 182.017L93.4173 182.017L93.4324 175.249L94.8724 175.252ZM85.3757 182.719L103.04 182.758L103.038 183.454L85.3741 183.415L85.3757 182.719ZM102.361 164.373L102.121 164.372L103.011 163.342L104.928 164.882C104.735 165.09 104.383 165.249 103.87 165.36L103.829 184.08C103.829 184.128 103.756 184.192 103.612 184.271C103.484 184.367 103.316 184.455 103.108 184.534C102.916 184.614 102.723 184.653 102.531 184.653L102.315 184.653L102.361 164.373ZM84.6007 164.333L84.6026 163.493L86.2567 164.337L103.105 164.374L103.103 165.07L86.1112 165.032L86.0683 184.256C86.0681 184.32 86.0119 184.4 85.8997 184.496C85.7875 184.608 85.6353 184.695 85.4431 184.759C85.267 184.838 85.0589 184.878 84.8189 184.877L84.5549 184.877L84.6007 164.333ZM99.4315 175.646L100.821 176.921C100.756 177.001 100.668 177.049 100.556 177.065C100.46 177.08 100.3 177.048 100.077 176.968C99.7561 177.175 99.3395 177.438 98.8268 177.757C98.3141 178.06 97.8575 178.323 97.457 178.546L97.2416 178.281C97.5624 177.946 97.9313 177.515 98.3485 176.988C98.7817 176.461 99.1427 176.013 99.4315 175.646ZM94.8676 177.412C95.9711 177.638 96.9544 177.921 97.8177 178.258C98.681 178.58 99.3681 178.95 99.8792 179.367C100.199 179.64 100.406 179.912 100.501 180.184C100.613 180.441 100.628 180.657 100.548 180.833C100.484 181.008 100.355 181.112 100.163 181.144C99.9712 181.175 99.7314 181.079 99.4439 180.854C99.1727 180.502 98.7895 180.133 98.2944 179.748C97.8152 179.362 97.272 179.001 96.6648 178.664C96.0736 178.311 95.4502 178.021 94.7947 177.796L94.8676 177.412Z" fill="black"/>
<path d="M28.8059 191.571L36.7979 191.589L37.7847 190.319C37.7847 190.319 37.8486 190.367 37.9764 190.464C38.1042 190.56 38.2559 190.688 38.4315 190.849C38.6232 191.009 38.8228 191.185 39.0304 191.378C39.2379 191.57 39.4295 191.755 39.6051 191.931C39.5566 192.187 39.3563 192.315 39.0043 192.314L28.9963 192.291L28.8059 191.571ZM28.2179 196.97C28.73 196.891 29.3943 196.78 30.2106 196.638C31.0429 196.496 31.9793 196.33 33.0197 196.14C34.0762 195.935 35.1967 195.713 36.3812 195.476C37.5817 195.239 38.7983 194.993 40.0309 194.74L40.126 195.148C38.957 195.562 37.5319 196.047 35.8507 196.603C34.1695 197.159 32.184 197.787 29.8945 198.486C29.8301 198.645 29.7499 198.765 29.6537 198.845C29.5575 198.941 29.4533 199.005 29.3412 199.036L28.2179 196.97ZM29.1686 179.62L29.1702 178.9L30.7286 179.623L38.1446 179.64L38.143 180.336L30.607 180.319L30.5872 189.199C30.5871 189.247 30.531 189.311 30.4188 189.391C30.3066 189.47 30.1544 189.542 29.9623 189.606C29.7862 189.669 29.5941 189.701 29.3861 189.7L29.1461 189.7L29.1686 179.62ZM37.4006 179.638L37.1606 179.638L38.0267 178.68L39.9434 180.148C39.8632 180.244 39.735 180.339 39.5588 180.435C39.3826 180.515 39.1745 180.578 38.9344 180.626L38.9164 188.69C38.9162 188.754 38.836 188.833 38.6758 188.929C38.5317 189.009 38.3635 189.088 38.1713 189.168C37.9792 189.232 37.7951 189.263 37.6191 189.263L37.3791 189.262L37.4006 179.638ZM29.9277 183.582L38.1597 183.6L38.1582 184.296L29.9262 184.278L29.9277 183.582ZM29.943 187.518L38.1749 187.536L38.1734 188.208L29.9415 188.19L29.943 187.518ZM41.2356 181.879C42.3231 182.105 43.2184 182.395 43.9216 182.749C44.6409 183.102 45.2 183.48 45.5991 183.881C45.9983 184.265 46.2694 184.642 46.4126 185.01C46.5718 185.363 46.6191 185.667 46.5546 185.923C46.506 186.179 46.3696 186.354 46.1454 186.45C45.9372 186.529 45.6733 186.497 45.3536 186.352C45.1628 185.824 44.828 185.295 44.3491 184.766C43.8704 184.221 43.3275 183.723 42.7205 183.274C42.1295 182.809 41.5544 182.423 40.995 182.118L41.2356 181.879ZM39.8967 179.596L48.4406 179.615L48.4391 180.311L40.1111 180.292L39.8967 179.596ZM39.0403 186.914L49.0003 186.936L48.9988 187.632L39.2548 187.61L39.0403 186.914ZM43.7442 186.996L45.3042 187L45.2807 197.488C45.2798 197.904 45.215 198.28 45.0862 198.615C44.9575 198.951 44.7009 199.231 44.3164 199.454C43.9479 199.677 43.3715 199.828 42.5873 199.906C42.5719 199.65 42.5164 199.41 42.421 199.185C42.3254 198.977 42.1978 198.817 42.038 198.705C41.8304 198.544 41.5347 198.415 41.1509 198.319C40.7831 198.222 40.2873 198.133 39.6635 198.051L39.6643 197.691C39.6643 197.691 39.8082 197.708 40.0962 197.74C40.4001 197.757 40.7521 197.782 41.152 197.815C41.568 197.832 41.9599 197.856 42.3278 197.889C42.6958 197.906 42.9518 197.915 43.0958 197.915C43.3518 197.916 43.5199 197.884 43.6 197.82C43.6802 197.74 43.7205 197.604 43.7209 197.412L43.7442 186.996ZM48.3763 186.935L48.0883 186.934L49.0746 185.928L50.8946 187.684C50.7985 187.748 50.6784 187.796 50.5343 187.828C50.3903 187.859 50.1982 187.891 49.9581 187.922C49.7173 188.306 49.4203 188.737 49.0672 189.216C48.7141 189.695 48.3371 190.159 47.9361 190.606C47.5511 191.037 47.1743 191.42 46.8055 191.755L46.494 191.563C46.7189 191.147 46.952 190.66 47.1932 190.1C47.4505 189.525 47.6838 188.957 47.893 188.398C48.1023 187.838 48.2634 187.35 48.3763 186.935ZM47.7686 179.613L47.4806 179.613L48.5389 178.583L50.359 180.339C50.1987 180.467 49.8626 180.546 49.3505 180.577C48.9817 180.944 48.5088 181.343 47.9318 181.774C47.3709 182.204 46.7859 182.627 46.177 183.042C45.5681 183.44 45.0073 183.791 44.4946 184.094L44.2071 183.877C44.5759 183.51 44.9929 183.071 45.4581 182.56C45.9232 182.033 46.3644 181.506 46.7816 180.979C47.2148 180.452 47.5438 179.997 47.7686 179.613ZM33.2246 179.629L34.7126 179.632L34.6752 196.36L33.1865 196.669L33.2246 179.629ZM37.8892 208.015L37.8909 207.247L39.6652 208.019L46.9612 208.036L47.7072 207.125L49.4323 208.449C49.3521 208.529 49.2399 208.609 49.0958 208.688C48.9676 208.768 48.7915 208.824 48.5674 208.855L48.5531 215.239C48.553 215.287 48.4248 215.375 48.1685 215.502C47.9123 215.614 47.6082 215.669 47.2562 215.668L46.9922 215.668L47.0077 208.732L39.3757 208.715L39.3607 215.411C39.3606 215.475 39.2484 215.57 39.0241 215.698C38.7998 215.825 38.4957 215.889 38.1117 215.888L37.8717 215.887L37.8892 208.015ZM38.6506 210.993L47.6746 211.013L47.673 211.733L38.649 211.713L38.6506 210.993ZM38.5956 214.113L47.7396 214.133L47.738 214.829L38.5941 214.809L38.5956 214.113ZM42.2168 215.369L44.4483 215.614C44.4319 215.774 44.3676 215.91 44.2554 216.022C44.1432 216.117 43.951 216.189 43.6789 216.236L43.6687 220.796L42.2047 220.793L42.2168 215.369ZM36.5173 220.54L47.4852 220.565L48.5442 219.247C48.5442 219.247 48.648 219.335 48.8556 219.512C49.0792 219.688 49.3427 219.905 49.6461 220.162C49.9496 220.402 50.2211 220.643 50.4605 220.883C50.396 221.139 50.1877 221.267 49.8357 221.266L36.7077 221.237L36.5173 220.54ZM37.823 216.199C38.5423 216.489 39.1096 216.81 39.5248 217.163C39.9561 217.5 40.2673 217.837 40.4586 218.173C40.6499 218.494 40.7452 218.79 40.7446 219.062C40.744 219.334 40.6715 219.558 40.5271 219.733C40.3987 219.893 40.2225 219.981 39.9985 219.996C39.7905 220.012 39.5667 219.923 39.3271 219.731C39.2639 219.362 39.1368 218.97 38.9457 218.554C38.7546 218.137 38.5315 217.745 38.2763 217.376C38.0212 216.992 37.7739 216.655 37.5346 216.367L37.823 216.199ZM46.8474 216.003L49.0773 216.968C49.013 217.096 48.9088 217.2 48.7646 217.28C48.6204 217.343 48.4204 217.359 48.1645 217.326C47.7314 217.821 47.2503 218.308 46.7212 218.787C46.2081 219.266 45.7273 219.657 45.2786 219.96L44.9191 219.719C45.2241 219.272 45.5454 218.712 45.8829 218.041C46.2204 217.37 46.5419 216.691 46.8474 216.003ZM29.0984 211.068L29.1 210.348L30.5624 211.071L35.5784 211.082L35.5768 211.802L30.4408 211.791L30.4142 223.695C30.414 223.775 30.3018 223.878 30.0775 224.006C29.8532 224.133 29.5891 224.197 29.2851 224.196L29.0691 224.196L29.0984 211.068ZM34.8584 211.081L34.6184 211.08L35.3404 210.194L37.2093 211.59C37.145 211.686 37.0168 211.781 36.8246 211.877C36.6324 211.957 36.4243 212.012 36.2002 212.044L36.1786 221.716C36.1778 222.1 36.145 222.436 36.0804 222.723C36.0158 222.995 35.8713 223.211 35.647 223.37C35.4226 223.53 35.0704 223.633 34.5903 223.68C34.5747 223.504 34.5511 223.32 34.5195 223.128C34.4879 222.936 34.4323 222.784 34.3525 222.672C34.2728 222.559 34.161 222.471 34.0171 222.407C33.8733 222.326 33.6894 222.262 33.4655 222.214L33.4664 221.83C33.4664 221.83 33.5384 221.838 33.6823 221.854C33.8263 221.854 33.9863 221.863 34.1623 221.879C34.3382 221.895 34.4662 221.904 34.5462 221.904C34.7382 221.904 34.8345 221.785 34.835 221.545L34.8584 211.081ZM31.8097 211.386L31.8194 207.042L34.1708 207.287C34.1545 207.447 34.0822 207.583 33.9539 207.695C33.8257 207.806 33.6175 207.886 33.3294 207.933L33.3217 211.389L33.1297 211.389L33.1296 211.437L33.2496 211.437L33.2119 228.333C33.2118 228.381 33.1556 228.445 33.0434 228.525C32.9313 228.604 32.7871 228.676 32.611 228.74C32.4348 228.803 32.2427 228.835 32.0347 228.834L31.8187 228.834L31.8576 211.434L31.9776 211.434L31.9777 211.386L31.8097 211.386ZM43.9569 220.725L45.4449 220.728C45.4446 220.856 45.4443 220.984 45.444 221.112C45.4437 221.24 45.4435 221.344 45.4433 221.424L45.4314 226.776C45.4311 226.92 45.4628 227.016 45.5267 227.064C45.5906 227.129 45.7585 227.161 46.0305 227.162L47.3505 227.165C47.6385 227.165 47.8945 227.158 48.1186 227.142C48.3426 227.143 48.5106 227.143 48.6226 227.143C48.7506 227.128 48.8548 227.032 48.9352 226.856C49.0156 226.68 49.1124 226.312 49.2257 225.753C49.339 225.177 49.4603 224.577 49.5897 223.954L49.9017 223.954L49.967 226.93C50.2068 227.027 50.3506 227.123 50.3984 227.219C50.4621 227.331 50.4939 227.452 50.4936 227.58C50.4931 227.788 50.4047 227.963 50.2284 228.107C50.0521 228.251 49.7319 228.354 49.2677 228.417C48.8195 228.496 48.1555 228.534 47.2755 228.532L45.6435 228.529C45.1635 228.528 44.7956 228.479 44.5398 228.382C44.3 228.286 44.1403 228.133 44.0608 227.925C43.9813 227.717 43.9419 227.445 43.9426 227.109L43.9569 220.725ZM40.1166 220.86L41.7966 220.864C41.6653 222.336 41.3585 223.591 40.8762 224.63C40.3939 225.653 39.68 226.507 38.7344 227.193C37.7889 227.879 36.5476 228.444 35.0106 228.889L34.8675 228.505C36.1647 227.948 37.1741 227.318 37.8957 226.615C38.6333 225.897 39.1632 225.074 39.4852 224.147C39.8233 223.204 40.0338 222.108 40.1166 220.86ZM28.4145 248.658L36.1185 248.676L37.0813 247.406C37.0813 247.406 37.1851 247.494 37.3927 247.67C37.6004 247.831 37.8399 248.031 38.1114 248.272C38.3988 248.513 38.6543 248.745 38.8778 248.97C38.8133 249.226 38.613 249.353 38.277 249.352L28.605 249.331L28.4145 248.658ZM38.8545 248.682L47.1824 248.7L48.2656 247.311C48.2656 247.311 48.3294 247.367 48.4572 247.479C48.585 247.575 48.7527 247.712 48.9603 247.888C49.1679 248.065 49.3835 248.249 49.607 248.442C49.8306 248.634 50.0302 248.819 50.2058 248.995C50.1572 249.251 49.9489 249.378 49.5809 249.378L39.045 249.354L38.8545 248.682ZM43.2058 245.379L45.5813 245.649C45.5489 245.793 45.4686 245.92 45.3404 246.032C45.2281 246.144 45.02 246.215 44.7159 246.247L44.691 257.407C44.6909 257.471 44.6267 257.543 44.4985 257.622C44.3703 257.702 44.2182 257.766 44.0421 257.813C43.866 257.861 43.6819 257.884 43.4899 257.884L43.1779 257.883L43.2058 245.379ZM32.958 245.308L35.2854 245.554C35.2691 245.714 35.1968 245.849 35.0685 245.961C34.9403 246.057 34.7322 246.128 34.444 246.176L34.4192 257.312C34.4191 257.376 34.3549 257.448 34.2267 257.527C34.1145 257.607 33.9624 257.679 33.7702 257.742C33.5941 257.822 33.41 257.862 33.218 257.861L32.93 257.86L32.958 245.308ZM34.3631 250.184C35.1947 250.377 35.8662 250.611 36.3775 250.884C36.9049 251.157 37.2963 251.446 37.5516 251.751C37.807 252.039 37.9663 252.32 38.0297 252.592C38.0932 252.848 38.0687 253.072 37.9562 253.264C37.8598 253.439 37.7076 253.551 37.4995 253.599C37.2914 253.63 37.0595 253.574 36.8039 253.429C36.6767 253.077 36.4615 252.716 36.1583 252.348C35.8551 251.963 35.5199 251.602 35.1527 251.265C34.8015 250.913 34.4581 250.624 34.1226 250.399L34.3631 250.184ZM32.6385 248.668L34.1265 248.671L34.1257 249.031C33.5784 250.518 32.8073 251.876 31.8126 253.106C30.8339 254.32 29.6635 255.389 28.3014 256.314L28.0143 255.929C29.0884 254.956 30.0109 253.846 30.7817 252.6C31.5685 251.337 32.1874 250.027 32.6385 248.668ZM42.6945 248.69L44.2065 248.694L44.2057 249.054C43.45 250.668 42.4228 252.114 41.124 253.391C39.8251 254.668 38.2867 255.76 36.5086 256.668L36.2455 256.26C37.7197 255.319 39.0022 254.194 40.0931 252.884C41.2 251.575 42.0671 250.177 42.6945 248.69ZM44.8785 248.695C45.2605 249.592 45.7546 250.441 46.3608 251.242C46.983 252.044 47.6614 252.757 48.396 253.383C49.1306 253.993 49.8735 254.482 50.6247 254.852L50.5762 255.092C49.952 255.186 49.535 255.601 49.3254 256.337C48.2712 255.551 47.3214 254.525 46.4763 253.259C45.6471 251.977 44.9864 250.511 44.4941 248.862L44.8785 248.695ZM29.6125 238.821L46.0284 238.858L47.1115 237.468C47.1115 237.468 47.1754 237.524 47.3031 237.636C47.4469 237.733 47.6226 237.869 47.8302 238.046C48.0378 238.222 48.2534 238.415 48.4769 238.623C48.7165 238.816 48.9321 239.008 49.1237 239.201C49.1074 239.312 49.0352 239.4 48.9071 239.464C48.7949 239.528 48.6589 239.559 48.4989 239.559L29.8029 239.517L29.6125 238.821ZM38.379 235.913L40.8504 236.182C40.818 236.342 40.7377 236.486 40.6094 236.614C40.4812 236.725 40.265 236.797 39.9609 236.828L39.9405 245.996C39.9403 246.06 39.8762 246.124 39.748 246.188C39.6199 246.251 39.4518 246.315 39.2436 246.378C39.0515 246.426 38.8594 246.45 38.6675 246.449L38.3555 246.449L38.379 235.913ZM37.4604 238.838L39.1404 238.842L39.1396 239.226C38.0642 240.744 36.6532 242.061 34.9067 243.177C33.1762 244.293 31.2462 245.217 29.1165 245.948L28.8775 245.539C30.7192 244.743 32.3854 243.763 33.876 242.599C35.3666 241.434 36.5614 240.18 37.4604 238.838ZM40.1724 238.845C40.683 239.47 41.3057 240.063 42.0405 240.625C42.7912 241.186 43.598 241.708 44.461 242.19C45.3399 242.672 46.2349 243.098 47.1461 243.468C48.0733 243.838 48.9606 244.136 49.8081 244.362L49.7836 244.602C49.4795 244.649 49.2072 244.777 48.9667 244.984C48.7423 245.176 48.5897 245.447 48.5089 245.799C47.4219 245.365 46.3271 244.818 45.2246 244.16C44.1221 243.485 43.0998 242.723 42.1577 241.873C41.2156 241.007 40.4337 240.085 39.8118 239.108L40.1724 238.845ZM38.4219 270.457L47.3018 270.477L48.4331 269.039C48.4331 269.039 48.4969 269.095 48.6247 269.207C48.7684 269.32 48.9441 269.464 49.1517 269.641C49.3753 269.817 49.5989 270.01 49.8224 270.218C50.046 270.427 50.2535 270.619 50.4451 270.796C50.3966 271.051 50.1963 271.179 49.8443 271.178L38.6123 271.153L38.4219 270.457ZM42.5019 270.466L44.1339 270.469L44.133 270.853C43.4715 273.332 42.4663 275.626 41.1176 277.735C39.785 279.828 38.0849 281.656 36.0174 283.219L35.7061 282.883C36.8445 281.813 37.8552 280.615 38.7382 279.289C39.6212 277.947 40.3763 276.525 41.0037 275.022C41.631 273.52 42.1304 272.001 42.5019 270.466ZM43.0421 264.971L45.4656 265.216C45.4332 265.376 45.3529 265.52 45.2246 265.648C45.1123 265.776 44.8961 265.863 44.576 265.91L44.5307 286.238C44.5305 286.302 44.4663 286.382 44.3381 286.478C44.2099 286.59 44.0497 286.677 43.8575 286.741C43.6814 286.821 43.4973 286.86 43.3053 286.86L42.9933 286.859L43.0421 264.971ZM28.2698 270.458L35.4458 270.474L36.5289 269.084C36.5289 269.084 36.6327 269.181 36.8403 269.373C37.0639 269.55 37.3274 269.774 37.6308 270.047C37.9502 270.304 38.2297 270.552 38.4691 270.793C38.4205 271.049 38.2123 271.176 37.8443 271.175L28.4603 271.154L28.2698 270.458ZM32.5898 270.468L34.1978 270.471L34.197 270.855C33.696 273.078 32.9553 275.181 31.9749 277.162C31.0105 279.144 29.7825 280.925 28.2909 282.506L27.9556 282.193C28.726 281.123 29.4087 279.949 30.0035 278.67C30.5984 277.391 31.1133 276.056 31.5485 274.665C31.9836 273.258 32.3307 271.859 32.5898 270.468ZM32.6982 264.924L35.1217 265.169C35.0893 265.345 35.0089 265.489 34.8807 265.601C34.7684 265.713 34.5603 265.792 34.2562 265.839L34.2106 286.263C34.2104 286.327 34.1463 286.407 34.018 286.503C33.8898 286.599 33.7296 286.678 33.5375 286.742C33.3614 286.805 33.1773 286.837 32.9853 286.837L32.6493 286.836L32.6982 264.924ZM34.24 273.087C35.1192 273.441 35.8303 273.827 36.3734 274.244C36.9165 274.645 37.3156 275.046 37.5707 275.447C37.8419 275.831 37.9931 276.184 38.0244 276.504C38.0557 276.824 38.0071 277.088 37.8786 277.296C37.7662 277.487 37.5899 277.599 37.3499 277.63C37.1258 277.662 36.87 277.581 36.5824 277.389C36.4874 276.94 36.2884 276.468 35.9856 275.971C35.6987 275.475 35.3717 274.994 35.0048 274.529C34.6538 274.048 34.3028 273.632 33.9516 273.279L34.24 273.087ZM44.9014 270.687C45.2023 272.048 45.6393 273.393 46.2124 274.722C46.8014 276.035 47.4867 277.245 48.2683 278.351C49.0658 279.44 49.9278 280.338 50.8543 281.044L50.8057 281.284C50.4373 281.46 50.1488 281.699 49.9401 282.002C49.7314 282.306 49.5947 282.658 49.5298 283.058C48.6678 282.144 47.8943 281.038 47.2092 279.74C46.5401 278.443 45.9752 277.034 45.5146 275.513C45.054 273.992 44.6814 272.455 44.3969 270.902L44.9014 270.687ZM29.4469 312.973C30.167 312.958 31.1031 312.92 32.2552 312.859C33.4234 312.798 34.7275 312.721 36.1677 312.628C37.6079 312.535 39.1442 312.426 40.7765 312.302C42.4088 312.178 44.0731 312.045 45.7694 311.905L45.7924 312.337C44.0156 312.685 41.9188 313.057 39.5019 313.451C37.101 313.846 34.2601 314.264 30.9791 314.704C30.9148 314.832 30.8186 314.936 30.6904 315.016C30.5782 315.111 30.466 315.175 30.354 315.207L29.4469 312.973ZM41.3161 307.095C42.4985 307.802 43.4969 308.508 44.3114 309.214C45.1418 309.904 45.8124 310.569 46.3229 311.21C46.8335 311.852 47.2162 312.452 47.4709 313.013C47.7257 313.558 47.8686 314.038 47.8997 314.454C47.9468 314.87 47.906 315.198 47.7775 315.438C47.649 315.677 47.4647 315.805 47.2246 315.82C46.9846 315.852 46.7128 315.755 46.4093 315.531C46.2347 314.89 45.9482 314.21 45.5498 313.489C45.1675 312.752 44.7211 312.015 44.2108 311.278C43.7004 310.525 43.166 309.811 42.6075 309.138C42.0651 308.449 41.5305 307.832 41.0037 307.287L41.3161 307.095ZM41.9209 294.209C42.4777 295.618 43.2027 296.955 44.0959 298.221C44.9891 299.471 45.9706 300.594 47.0404 301.588C48.1262 302.566 49.2205 303.345 50.3232 303.923L50.2506 304.187C49.8985 304.234 49.5862 304.37 49.3137 304.593C49.0412 304.817 48.8405 305.12 48.7117 305.504C47.6734 304.749 46.6994 303.819 45.7899 302.713C44.8804 301.607 44.0592 300.349 43.3263 298.94C42.6094 297.53 42.0048 296.009 41.5125 294.376L41.9209 294.209ZM34.792 294.601L37.2619 295.542C37.1976 295.686 37.0933 295.798 36.9491 295.877C36.8049 295.957 36.5969 295.989 36.3249 295.972C35.408 298.178 34.2677 300.112 32.904 301.772C31.5563 303.417 30.0733 304.75 28.455 305.771L28.1676 305.506C29.0494 304.708 29.9075 303.75 30.742 302.632C31.5765 301.514 32.3393 300.275 33.0303 298.917C33.7374 297.542 34.3246 296.104 34.792 294.601ZM37.1757 301.878L39.7662 302.556C39.7339 302.7 39.6456 302.828 39.5014 302.939C39.3572 303.035 39.149 303.082 38.877 303.082C38.5228 304.073 38.0804 305.168 37.5497 306.367C37.019 307.566 36.4323 308.772 35.7896 309.987C35.163 311.186 34.5045 312.304 33.8141 313.343L33.2621 313.341C33.7766 312.238 34.2833 311.016 34.7823 309.673C35.2813 308.33 35.7403 306.987 36.1593 305.644C36.5784 304.285 36.9172 303.029 37.1757 301.878ZM34.6533 335.24L43.3172 335.26L43.3157 335.932L34.6518 335.912L34.6533 335.24ZM42.5798 332.33L42.3878 332.33L43.1575 331.539L44.7868 332.767C44.7227 332.831 44.6185 332.903 44.4743 332.982C44.3301 333.062 44.17 333.118 43.994 333.149L43.9872 336.173C43.9871 336.221 43.915 336.285 43.7708 336.365C43.6426 336.429 43.4825 336.492 43.2903 336.556C43.1142 336.619 42.9461 336.651 42.7861 336.651L42.5701 336.65L42.5798 332.33ZM34.0118 332.311L34.0134 331.591L35.5478 332.314L43.4198 332.332L43.4183 333.004L35.4263 332.986L35.4186 336.418C35.4186 336.45 35.3544 336.506 35.2263 336.586C35.1141 336.65 34.962 336.713 34.7698 336.777C34.5937 336.824 34.4097 336.848 34.2177 336.848L34.0017 336.847L34.0118 332.311ZM38.3228 325.577L40.4823 325.821C40.466 325.965 40.4017 326.085 40.2895 326.181C40.1773 326.261 40.0092 326.316 39.7851 326.348L39.7761 330.404L38.3121 330.401L38.3228 325.577ZM33.2302 327.653L42.4462 327.674L43.3848 326.5C43.3848 326.5 43.4806 326.58 43.6723 326.741C43.8799 326.901 44.1195 327.094 44.391 327.318C44.6625 327.543 44.91 327.759 45.1335 327.968C45.0689 328.224 44.8607 328.351 44.5087 328.35L33.4207 328.326L33.2302 327.653ZM32.0007 330.099L43.5447 330.124L44.5313 328.951C44.5313 328.951 44.6271 329.031 44.8188 329.191C45.0264 329.352 45.266 329.552 45.5374 329.793C45.8249 330.017 46.0804 330.242 46.3039 330.466C46.2394 330.722 46.0311 330.85 45.6791 330.849L32.1911 330.819L32.0007 330.099ZM38.0613 335.248L39.5973 335.252L39.5964 335.636C38.8098 336.818 37.7994 337.879 36.5653 338.821C35.3472 339.746 33.9934 340.535 32.504 341.188L32.2409 340.779C33.4745 340.078 34.5963 339.248 35.6065 338.291C36.6166 337.333 37.4349 336.319 38.0613 335.248ZM39.7412 335.252L39.7273 341.516C39.7271 341.58 39.6149 341.684 39.3906 341.827C39.1663 341.955 38.8701 342.018 38.5021 342.017L38.2861 342.017L38.3013 335.249L39.7412 335.252ZM30.2446 342.719L47.9085 342.758L47.907 343.454L30.243 343.415L30.2446 342.719ZM47.2296 324.373L46.9896 324.372L47.8799 323.342L49.7964 324.882C49.604 325.09 49.2516 325.249 48.7394 325.36L48.6976 344.08C48.6975 344.128 48.6253 344.192 48.4811 344.271C48.3529 344.367 48.1847 344.455 47.9766 344.534C47.7844 344.614 47.5923 344.653 47.4003 344.653L47.1843 344.652L47.2296 324.373ZM29.4696 324.333L29.4715 323.493L31.1256 324.337L47.9735 324.374L47.972 325.07L30.98 325.032L30.9371 344.256C30.937 344.32 30.8808 344.4 30.7686 344.496C30.6563 344.608 30.5041 344.695 30.312 344.759C30.1358 344.838 29.9277 344.878 29.6877 344.877L29.4237 344.877L29.4696 324.333ZM44.3004 335.646L45.6895 336.921C45.6254 337.001 45.5373 337.049 45.4252 337.065C45.3292 337.08 45.1693 337.048 44.9454 336.967C44.625 337.175 44.2084 337.438 43.6957 337.757C43.183 338.06 42.7264 338.322 42.3259 338.546L42.1105 338.281C42.4312 337.946 42.8002 337.515 43.2174 336.988C43.6506 336.461 44.0116 336.013 44.3004 335.646ZM39.7364 337.412C40.8399 337.638 41.8233 337.92 42.6865 338.258C43.5498 338.58 44.237 338.95 44.7481 339.367C45.0675 339.64 45.2749 339.912 45.3703 340.184C45.4817 340.441 45.4972 340.657 45.4168 340.833C45.3524 341.008 45.2242 341.112 45.0321 341.144C44.84 341.175 44.6003 341.079 44.3128 340.854C44.0415 340.501 43.6584 340.133 43.1632 339.747C42.6841 339.362 42.1409 339.001 41.5336 338.664C40.9424 338.311 40.3191 338.021 39.6636 337.796L39.7364 337.412Z" fill="black"/>
<line x1="0.5" y1="241" x2="0.500006" y2="383" stroke="black"/>
<line x1="130.5" y1="-2.18557e-08" x2="130.5" y2="142" stroke="black"/>
</svg>
