<svg width="131" height="383" viewBox="0 0 131 383" fill="none" xmlns="http://www.w3.org/2000/svg">
<path d="M83.618 56.2265L102.05 56.2676L103.229 54.7823C103.229 54.7823 103.301 54.8464 103.445 54.9747C103.589 55.0871 103.772 55.2315 103.996 55.408C104.219 55.5845 104.451 55.777 104.691 55.9855C104.946 56.1941 105.178 56.3946 105.385 56.5871C105.337 56.843 105.128 56.9705 104.76 56.9697L83.8085 56.9229L83.618 56.2265ZM98.402 56.2595L100.178 56.2634L100.177 56.6474C99.8377 58.1827 99.3946 59.5577 98.8479 60.7725C98.3172 61.9713 97.6269 63.0338 96.7768 63.9599C95.9428 64.87 94.917 65.6517 93.6995 66.305C92.4821 66.9423 91.0329 67.4671 89.352 67.8793C87.6711 68.2916 85.7024 68.6072 83.4459 68.8261L83.3509 68.3939C85.7997 67.9994 87.8969 67.4921 89.6423 66.872C91.3877 66.2359 92.8535 65.4471 94.0396 64.5058C95.2257 63.5484 96.1643 62.3985 96.8553 61.056C97.5463 59.6976 98.0619 58.0987 98.402 56.2595ZM89.0295 61.8306C91.3487 62.1878 93.3478 62.5922 95.0268 63.044C96.7059 63.4797 98.1048 63.9468 99.2237 64.4453C100.343 64.9278 101.238 65.4098 101.908 65.8913C102.579 66.3568 103.05 66.7979 103.322 67.2145C103.609 67.6311 103.744 67.9754 103.727 68.2474C103.727 68.5354 103.614 68.7351 103.39 68.8466C103.166 68.9581 102.886 68.9415 102.55 68.7968C101.864 68.0912 100.865 67.337 99.555 66.5341C98.2448 65.7312 96.6866 64.9517 94.8803 64.1956C93.09 63.4236 91.0994 62.7712 88.9086 62.2383L89.0295 61.8306ZM92.6038 51.8305L94.9308 52.2917C94.8825 52.4516 94.7942 52.5874 94.6659 52.6991C94.5377 52.7948 94.3136 52.8423 93.9936 52.8416C93.8005 53.3372 93.5511 53.9526 93.2455 54.688C92.9399 55.4073 92.5941 56.1985 92.2082 57.0617C91.8383 57.9088 91.4444 58.764 91.0264 59.627C90.6245 60.4901 90.2307 61.3213 89.8449 62.1204C89.4751 62.9196 89.1295 63.6228 88.8082 64.2301C88.6159 64.3257 88.3679 64.3651 88.0639 64.3484C87.7599 64.3317 87.4401 64.251 87.1044 64.1063C87.4417 63.531 87.8193 62.8439 88.237 62.0448C88.6549 61.2297 89.0808 60.3507 89.5149 59.4077C89.949 58.4646 90.3671 57.5216 90.7692 56.5784C91.1714 55.6353 91.5333 54.7561 91.8551 53.9409C92.177 53.1096 92.4266 52.4061 92.6038 51.8305ZM86.3671 50.3766L103.623 50.4151L103.621 51.1111L86.3655 51.0726L86.3671 50.3766ZM93.6949 46.865L96.1664 47.1105C96.15 47.2704 96.0697 47.4143 95.9254 47.5419C95.7972 47.6536 95.581 47.7252 95.2769 47.7565L95.2704 50.7085L93.6864 50.7049L93.6949 46.865ZM86.2261 49.0083L86.6341 49.0092C86.9201 49.9058 87.0384 50.6981 86.9888 51.386C86.9393 52.0579 86.7941 52.6176 86.5531 53.065C86.3121 53.5125 86.0313 53.8479 85.7108 54.0711C85.5185 54.2147 85.2943 54.3182 85.0381 54.3816C84.798 54.4291 84.582 54.4206 84.3902 54.3562C84.1983 54.2918 84.0466 54.1634 83.935 53.9712C83.8236 53.7149 83.8322 53.467 83.9607 53.2272C84.1052 52.9876 84.2977 52.796 84.538 52.6525C84.8584 52.4612 85.155 52.1899 85.4278 51.8385C85.7006 51.4711 85.9096 51.0476 86.0546 50.5679C86.2158 50.0723 86.2729 49.5524 86.2261 49.0083ZM102.855 50.4134L102.591 50.4128L103.649 49.3592L105.469 51.1632C105.341 51.307 105.037 51.3943 104.557 51.4252C104.348 51.6807 104.084 51.9762 103.763 52.3114C103.442 52.6467 103.105 52.974 102.753 53.2932C102.416 53.5964 102.095 53.8597 101.791 54.083L101.503 53.9144C101.664 53.5948 101.833 53.2191 102.01 52.7875C102.187 52.3559 102.356 51.9243 102.517 51.4927C102.678 51.061 102.79 50.7013 102.855 50.4134ZM87.7203 78.4917L87.7221 77.6997L89.4003 78.4954L100.728 78.5207L100.727 79.2407L89.2547 79.2151L89.2317 89.5351C89.2315 89.5991 89.1674 89.679 89.0391 89.7747C88.911 89.8544 88.7508 89.934 88.5586 90.0136C88.3665 90.0772 88.1584 90.1087 87.9344 90.1082L87.6944 90.1077L87.7203 78.4917ZM88.3542 84.8291L100.498 84.8562L100.497 85.5762L88.3526 85.5491L88.3542 84.8291ZM88.3613 81.6371L100.505 81.6642L100.504 82.3842L88.3597 82.3571L88.3613 81.6371ZM88.3469 88.0931L100.491 88.1202L100.489 88.7922L88.3454 88.7651L88.3469 88.0931ZM99.6723 78.5184L99.4323 78.5178L100.322 77.5358L102.263 79.0522C102.183 79.148 102.047 79.2357 101.855 79.3152C101.678 79.3949 101.47 79.4584 101.23 79.5059L101.208 89.5138C101.208 89.5778 101.127 89.6496 100.967 89.7293C100.823 89.809 100.647 89.8886 100.439 89.9681C100.247 90.0317 100.063 90.0633 99.8865 90.0629L99.6465 90.0623L99.6723 78.5184ZM93.4625 75.7205L96.1492 76.3265C96.1008 76.5024 95.9965 76.6382 95.8363 76.7338C95.6761 76.8134 95.468 76.845 95.2121 76.8284C95.0356 77.036 94.8271 77.2596 94.5866 77.499C94.362 77.7385 94.1295 77.978 93.889 78.2175C93.6644 78.457 93.4479 78.6725 93.2395 78.864L92.4715 78.8623C92.6324 78.4627 92.8015 77.959 92.9789 77.3514C93.1723 76.7279 93.3335 76.1842 93.4625 75.7205ZM92.6395 89.6147C93.567 89.8248 94.3265 90.0905 94.9177 90.4118C95.509 90.7331 95.9563 91.0781 96.2594 91.4468C96.5786 91.7995 96.7779 92.1359 96.8572 92.4561C96.9365 92.7763 96.9278 93.0563 96.8313 93.2961C96.7348 93.5199 96.5745 93.6635 96.3503 93.727C96.1262 93.7745 95.8784 93.7179 95.6067 93.5573C95.4797 93.1091 95.2407 92.6525 94.8898 92.1877C94.5548 91.707 94.1638 91.2661 93.7167 90.8651C93.2857 90.4481 92.8544 90.1032 92.423 89.8302L92.6395 89.6147ZM99.933 90.735C101.084 91.1056 102.019 91.5236 102.738 91.9892C103.473 92.4549 104.032 92.9281 104.415 93.409C104.798 93.8739 105.045 94.3144 105.156 94.7307C105.283 95.1469 105.29 95.499 105.178 95.7867C105.065 96.0745 104.889 96.2501 104.649 96.3135C104.408 96.393 104.121 96.3283 103.785 96.1196C103.642 95.5113 103.348 94.8866 102.901 94.2456C102.455 93.6046 101.944 92.9955 101.369 92.4182C100.811 91.8409 100.252 91.3517 99.6926 90.9504L99.933 90.735ZM89.5899 90.3279L91.8213 90.5969C91.7886 90.9168 91.5642 91.1083 91.148 91.1714L91.1384 95.4914C91.138 95.6674 91.2017 95.7875 91.3296 95.8518C91.4575 95.9001 91.7854 95.9248 92.3134 95.926L95.3854 95.9328C96.0734 95.9344 96.6654 95.9357 97.1614 95.9368C97.6734 95.922 98.0255 95.9067 98.2175 95.8912C98.3936 95.8756 98.5136 95.8518 98.5777 95.82C98.6578 95.7722 98.722 95.6923 98.7702 95.5804C98.8666 95.4046 98.9714 95.0688 99.0845 94.5731C99.2136 94.0614 99.3509 93.4937 99.4963 92.87L99.8083 92.8707L99.8499 95.7028C100.122 95.7834 100.306 95.8718 100.401 95.968C100.513 96.0643 100.569 96.1844 100.569 96.3284C100.568 96.5204 100.496 96.6803 100.351 96.8079C100.223 96.9356 99.975 97.0391 99.6068 97.1183C99.2386 97.1975 98.7105 97.2523 98.0224 97.2827C97.3343 97.3292 96.4383 97.3512 95.3343 97.3487L92.0943 97.3415C91.3903 97.3399 90.8544 97.2907 90.4866 97.1939C90.1348 97.1131 89.8951 96.9526 89.7677 96.7123C89.6402 96.488 89.5769 96.1759 89.5778 95.7759L89.5899 90.3279ZM86.9486 90.922L87.3565 90.9469C87.4985 91.8592 87.4647 92.6672 87.2551 93.3707C87.0455 94.0742 86.7642 94.6656 86.4112 95.1448C86.0581 95.608 85.7054 95.9512 85.3529 96.1745C85.0484 96.3818 84.7121 96.493 84.3441 96.5082C83.976 96.5394 83.7123 96.4268 83.5529 96.1704C83.4574 95.9302 83.4739 95.6983 83.6024 95.4745C83.7309 95.2508 83.9153 95.0672 84.1556 94.9238C84.5401 94.7166 84.9248 94.4215 85.3096 94.0384C85.6945 93.6552 86.0395 93.192 86.3447 92.6487C86.6499 92.1053 86.8512 91.5298 86.9486 90.922ZM97.465 110.466L97.6818 110.082C98.0017 110.131 98.3136 110.187 98.6175 110.252C98.9213 110.317 99.1771 110.405 99.3849 110.518C99.6725 110.678 99.9281 110.887 100.151 111.144C100.375 111.384 100.542 111.624 100.654 111.865C100.781 112.089 100.845 112.289 100.845 112.465C100.844 112.689 100.708 112.873 100.435 113.016C100.163 113.144 99.7867 113.295 99.3063 113.47C98.8099 113.645 98.2014 113.883 97.4807 114.186C96.776 114.488 96.0633 114.814 95.3425 115.165C94.6377 115.515 94.0049 115.858 93.4442 116.193C92.9796 116.464 92.4749 116.79 91.93 117.173C91.4011 117.556 90.9042 117.979 90.4392 118.442C89.9901 118.905 89.613 119.4 89.3079 119.927C89.0187 120.439 88.8735 120.974 88.8723 121.534C88.8712 121.998 89.0383 122.423 89.3734 122.807C89.7086 123.192 90.2439 123.505 90.9793 123.747C91.7148 123.973 92.7066 124.087 93.9546 124.09C95.1066 124.092 96.0747 124.038 96.8589 123.928C97.6432 123.818 98.2754 123.707 98.7557 123.596C99.2519 123.486 99.6201 123.43 99.8601 123.431C100.132 123.432 100.388 123.464 100.628 123.529C100.884 123.577 101.084 123.674 101.227 123.818C101.371 123.946 101.443 124.13 101.442 124.37C101.442 124.53 101.361 124.682 101.201 124.826C101.041 124.954 100.832 125.049 100.576 125.113C100.288 125.192 99.872 125.271 99.3278 125.35C98.7836 125.445 98.1034 125.523 97.2872 125.585C96.4871 125.647 95.543 125.677 94.455 125.675C93.063 125.672 91.8634 125.517 90.8561 125.211C89.8647 124.921 89.0977 124.487 88.555 123.91C88.0122 123.332 87.7418 122.628 87.7437 121.796C87.7454 121.044 87.9229 120.332 88.2764 119.661C88.646 118.974 89.0954 118.351 89.6246 117.792C90.1699 117.217 90.715 116.722 91.2599 116.308C91.8049 115.893 92.2456 115.566 92.5821 115.327C93.0148 115.04 93.5114 114.745 94.0721 114.442C94.6328 114.123 95.1935 113.82 95.7541 113.534C96.3148 113.231 96.8274 112.96 97.292 112.721C97.7565 112.466 98.117 112.275 98.3732 112.148C98.5815 112.052 98.7017 111.956 98.7339 111.86C98.7821 111.764 98.7664 111.636 98.6867 111.476C98.5912 111.252 98.4237 111.06 98.184 110.899C97.9604 110.739 97.7207 110.594 97.465 110.466ZM87.6568 106.964C87.977 106.868 88.2491 106.805 88.4732 106.773C88.7133 106.742 88.9533 106.727 89.1933 106.727C89.5613 106.728 89.9211 106.801 90.2728 106.945C90.6405 107.09 90.9441 107.267 91.1836 107.475C91.4392 107.668 91.5668 107.86 91.5664 108.052C91.5659 108.26 91.5335 108.452 91.4691 108.628C91.4047 108.788 91.3802 109.012 91.3956 109.3C91.4109 109.604 91.4341 109.98 91.4651 110.428C91.5121 110.86 91.5751 111.308 91.6541 111.773C91.7331 112.221 91.8202 112.613 91.9154 112.949C92.0584 113.413 92.2574 113.838 92.5126 114.222C92.7678 114.591 93.1111 114.896 93.5426 115.137L92.4369 115.854C91.9895 115.613 91.6302 115.285 91.3591 114.868C91.0881 114.451 90.873 114.027 90.714 113.594C90.5709 113.178 90.428 112.69 90.2853 112.13C90.1585 111.569 90.0478 110.985 89.9532 110.377C89.8586 109.753 89.7639 109.152 89.6692 108.576C89.6537 108.368 89.598 108.208 89.5023 108.096C89.4065 107.968 89.2388 107.863 88.999 107.783C88.8071 107.702 88.5833 107.638 88.3274 107.589C88.0715 107.541 87.8556 107.5 87.6797 107.468L87.6568 106.964ZM83.4238 143.226L101.856 143.267L103.035 141.782C103.035 141.782 103.107 141.846 103.251 141.975C103.394 142.087 103.578 142.231 103.802 142.408C104.025 142.584 104.257 142.777 104.496 142.985C104.752 143.194 104.984 143.394 105.191 143.587C105.143 143.843 104.934 143.97 104.566 143.969L83.6143 143.923L83.4238 143.226ZM98.2078 143.259L99.9838 143.263L99.9829 143.647C99.6435 145.182 99.2004 146.557 98.6537 147.772C98.123 148.971 97.4327 150.034 96.5826 150.96C95.7486 151.87 94.7228 152.652 93.5054 153.305C92.2879 153.942 90.8388 154.467 89.1578 154.879C87.4769 155.291 85.5082 155.607 83.2517 155.826L83.1567 155.394C85.6056 154.999 87.7027 154.492 89.4481 153.872C91.1935 153.236 92.6593 152.447 93.8454 151.506C95.0315 150.548 95.9701 149.398 96.6611 148.056C97.3521 146.697 97.8677 145.099 98.2078 143.259ZM88.8353 148.83C91.1545 149.188 93.1536 149.592 94.8326 150.044C96.5117 150.479 97.9106 150.947 99.0295 151.445C100.148 151.928 101.043 152.41 101.714 152.891C102.385 153.357 102.856 153.798 103.127 154.214C103.414 154.631 103.55 154.975 103.533 155.247C103.532 155.535 103.42 155.735 103.196 155.846C102.971 155.958 102.692 155.941 102.356 155.797C101.669 155.091 100.671 154.337 99.3609 153.534C98.0507 152.731 96.4924 151.951 94.6861 151.195C92.8958 150.423 90.9052 149.771 88.7144 149.238L88.8353 148.83ZM92.4097 138.83L94.7366 139.292C94.6883 139.451 94.6 139.587 94.4717 139.699C94.3435 139.795 94.1194 139.842 93.7994 139.841C93.6063 140.337 93.3569 140.952 93.0513 141.688C92.7457 142.407 92.3999 143.198 92.014 144.061C91.6441 144.909 91.2502 145.764 90.8323 146.627C90.4303 147.49 90.0365 148.321 89.6507 149.12C89.2809 149.919 88.9353 150.623 88.614 151.23C88.4218 151.325 88.1737 151.365 87.8697 151.348C87.5658 151.332 87.2459 151.251 86.9103 151.106C87.2475 150.531 87.6251 149.844 88.0429 149.045C88.4607 148.23 88.8866 147.35 89.3207 146.407C89.7549 145.464 90.173 144.521 90.5751 143.578C90.9772 142.635 91.3391 141.756 91.661 140.941C91.9828 140.109 92.2324 139.406 92.4097 138.83ZM86.1729 137.376L103.429 137.415L103.427 138.111L86.1713 138.072L86.1729 137.376ZM93.5008 133.865L95.9722 134.11C95.9559 134.27 95.8755 134.414 95.7312 134.542C95.603 134.653 95.3868 134.725 95.0828 134.756L95.0762 137.708L93.4922 137.705L93.5008 133.865ZM86.032 136.008L86.4399 136.009C86.7259 136.906 86.8442 137.698 86.7946 138.386C86.7451 139.058 86.5999 139.617 86.3589 140.065C86.1179 140.512 85.8371 140.848 85.5166 141.071C85.3243 141.215 85.1001 141.318 84.844 141.381C84.6038 141.429 84.3879 141.42 84.196 141.356C84.0042 141.292 83.8524 141.163 83.7409 140.971C83.6294 140.715 83.638 140.467 83.7665 140.227C83.9111 139.987 84.1035 139.796 84.3438 139.652C84.6642 139.461 84.9608 139.19 85.2336 138.838C85.5065 138.471 85.7154 138.047 85.8605 137.568C86.0216 137.072 86.0787 136.552 86.032 136.008ZM102.661 137.413L102.397 137.413L103.455 136.359L105.275 138.163C105.147 138.307 104.843 138.394 104.363 138.425C104.154 138.681 103.889 138.976 103.569 139.311C103.248 139.647 102.911 139.974 102.558 140.293C102.222 140.596 101.901 140.86 101.597 141.083L101.309 140.914C101.47 140.595 101.639 140.219 101.816 139.787C101.993 139.356 102.161 138.924 102.322 138.492C102.483 138.061 102.596 137.701 102.661 137.413ZM85.9068 170.576L99.2988 170.606L100.43 169.288C100.43 169.288 100.502 169.344 100.645 169.457C100.789 169.553 100.965 169.681 101.172 169.842C101.396 170.002 101.628 170.187 101.867 170.395C102.107 170.588 102.33 170.773 102.538 170.949C102.506 171.061 102.434 171.149 102.321 171.213C102.209 171.276 102.073 171.308 101.913 171.308L86.0972 171.272L85.9068 170.576ZM93.4188 170.593L95.0028 170.596L94.9747 183.172L93.3917 182.737L93.4188 170.593ZM94.2228 175.946L99.3108 175.958L100.442 174.544C100.442 174.544 100.506 174.6 100.634 174.713C100.777 174.809 100.953 174.953 101.161 175.146C101.384 175.322 101.616 175.515 101.855 175.723C102.111 175.916 102.335 176.101 102.526 176.277C102.462 176.533 102.245 176.66 101.877 176.66L94.2213 176.642L94.2228 175.946ZM88.4841 177.182C88.9454 178.383 89.4952 179.36 90.1335 180.113C90.7719 180.851 91.5226 181.42 92.3857 181.822C93.2488 182.224 94.2482 182.499 95.3839 182.645C96.5196 182.776 97.8074 182.842 99.2474 182.846C99.5994 182.846 100.039 182.847 100.567 182.849C101.095 182.85 101.655 182.851 102.247 182.852C102.839 182.854 103.407 182.855 103.951 182.856C104.511 182.841 104.984 182.826 105.368 182.811L105.367 183.171C105.063 183.219 104.83 183.354 104.67 183.578C104.509 183.817 104.413 184.105 104.38 184.441C104.092 184.44 103.716 184.44 103.252 184.439C102.804 184.438 102.316 184.437 101.788 184.435C101.276 184.434 100.788 184.433 100.324 184.432C99.8599 184.431 99.4599 184.43 99.1239 184.429C97.6199 184.426 96.2841 184.327 95.1166 184.132C93.965 183.938 92.9498 183.584 92.0709 183.07C91.208 182.572 90.4496 181.858 89.7957 180.929C89.1578 179.999 88.6004 178.806 88.1237 177.349L88.4841 177.182ZM88.1795 173.869L90.6503 174.402C90.6019 174.562 90.5056 174.69 90.3614 174.786C90.2172 174.866 90.0171 174.913 89.7611 174.928C89.5024 176.144 89.1156 177.367 88.6009 178.598C88.0861 179.829 87.3956 180.987 86.5291 182.073C85.6627 183.159 84.5646 184.093 83.2349 184.874L82.9955 184.609C84.0854 183.748 84.9757 182.718 85.6664 181.519C86.373 180.321 86.9278 179.066 87.3308 177.755C87.7337 176.428 88.0166 175.133 88.1795 173.869ZM86.1083 166.328L103.364 166.367L103.363 167.039L86.1068 167L86.1083 166.328ZM93.4361 162.817L95.9075 163.086C95.8912 163.246 95.8109 163.382 95.6666 163.494C95.5384 163.605 95.3222 163.677 95.0181 163.708L95.0116 166.66L93.4276 166.657L93.4361 162.817ZM85.9912 165.008L86.3993 164.985C86.6851 165.946 86.7873 166.778 86.7057 167.482C86.6401 168.186 86.4708 168.769 86.1978 169.233C85.9248 169.696 85.62 170.047 85.2834 170.286C85.0911 170.43 84.8749 170.534 84.6347 170.597C84.3946 170.645 84.1707 170.636 83.9628 170.572C83.7709 170.507 83.6192 170.387 83.5076 170.211C83.3962 169.954 83.4047 169.706 83.5333 169.467C83.6778 169.227 83.8702 169.035 84.1106 168.892C84.463 168.701 84.7836 168.413 85.0725 168.03C85.3774 167.631 85.6184 167.175 85.7955 166.664C85.9727 166.152 86.0379 165.6 85.9912 165.008ZM102.596 166.365L102.332 166.365L103.391 165.311L105.235 167.091C105.138 167.187 105.018 167.251 104.874 167.282C104.73 167.298 104.538 167.321 104.298 167.353C103.977 167.752 103.544 168.207 102.999 168.718C102.47 169.229 101.973 169.652 101.508 169.987L101.197 169.794C101.357 169.49 101.526 169.131 101.703 168.715C101.896 168.284 102.073 167.86 102.234 167.444C102.395 167.013 102.516 166.653 102.596 166.365ZM93.7942 195.946C94.0016 196.218 94.2009 196.506 94.3923 196.811C94.5836 197.115 94.7349 197.428 94.8462 197.748C94.9575 198.068 95.0127 198.404 95.0119 198.756C95.0107 199.316 94.9453 199.932 94.8158 200.604C94.6863 201.26 94.5008 201.931 94.2593 202.619C94.05 203.194 93.7766 203.826 93.4391 204.513C93.1176 205.184 92.7401 205.855 92.3066 206.526C91.8891 207.181 91.4398 207.788 90.9585 208.347C90.4773 208.89 89.9803 209.329 89.4676 209.664C88.9708 209.983 88.4825 210.142 88.0025 210.141C87.6025 210.14 87.2028 209.995 86.8035 209.706C86.4201 209.417 86.069 209.016 85.7501 208.504C85.4473 207.991 85.2006 207.406 85.0101 206.75C84.8196 206.078 84.7251 205.373 84.7268 204.637C84.7286 203.821 84.8504 203.014 85.0922 202.214C85.35 201.415 85.7197 200.648 86.2013 199.913C86.683 199.178 87.2605 198.507 87.9338 197.9C88.9278 197.023 90.0252 196.377 91.2261 195.964C92.4271 195.55 93.6675 195.345 94.9475 195.348C96.1955 195.351 97.3471 195.545 98.4022 195.932C99.4574 196.318 100.376 196.872 101.159 197.594C101.957 198.316 102.579 199.181 103.025 200.19C103.47 201.199 103.692 202.328 103.689 203.576C103.687 204.568 103.509 205.551 103.155 206.526C102.8 207.486 102.222 208.364 101.421 209.163C100.635 209.961 99.5774 210.63 98.2482 211.172C96.919 211.697 95.2783 212.013 93.3261 212.121L93.2313 211.568C95.1841 211.221 96.8013 210.672 98.083 209.923C99.3807 209.158 100.351 208.208 100.993 207.074C101.636 205.923 101.959 204.628 101.962 203.188C101.965 201.748 101.648 200.507 101.01 199.466C100.389 198.424 99.5345 197.614 98.4478 197.036C97.3771 196.458 96.1777 196.167 94.8497 196.164C93.7137 196.161 92.5852 196.383 91.4642 196.828C90.3593 197.258 89.3898 197.888 88.556 198.718C87.8024 199.452 87.2005 200.299 86.7503 201.258C86.3002 202.201 86.074 203.2 86.0716 204.256C86.0699 205.008 86.1644 205.697 86.355 206.321C86.5617 206.929 86.8166 207.418 87.1197 207.787C87.439 208.139 87.7666 208.316 88.1026 208.317C88.5026 208.318 88.927 208.111 89.376 207.696C89.8409 207.281 90.29 206.762 90.7234 206.139C91.1729 205.5 91.5823 204.837 91.9519 204.149C92.3374 203.462 92.6508 202.831 92.8921 202.256C93.1334 201.68 93.3348 201.057 93.4963 200.385C93.6738 199.713 93.7631 199.105 93.7644 198.561C93.7654 198.081 93.6864 197.657 93.5272 197.289C93.3841 196.905 93.1929 196.512 92.9538 196.112L93.7942 195.946ZM84.1339 222.932L84.1356 222.164L85.7419 222.936L93.2779 222.952L93.2763 223.672L85.6203 223.655L85.5844 239.759C85.5842 239.823 85.5281 239.903 85.4158 239.999C85.3037 240.079 85.1515 240.15 84.9594 240.214C84.7832 240.278 84.5912 240.309 84.3832 240.309L84.0952 240.308L84.1339 222.932ZM92.4859 222.951L92.2459 222.95L93.1121 221.968L94.9807 223.484C94.9165 223.58 94.7883 223.676 94.5961 223.771C94.4039 223.851 94.1958 223.915 93.9717 223.962L93.938 239.058C93.9379 239.106 93.8657 239.178 93.7215 239.273C93.5773 239.369 93.4091 239.449 93.217 239.512C93.0248 239.576 92.8407 239.608 92.6647 239.607L92.4487 239.607L92.4859 222.951ZM88.2379 222.941L89.6779 222.944L89.6456 237.416L88.2056 237.413L88.2379 222.941ZM84.8383 229.918L93.1183 229.936L93.1167 230.656L84.8367 230.638L84.8383 229.918ZM84.8223 237.094L93.0063 237.112L93.0048 237.808L84.8208 237.79L84.8223 237.094ZM99.8286 223.543L101.365 223.547L101.327 240.37C101.326 240.786 101.269 241.162 101.157 241.498C101.044 241.85 100.795 242.129 100.411 242.336C100.042 242.56 99.4738 242.718 98.7056 242.813C98.6742 242.557 98.6187 242.324 98.5392 242.116C98.4596 241.908 98.332 241.748 98.1562 241.635C97.9485 241.491 97.6688 241.362 97.3171 241.25C96.9813 241.153 96.5095 241.064 95.9017 240.982L95.9025 240.622C95.9025 240.622 96.0384 240.639 96.3104 240.671C96.5983 240.688 96.9343 240.713 97.3182 240.746C97.7182 240.762 98.0861 240.787 98.422 240.82C98.774 240.837 99.022 240.845 99.166 240.846C99.406 240.846 99.5661 240.807 99.6463 240.727C99.7425 240.631 99.7908 240.487 99.7912 240.295L99.8286 223.543ZM95.0291 223.34L102.229 223.356L103.408 221.871C103.408 221.871 103.48 221.927 103.624 222.04C103.768 222.152 103.951 222.304 104.175 222.497C104.399 222.673 104.63 222.874 104.87 223.098C105.109 223.307 105.333 223.507 105.54 223.7C105.508 223.828 105.436 223.924 105.324 223.987C105.211 224.051 105.075 224.083 104.915 224.082L95.2194 224.061L95.0291 223.34Z" fill="black"/>
<path d="M36.9799 224.497L48.5478 224.523L49.6791 223.062C49.6791 223.062 49.743 223.118 49.8707 223.23C50.0145 223.342 50.1981 223.487 50.4217 223.663C50.6454 223.84 50.8769 224.032 51.1165 224.241C51.356 224.449 51.5795 224.65 51.7871 224.842C51.7225 225.098 51.5063 225.226 51.1383 225.225L37.1703 225.194L36.9799 224.497ZM35.5983 241.318L49.3743 241.349L50.5056 239.864C50.5056 239.864 50.5774 239.928 50.7212 240.056C50.8649 240.168 51.0486 240.321 51.2721 240.513C51.4957 240.69 51.7273 240.882 51.9669 241.091C52.2224 241.299 52.4539 241.5 52.6615 241.692C52.5969 241.948 52.3887 242.076 52.0367 242.075L35.7887 242.039L35.5983 241.318ZM43.0518 224.535L44.7318 224.539L44.6928 241.987L43.0128 241.983L43.0518 224.535ZM32.0408 222.278C32.9525 222.424 33.696 222.634 34.2714 222.907C34.8468 223.165 35.2862 223.454 35.5895 223.774C35.8928 224.079 36.0761 224.383 36.1394 224.688C36.2187 224.992 36.2022 225.256 36.0897 225.479C35.9932 225.687 35.8249 225.823 35.5848 225.886C35.3446 225.95 35.0807 225.901 34.7931 225.741C34.6499 225.356 34.4108 224.964 34.0757 224.563C33.7566 224.146 33.3975 223.761 32.9983 223.409C32.5991 223.056 32.2077 222.759 31.8243 222.518L32.0408 222.278ZM30.1092 227.482C30.973 227.564 31.6766 227.726 32.2201 227.967C32.7636 228.192 33.171 228.457 33.4423 228.762C33.7297 229.05 33.905 229.339 33.9684 229.627C34.0318 229.915 34.0072 230.163 33.8947 230.371C33.7983 230.562 33.63 230.69 33.3899 230.753C33.1657 230.817 32.9098 230.776 32.6222 230.632C32.479 230.263 32.2558 229.903 31.9526 229.55C31.6654 229.182 31.3382 228.837 30.9709 228.516C30.6036 228.179 30.2442 227.906 29.8927 227.698L30.1092 227.482ZM31.5998 237.061C31.7438 237.062 31.8478 237.046 31.9119 237.014C31.992 236.966 32.0963 236.823 32.2249 236.583C32.3213 236.407 32.4176 236.239 32.514 236.079C32.6103 235.92 32.7469 235.664 32.9237 235.312C33.1005 234.961 33.3657 234.441 33.7192 233.754C34.0727 233.067 34.5468 232.132 35.1414 230.949C35.7521 229.751 36.5396 228.208 37.5038 226.323L37.9355 226.468C37.6941 227.059 37.4126 227.73 37.091 228.482C36.7853 229.217 36.4636 229.976 36.1259 230.76C35.8041 231.543 35.4984 232.294 35.2088 233.013C34.9193 233.717 34.6619 234.332 34.4367 234.86C34.2275 235.387 34.0827 235.771 34.0021 236.011C33.8734 236.362 33.7686 236.714 33.6878 237.066C33.623 237.418 33.5903 237.746 33.5896 238.05C33.589 238.306 33.6204 238.578 33.6838 238.866C33.7631 239.154 33.8425 239.458 33.9217 239.779C34.0011 240.083 34.0723 240.435 34.1354 240.835C34.1985 241.219 34.2216 241.651 34.2045 242.131C34.1873 242.659 34.0584 243.067 33.8178 243.354C33.5771 243.658 33.2487 243.809 32.8327 243.808C32.6087 243.808 32.425 243.695 32.2815 243.471C32.154 243.263 32.0746 242.974 32.0434 242.606C32.1573 241.775 32.2149 241.031 32.2164 240.375C32.2339 239.703 32.1951 239.159 32.1 238.743C32.021 238.31 31.8856 238.038 31.6939 237.926C31.5341 237.813 31.3583 237.733 31.1664 237.684C30.9745 237.636 30.7426 237.604 30.4706 237.587L30.4718 237.059C30.4718 237.059 30.5438 237.059 30.6878 237.059C30.8478 237.06 31.0158 237.06 31.1918 237.061C31.3838 237.061 31.5198 237.061 31.5998 237.061ZM32.6453 252.528L40.3973 252.545L40.3957 253.241L32.6437 253.224L32.6453 252.528ZM34.807 262.493L40.639 262.506L40.6374 263.226L34.8054 263.213L34.807 262.493ZM32.6318 258.576L40.4798 258.593L40.4782 259.289L32.6302 259.272L32.6318 258.576ZM31.6613 252.526L31.663 251.758L33.4373 252.53L33.1493 252.529L33.1325 260.065C33.1324 260.113 33.0762 260.185 32.964 260.281C32.8678 260.36 32.7236 260.44 32.5314 260.52C32.3553 260.583 32.1392 260.615 31.8832 260.614L31.6432 260.614L31.6613 252.526ZM39.9413 252.544L39.7253 252.544L40.5433 251.633L42.4121 253.054C42.348 253.133 42.2278 253.221 42.0515 253.317C41.8754 253.396 41.6752 253.452 41.4512 253.483L41.4372 259.747C41.4371 259.795 41.3569 259.859 41.1968 259.939C41.0526 260.003 40.8845 260.066 40.6923 260.13C40.5002 260.193 40.3161 260.225 40.1401 260.225L39.9241 260.224L39.9413 252.544ZM40.063 262.504L39.799 262.504L40.6891 261.57L42.4618 263.062C42.3014 263.237 41.9891 263.357 41.525 263.42C41.4573 265.051 41.3422 266.459 41.1796 267.643C41.033 268.811 40.8388 269.762 40.5972 270.498C40.3556 271.217 40.0745 271.72 39.7538 272.008C39.4652 272.279 39.1128 272.478 38.6965 272.605C38.2962 272.732 37.8641 272.795 37.4001 272.794C37.4006 272.57 37.377 272.362 37.3295 272.17C37.2819 271.978 37.1782 271.826 37.0185 271.714C36.8588 271.585 36.595 271.473 36.2272 271.376C35.8594 271.279 35.4756 271.198 35.0758 271.133L35.1007 270.701C35.3887 270.734 35.7166 270.775 36.0845 270.824C36.4684 270.856 36.8283 270.881 37.1643 270.898C37.5003 270.915 37.7482 270.923 37.9082 270.924C38.2762 270.924 38.5564 270.845 38.7488 270.685C39.0694 270.398 39.3353 269.551 39.5464 268.143C39.7736 266.736 39.9458 264.856 40.063 262.504ZM34.5995 258.724L36.1355 258.728C36.0684 260.103 35.9694 261.447 35.8385 262.759C35.7076 264.055 35.4488 265.31 35.062 266.525C34.6914 267.724 34.1128 268.859 33.3264 269.929C32.5401 270.984 31.4739 271.957 30.1279 272.85L29.8167 272.514C30.9069 271.508 31.7653 270.462 32.3917 269.375C33.0181 268.273 33.4847 267.138 33.7913 265.97C34.0979 264.787 34.3006 263.588 34.3993 262.372C34.514 261.156 34.5807 259.94 34.5995 258.724ZM44.5722 253.01L46.9716 253.28C46.9393 253.44 46.859 253.584 46.7307 253.711C46.6024 253.823 46.3863 253.894 46.0822 253.926L46.0519 267.486C46.0518 267.55 45.9876 267.63 45.8594 267.725C45.7472 267.805 45.5951 267.877 45.4029 267.94C45.2268 268.004 45.0347 268.035 44.8267 268.035L44.5387 268.034L44.5722 253.01ZM49.3759 251.365L51.8233 251.659C51.8069 251.819 51.7266 251.962 51.5823 252.09C51.4541 252.202 51.2379 252.273 50.9338 252.305L50.8932 270.521C50.8922 270.953 50.8354 271.328 50.7227 271.648C50.6259 271.984 50.3933 272.255 50.0248 272.463C49.6564 272.67 49.088 272.813 48.3199 272.891C48.2724 272.635 48.209 272.403 48.1294 272.194C48.0499 272.002 47.9222 271.834 47.7466 271.69C47.5549 271.545 47.2911 271.425 46.9554 271.328C46.6196 271.231 46.1638 271.15 45.5879 271.085L45.5888 270.701C45.5888 270.701 45.7247 270.717 45.9966 270.75C46.2686 270.766 46.5886 270.791 46.9565 270.824C47.3404 270.841 47.7004 270.865 48.0363 270.898C48.3723 270.915 48.6043 270.923 48.7323 270.924C48.9723 270.924 49.1324 270.885 49.2125 270.805C49.2927 270.709 49.3331 270.565 49.3335 270.373L49.3759 251.365ZM30.1043 283.442L48.5122 283.483L49.7397 281.95C49.7397 281.95 49.8115 282.014 49.9552 282.142C50.115 282.255 50.3146 282.407 50.5542 282.6C50.7938 282.776 51.0414 282.977 51.2969 283.201C51.5524 283.41 51.792 283.611 52.0155 283.803C51.951 284.059 51.7267 284.186 51.3427 284.186L30.3187 284.139L30.1043 283.442ZM40.207 284.017L42.6064 284.286C42.5741 284.446 42.5018 284.582 42.3895 284.694C42.2773 284.789 42.0852 284.853 41.8131 284.884L41.777 301.06C41.7768 301.124 41.7046 301.212 41.5604 301.324C41.4321 301.436 41.2639 301.531 41.0558 301.611C40.8636 301.69 40.6715 301.73 40.4795 301.729L40.1675 301.729L40.207 284.017ZM40.2162 279.889L42.7117 280.134C42.6953 280.294 42.615 280.438 42.4707 280.566C42.3265 280.677 42.1103 280.749 41.8222 280.78L41.8153 283.876L40.2073 283.873L40.2162 279.889ZM47.4707 287.753L47.2307 287.752L48.0489 286.77L50.0855 288.287C50.0213 288.367 49.8931 288.454 49.7009 288.55C49.5087 288.646 49.2925 288.717 49.0524 288.764L49.0342 296.924C49.0333 297.324 48.9765 297.684 48.8638 298.004C48.7511 298.308 48.5026 298.555 48.1182 298.746C47.7497 298.938 47.1735 299.064 46.3893 299.127C46.3578 298.903 46.2943 298.694 46.1987 298.502C46.1191 298.31 45.9995 298.158 45.8397 298.045C45.648 297.917 45.3763 297.796 45.0245 297.684C44.6888 297.571 44.233 297.49 43.6571 297.44L43.6579 297.056C43.6579 297.056 43.7939 297.065 44.0659 297.081C44.3378 297.098 44.6578 297.123 45.0257 297.156C45.4096 297.188 45.7696 297.213 46.1055 297.23C46.4575 297.247 46.7055 297.255 46.8495 297.256C47.0895 297.256 47.2496 297.216 47.3298 297.137C47.41 297.041 47.4503 296.913 47.4506 296.753L47.4707 287.753ZM33.0227 287.721L33.0245 286.929L34.7507 287.725L48.3587 287.755L48.3571 288.451L34.6052 288.42L34.5823 298.668C34.5822 298.716 34.518 298.788 34.3898 298.884C34.2616 298.964 34.1015 299.035 33.9093 299.099C33.7172 299.162 33.5011 299.194 33.2611 299.193L32.9971 299.193L33.0227 287.721Z" fill="black"/>
<line x1="0.5" y1="241" x2="0.500006" y2="383" stroke="black"/>
<line x1="130.5" y1="-2.18557e-08" x2="130.5" y2="142" stroke="black"/>
</svg>
