<svg width="181" height="519" viewBox="0 0 181 519" fill="none" xmlns="http://www.w3.org/2000/svg">
<path d="M129.191 65.47L129.504 65.1827C129.743 65.2632 129.967 65.3677 130.175 65.4962C130.399 65.6087 130.614 65.7532 130.822 65.9296C130.966 66.0579 131.133 66.2423 131.325 66.4827C131.516 66.7072 131.684 66.9475 131.827 67.2039C131.986 67.4602 132.066 67.7004 132.065 67.9244C132.065 68.2284 131.992 68.5562 131.847 68.9079C131.718 69.2436 131.598 69.5394 131.485 69.7951C131.308 70.2587 131.131 70.7303 130.954 71.2099C130.793 71.6896 130.656 72.1533 130.543 72.601C130.43 73.0328 130.373 73.4406 130.372 73.8246C130.371 74.2086 130.411 74.5927 130.49 74.9769C130.569 75.3611 130.68 75.6653 130.824 75.8897C131.451 74.483 132.198 73.2207 133.064 72.1026C133.931 70.9846 134.941 70.0108 136.095 69.1814C136.527 68.8624 137.048 68.5675 137.657 68.2969C138.265 68.0262 138.938 67.8117 139.674 67.6534C140.426 67.4791 141.227 67.3928 142.075 67.3947C142.987 67.3968 143.818 67.5426 144.57 67.8323C145.337 68.122 146 68.5395 146.559 69.0848C147.118 69.63 147.548 70.279 147.85 71.0316C148.169 71.7684 148.327 72.5847 148.325 73.4807C148.322 74.7927 148.032 75.9361 147.453 76.9108C146.875 77.8855 146.058 78.6437 145 79.1853C143.959 79.727 142.702 79.9962 141.23 79.9929C139.966 79.9901 138.871 79.6996 137.944 79.1216C137.018 78.5435 136.308 77.7099 135.814 76.6208C135.32 75.5317 135.075 74.2271 135.079 72.7071C135.081 71.7311 135.147 70.8193 135.277 69.9716C135.407 69.1239 135.576 68.3562 135.786 67.6687C136.012 66.9812 136.261 66.3898 136.534 65.8944C136.92 65.1912 137.345 64.6802 137.809 64.3612C138.29 64.0423 138.738 63.8833 139.154 63.8842C139.73 63.8855 140.234 64.1026 140.665 64.5356C141.096 64.9526 141.447 65.5293 141.717 66.2659C142.004 66.9866 142.218 67.8191 142.36 68.7634C142.501 69.6917 142.571 70.6759 142.569 71.7159C142.567 72.4519 142.517 73.2677 142.419 74.1635C142.338 75.0433 142.176 75.923 141.934 76.8024C141.692 77.6819 141.33 78.5051 140.848 79.272C140.415 79.9271 139.917 80.518 139.356 81.0447C138.795 81.5555 138.114 82.0099 137.313 82.4082C136.528 82.8064 135.575 83.1723 134.455 83.5058L134.216 82.9292C135.545 82.4682 136.65 81.8787 137.532 81.1606C138.413 80.4426 139.111 79.6122 139.625 78.6693C140.156 77.7105 140.526 76.6633 140.736 75.5278C140.963 74.3923 141.078 73.1685 141.081 71.8565C141.084 70.4965 141.022 69.3604 140.896 68.4481C140.786 67.5359 140.636 66.8075 140.445 66.2631C140.254 65.7027 140.031 65.3102 139.776 65.0856C139.536 64.8451 139.289 64.7245 139.033 64.7239C138.761 64.7233 138.456 64.8427 138.12 65.0819C137.783 65.3212 137.47 65.7445 137.181 66.3518C136.972 66.7833 136.779 67.3029 136.601 67.9105C136.44 68.5182 136.311 69.1659 136.213 69.8537C136.116 70.5254 136.066 71.2053 136.065 71.8933C136.061 73.3493 136.251 74.5658 136.632 75.5426C137.03 76.5195 137.621 77.2488 138.404 77.7306C139.186 78.2123 140.162 78.4545 141.33 78.4571C142.05 78.4587 142.738 78.3562 143.395 78.1497C144.051 77.9432 144.636 77.6325 145.149 77.2176C145.662 76.7868 146.071 76.2437 146.376 75.5884C146.682 74.933 146.836 74.1654 146.837 73.2854C146.84 72.1174 146.594 71.1648 146.1 70.4277C145.621 69.6907 145.015 69.1453 144.279 68.7917C143.544 68.422 142.793 68.2363 142.025 68.2346C140.889 68.2161 139.808 68.3897 138.784 68.7554C137.775 69.1051 136.782 69.6549 135.804 70.4048C135.195 70.8514 134.65 71.3782 134.168 71.9851C133.687 72.592 133.278 73.2071 132.94 73.8304C132.603 74.4376 132.338 75.013 132.144 75.5566C131.967 76.1002 131.878 76.548 131.877 76.9C131.877 77.14 131.9 77.3561 131.948 77.5482C132.012 77.7243 132.067 77.8924 132.115 78.0525C132.178 78.2127 132.21 78.3888 132.21 78.5808C132.209 78.7728 132.153 78.9326 132.041 79.0604C131.928 79.1721 131.76 79.2277 131.536 79.2272C131.36 79.2269 131.192 79.1545 131.033 79.0101C130.873 78.8658 130.713 78.7134 130.554 78.5531C130.314 78.2005 130.052 77.6639 129.765 76.9433C129.479 76.2067 129.337 75.2943 129.339 74.2063C129.341 73.4383 129.431 72.6785 129.608 71.9269C129.786 71.1753 129.964 70.4557 130.141 69.7681C130.335 69.0805 130.432 68.4648 130.433 67.9208C130.434 67.4408 130.283 66.9924 129.98 66.5757C129.693 66.1591 129.43 65.7905 129.191 65.47ZM133.713 93.3041C133.856 93.6405 134.023 93.9608 134.215 94.2653C134.406 94.5697 134.654 94.7222 134.958 94.7229C135.198 94.7235 135.542 94.6842 135.99 94.6052C136.438 94.5262 136.918 94.4313 137.43 94.3204C137.959 94.1936 138.455 94.0667 138.919 93.9398C139.384 93.8128 139.752 93.7176 140.024 93.6542C140.216 93.5907 140.352 93.535 140.432 93.4871C140.529 93.4234 140.617 93.3676 140.697 93.3197C140.777 93.2719 140.865 93.2481 140.961 93.2483C141.153 93.2487 141.361 93.3052 141.585 93.4177C141.808 93.5142 142.032 93.6507 142.256 93.8272C142.479 94.0037 142.655 94.1881 142.782 94.3804C142.926 94.5727 142.998 94.7489 142.997 94.9089C142.997 95.0529 142.933 95.1727 142.804 95.2684C142.692 95.3642 142.532 95.4678 142.324 95.5794C142.115 95.6909 141.875 95.8744 141.602 96.1298C141.298 96.3851 140.889 96.7442 140.376 97.207C139.879 97.6699 139.35 98.1727 138.789 98.7155C138.244 99.2423 137.722 99.7531 137.225 100.248C136.728 100.727 136.351 101.118 136.095 101.421C135.998 101.501 135.966 101.573 135.998 101.637C136.046 101.701 136.118 101.71 136.214 101.662C136.775 101.455 137.399 101.264 138.087 101.09C138.792 100.915 139.544 100.829 140.344 100.831C141.384 100.833 142.343 101.051 143.223 101.485C144.102 101.919 144.796 102.545 145.306 103.362C145.833 104.163 146.078 105.116 146.044 106.22C146.026 107.212 145.728 108.123 145.15 108.954C144.572 109.784 143.739 110.447 142.649 110.94C141.576 111.434 140.28 111.679 138.76 111.675C137.864 111.673 137.072 111.56 136.385 111.334C135.713 111.109 135.186 110.787 134.803 110.371C134.436 109.938 134.253 109.433 134.254 108.857C134.255 108.217 134.505 107.682 135.002 107.251C135.515 106.82 136.163 106.606 136.947 106.607C137.555 106.609 138.147 106.754 138.722 107.043C139.297 107.317 139.785 107.734 140.183 108.295C140.582 108.856 140.82 109.576 140.898 110.456L139.482 110.669C139.372 109.629 139.046 108.844 138.503 108.315C137.976 107.77 137.337 107.496 136.585 107.495C136.169 107.494 135.817 107.605 135.528 107.828C135.24 108.052 135.095 108.363 135.094 108.763C135.093 109.179 135.357 109.548 135.884 109.869C136.427 110.19 137.275 110.352 138.427 110.355C139.771 110.358 140.891 110.152 141.788 109.738C142.685 109.324 143.358 108.774 143.808 108.087C144.257 107.4 144.491 106.656 144.509 105.856C144.526 105.136 144.368 104.456 144.033 103.815C143.699 103.174 143.196 102.653 142.525 102.252C141.854 101.834 141.022 101.624 140.03 101.622C138.894 101.62 137.854 101.841 136.909 102.287C135.964 102.717 135.098 103.291 134.313 104.01C133.527 104.712 132.798 105.494 132.124 106.357C131.947 106.58 131.795 106.74 131.667 106.836C131.538 106.915 131.386 106.947 131.21 106.931C131.066 106.93 130.923 106.85 130.779 106.69C130.635 106.513 130.572 106.273 130.588 105.969C130.605 105.745 130.669 105.545 130.782 105.37C130.91 105.178 131.111 104.938 131.383 104.651C132.137 103.869 132.899 103.086 133.669 102.304C134.454 101.506 135.208 100.747 135.93 100.029C136.667 99.2948 137.341 98.6083 137.95 97.9696C138.576 97.315 139.105 96.7402 139.538 96.2452C139.987 95.7342 140.316 95.3189 140.525 94.9994C140.637 94.8236 140.662 94.7037 140.598 94.6395C140.55 94.5754 140.454 94.5592 140.31 94.5909C140.054 94.6383 139.678 94.7415 139.181 94.9004C138.701 95.0593 138.204 95.2342 137.692 95.425C137.196 95.5999 136.771 95.759 136.419 95.9022C136.195 95.9977 135.994 96.1172 135.818 96.2608C135.642 96.3885 135.45 96.452 135.242 96.4516C134.938 96.4509 134.642 96.3542 134.354 96.1616C134.083 95.969 133.843 95.7444 133.636 95.488C133.444 95.2155 133.317 94.9593 133.254 94.7191C133.206 94.511 133.191 94.295 133.207 94.071C133.224 93.8311 133.248 93.5991 133.281 93.3752L133.713 93.3041ZM135.929 121.829L136.146 121.326C137.122 121.408 137.906 121.61 138.497 121.931C139.088 122.236 139.543 122.565 139.863 122.918C140.102 123.174 140.293 123.455 140.437 123.759C140.58 124.048 140.652 124.336 140.651 124.624C140.65 124.896 140.586 125.096 140.458 125.223C140.345 125.351 140.185 125.415 139.977 125.414C139.769 125.414 139.553 125.373 139.329 125.293C139.106 125.212 138.834 125.164 138.514 125.147C138.194 125.114 137.77 125.089 137.242 125.072C136.714 125.055 136.162 125.062 135.586 125.092C135.01 125.107 134.49 125.138 134.026 125.185C133.657 125.232 133.393 125.296 133.233 125.375C133.089 125.455 133.017 125.615 133.016 125.855C133.016 126.047 133.127 126.335 133.35 126.719C133.589 127.088 133.868 127.489 134.187 127.921C134.507 128.338 134.778 128.731 135.001 129.099C135.591 129.996 136.125 130.91 136.603 131.839C137.081 132.752 137.511 133.649 137.893 134.53C138.291 135.41 138.649 136.235 138.967 137.004C139.174 137.532 139.357 138.101 139.515 138.709C139.69 139.302 139.777 139.79 139.776 140.174C139.775 140.51 139.703 140.782 139.558 140.989C139.414 141.213 139.206 141.325 138.934 141.324C138.742 141.323 138.574 141.251 138.43 141.107C138.302 140.979 138.191 140.754 138.096 140.434C138.016 140.178 137.913 139.746 137.786 139.137C137.66 138.513 137.469 137.809 137.215 137.024C137.009 136.368 136.746 135.639 136.428 134.838C136.126 134.038 135.768 133.205 135.354 132.34C134.956 131.475 134.485 130.634 133.943 129.817C133.577 129.208 133.258 128.727 132.986 128.375C132.731 128.006 132.492 127.686 132.269 127.413C132.045 127.157 131.838 126.9 131.646 126.644C131.471 126.387 131.448 126.027 131.577 125.563C131.641 125.26 131.746 125.028 131.89 124.868C132.035 124.708 132.203 124.605 132.395 124.557C132.587 124.494 132.787 124.462 132.995 124.463C133.203 124.463 133.395 124.456 133.571 124.44C134.243 124.377 134.892 124.331 135.516 124.3C136.14 124.254 136.692 124.223 137.172 124.208C137.652 124.177 138.012 124.146 138.252 124.114C138.588 124.083 138.676 123.891 138.517 123.539C138.374 123.251 138.095 122.954 137.679 122.649C137.28 122.328 136.697 122.055 135.929 121.829ZM128.039 129.78C128.215 130.036 128.422 130.292 128.662 130.549C128.917 130.806 129.181 130.934 129.453 130.935C129.709 130.935 130.005 130.864 130.341 130.721C130.694 130.577 131.086 130.402 131.518 130.195C132.672 129.606 133.793 129.04 134.882 128.499C135.971 127.957 137.037 127.472 138.077 127.042C139.118 126.596 140.119 126.247 141.08 125.993C142.04 125.739 142.969 125.613 143.865 125.615C144.825 125.617 145.664 125.795 146.383 126.149C147.103 126.486 147.662 126.959 148.06 127.568C148.459 128.177 148.657 128.874 148.656 129.658C148.654 130.506 148.42 131.225 147.955 131.816C147.506 132.407 146.897 132.854 146.128 133.156C145.375 133.442 144.551 133.584 143.655 133.582C142.807 133.581 141.927 133.371 141.016 132.953C140.105 132.535 139.251 131.861 138.453 130.931L138.886 130.548C139.7 131.142 140.459 131.567 141.163 131.825C141.882 132.082 142.69 132.212 143.586 132.214C144.626 132.217 145.466 131.962 146.108 131.452C146.765 130.941 147.094 130.238 147.096 129.342C147.098 128.766 146.955 128.262 146.668 127.829C146.381 127.381 145.981 127.036 145.47 126.794C144.975 126.553 144.407 126.432 143.767 126.431C143.095 126.429 142.383 126.532 141.63 126.738C140.894 126.928 140.133 127.191 139.348 127.525C138.564 127.859 137.771 128.241 136.97 128.671C136.169 129.102 135.36 129.564 134.543 130.058C133.742 130.536 132.941 131.015 132.14 131.493C131.755 131.732 131.442 131.947 131.202 132.139C130.962 132.314 130.753 132.458 130.577 132.569C130.417 132.665 130.217 132.712 129.977 132.712C129.769 132.711 129.521 132.647 129.233 132.518C128.962 132.374 128.698 132.197 128.442 131.988C128.203 131.764 128.011 131.548 127.868 131.339C127.756 131.131 127.677 130.923 127.629 130.715C127.582 130.507 127.55 130.266 127.535 129.994L128.039 129.78ZM133.31 166.039C133.95 166.441 134.517 166.786 135.012 167.075C135.523 167.348 135.915 167.485 136.187 167.486C136.571 167.487 136.907 167.407 137.196 167.248C137.5 167.073 137.805 166.737 138.11 166.242C138.319 165.939 138.52 165.539 138.713 165.043C138.906 164.532 139.083 163.972 139.244 163.365C139.422 162.741 139.559 162.085 139.657 161.398C139.754 160.71 139.804 160.03 139.805 159.358C139.807 158.478 139.681 157.846 139.426 157.461C139.186 157.061 138.731 156.859 138.059 156.858C137.675 156.857 137.211 156.912 136.667 157.023C136.122 157.134 135.554 157.276 134.962 157.451C134.385 157.61 133.841 157.785 133.328 157.975C132.816 158.15 132.408 158.293 132.103 158.405C131.591 158.596 131.207 158.755 130.95 158.882C130.694 159.01 130.422 159.073 130.134 159.072C129.942 159.072 129.718 158.983 129.463 158.807C129.223 158.63 129.007 158.414 128.816 158.157C128.625 157.901 128.497 157.645 128.434 157.389C128.386 157.196 128.371 156.972 128.387 156.716C128.404 156.46 128.436 156.221 128.485 155.997L128.965 155.926C129.092 156.246 129.228 156.566 129.371 156.887C129.514 157.191 129.754 157.343 130.09 157.344C130.314 157.345 130.634 157.305 131.05 157.226C131.466 157.147 131.93 157.052 132.443 156.941C132.971 156.831 133.499 156.712 134.028 156.585C134.572 156.458 135.076 156.347 135.54 156.252C135.876 156.173 136.325 156.094 136.885 156.015C137.461 155.937 137.949 155.898 138.349 155.899C139.245 155.901 139.94 156.19 140.435 156.767C140.93 157.328 141.176 158.313 141.173 159.721C141.17 160.681 141.072 161.673 140.878 162.696C140.7 163.704 140.442 164.655 140.104 165.551C139.766 166.43 139.356 167.165 138.875 167.756C138.522 168.203 138.097 168.57 137.6 168.857C137.12 169.128 136.575 169.263 135.967 169.261C135.567 169.26 135.295 169.18 135.152 169.02C135.008 168.843 134.857 168.579 134.698 168.227C134.65 168.098 134.578 167.97 134.482 167.842C134.403 167.714 134.251 167.546 134.028 167.337C133.804 167.113 133.469 166.808 133.022 166.423L133.31 166.039ZM133.847 151.545L133.848 151.041C134.04 150.961 134.264 150.89 134.52 150.826C134.793 150.763 135.089 150.731 135.409 150.732C135.649 150.733 135.92 150.781 136.224 150.878C136.544 150.959 136.848 151.079 137.135 151.24C137.439 151.385 137.687 151.537 137.878 151.698C138.07 151.858 138.166 152.018 138.165 152.178C138.165 152.354 138.117 152.514 138.02 152.658C137.94 152.786 137.844 152.922 137.731 153.065C137.619 153.193 137.515 153.361 137.418 153.569C137.257 153.968 137.04 154.496 136.767 155.151C136.493 155.807 136.18 156.542 135.826 157.357C135.488 158.156 135.126 158.979 134.74 159.827C134.354 160.658 133.977 161.465 133.607 162.248C133.269 162.903 132.94 163.543 132.619 164.166C132.313 164.789 132.008 165.381 131.703 165.94C131.413 166.499 131.124 167.019 130.835 167.498C130.562 167.961 130.297 168.385 130.04 168.768C129.864 169.04 129.695 169.231 129.535 169.343C129.391 169.455 129.231 169.51 129.055 169.51C128.895 169.51 128.735 169.429 128.575 169.269C128.416 169.109 128.336 168.892 128.337 168.62C128.337 168.412 128.362 168.228 128.41 168.068C128.474 167.893 128.579 167.709 128.723 167.517C129.172 166.942 129.59 166.367 129.975 165.792C130.376 165.217 130.778 164.586 131.179 163.899C131.597 163.212 132.03 162.445 132.48 161.598C132.802 160.974 133.131 160.295 133.469 159.56C133.807 158.825 134.128 158.081 134.434 157.33C134.74 156.579 135.013 155.875 135.255 155.22C135.496 154.548 135.689 153.973 135.834 153.493C135.979 153.013 136.052 152.694 136.053 152.534C136.053 152.39 136.029 152.269 135.981 152.173C135.95 152.061 135.846 151.973 135.67 151.909C135.494 151.812 135.214 151.74 134.83 151.691C134.463 151.626 134.135 151.577 133.847 151.545ZM142.764 156.509L143.053 155.933C144.029 156.079 144.836 156.321 145.475 156.659C146.115 156.98 146.674 157.405 147.153 157.934C147.599 158.415 147.958 159.04 148.228 159.809C148.499 160.561 148.633 161.402 148.631 162.33C148.63 162.81 148.549 163.225 148.388 163.577C148.227 163.913 147.971 164.088 147.619 164.103C147.379 164.103 147.203 164.046 147.091 163.934C146.995 163.822 146.892 163.702 146.78 163.573C146.684 163.429 146.516 163.333 146.277 163.284C146.117 163.252 145.861 163.243 145.509 163.259C145.157 163.258 144.789 163.273 144.405 163.304C144.036 163.335 143.716 163.367 143.444 163.398L143.302 162.822C143.606 162.774 143.95 162.711 144.334 162.632C144.734 162.537 145.118 162.45 145.487 162.371C145.871 162.275 146.167 162.188 146.375 162.109C146.631 162.013 146.792 161.902 146.856 161.774C146.92 161.63 146.945 161.398 146.93 161.078C146.914 160.758 146.835 160.358 146.692 159.877C146.549 159.397 146.302 158.9 145.952 158.388C145.617 157.923 145.193 157.53 144.682 157.209C144.187 156.888 143.547 156.654 142.764 156.509ZM141.694 184.138L141.719 183.538C142.312 183.46 142.896 183.445 143.471 183.494C144.063 183.543 144.583 183.657 145.031 183.834C145.766 184.107 146.317 184.468 146.684 184.917C147.051 185.35 147.234 185.807 147.233 186.287C147.233 186.559 147.176 186.774 147.064 186.934C146.951 187.078 146.775 187.15 146.535 187.149C146.359 187.149 146.183 187.116 146.008 187.052C145.832 186.987 145.624 186.931 145.384 186.882C145.16 186.818 144.88 186.801 144.544 186.833C144.128 186.88 143.72 186.983 143.319 187.142C142.919 187.285 142.583 187.492 142.31 187.764C142.037 188.035 141.861 188.355 141.78 188.722C141.715 189.09 141.69 189.49 141.705 189.922C141.72 190.21 141.76 190.61 141.822 191.122C141.901 191.619 141.98 192.163 142.059 192.755C142.137 193.347 142.2 193.931 142.247 194.507C142.31 195.068 142.341 195.548 142.34 195.948C142.337 196.94 141.992 197.707 141.303 198.249C140.613 198.808 139.653 199.086 138.421 199.083C137.173 199.08 136.221 198.814 135.566 198.285C134.912 197.755 134.585 197.146 134.587 196.458C134.588 195.85 134.797 195.307 135.214 194.828C135.631 194.349 136.216 193.974 136.969 193.704C137.737 193.433 138.658 193.299 139.73 193.302C141.074 193.305 142.265 193.515 143.304 193.934C144.359 194.352 145.222 194.802 145.893 195.284C146.468 195.637 146.884 195.99 147.139 196.342C147.41 196.679 147.545 196.999 147.545 197.303C147.544 197.543 147.488 197.735 147.375 197.879C147.279 198.007 147.135 198.07 146.943 198.07C146.799 198.07 146.663 198.029 146.535 197.949C146.407 197.869 146.272 197.764 146.128 197.636C146 197.492 145.849 197.339 145.673 197.179C145.146 196.65 144.547 196.185 143.876 195.783C143.221 195.366 142.478 195.036 141.646 194.794C140.831 194.536 139.895 194.406 138.839 194.404C137.751 194.401 136.919 194.592 136.342 194.974C135.781 195.341 135.5 195.74 135.499 196.172C135.498 196.588 135.705 196.949 136.121 197.254C136.552 197.543 137.2 197.688 138.064 197.69C138.832 197.692 139.416 197.581 139.817 197.358C140.233 197.119 140.514 196.808 140.659 196.424C140.82 196.024 140.9 195.592 140.902 195.128C140.903 194.584 140.88 194.032 140.833 193.472C140.786 192.912 140.74 192.36 140.693 191.816C140.646 191.272 140.623 190.76 140.624 190.28C140.626 189.592 140.715 189.016 140.892 188.552C141.085 188.073 141.382 187.649 141.783 187.282C142.168 186.883 142.601 186.572 143.081 186.349C143.578 186.126 144.034 185.919 144.45 185.728C144.707 185.617 144.819 185.481 144.787 185.321C144.772 185.161 144.66 185.009 144.452 184.864C144.117 184.608 143.709 184.423 143.23 184.31C142.75 184.197 142.238 184.139 141.694 184.138ZM129.074 182.478C129.425 182.767 129.737 183.015 130.008 183.224C130.296 183.433 130.607 183.593 130.943 183.706C131.295 183.819 131.743 183.876 132.287 183.877C132.639 183.878 132.991 183.855 133.343 183.808C133.711 183.744 134.047 183.681 134.351 183.618C134.671 183.539 134.935 183.475 135.144 183.428C136.088 183.158 136.801 182.919 137.281 182.712C137.762 182.489 138.122 182.314 138.362 182.187C138.603 182.043 138.803 181.972 138.963 181.972C139.219 181.973 139.427 182.045 139.586 182.189C139.762 182.318 139.85 182.486 139.849 182.694C139.849 182.918 139.744 183.11 139.536 183.269C139.328 183.413 139.159 183.525 139.031 183.604C138.711 183.764 138.286 183.939 137.758 184.129C137.246 184.304 136.669 184.479 136.029 184.654C135.389 184.812 134.724 184.947 134.036 185.057C133.348 185.152 132.676 185.198 132.02 185.197C131.428 185.195 130.924 185.114 130.508 184.953C130.109 184.792 129.757 184.536 129.454 184.183C129.167 183.83 128.896 183.374 128.641 182.813L129.074 182.478ZM133.136 179.775L133.137 179.391C133.329 179.311 133.553 179.248 133.809 179.201C134.081 179.137 134.329 179.106 134.553 179.106C134.873 179.107 135.193 179.14 135.513 179.204C135.833 179.269 136.097 179.374 136.304 179.518C136.416 179.582 136.48 179.679 136.496 179.807C136.527 179.935 136.511 180.151 136.446 180.454C136.398 180.742 136.293 181.158 136.131 181.702C135.986 182.245 135.785 182.981 135.527 183.908C135.381 184.372 135.196 184.94 134.971 185.611C134.745 186.267 134.472 186.986 134.15 187.769C133.844 188.553 133.506 189.352 133.137 190.167C132.767 190.966 132.373 191.757 131.955 192.54C131.554 193.308 131.128 194.019 130.678 194.674C130.518 194.913 130.349 195.121 130.173 195.296C130.013 195.456 129.821 195.536 129.597 195.535C129.373 195.535 129.197 195.438 129.069 195.246C128.958 195.038 128.902 194.822 128.903 194.598C128.903 194.406 128.935 194.222 129 194.046C129.064 193.854 129.177 193.654 129.337 193.447C129.851 192.76 130.405 191.961 130.999 191.05C131.609 190.124 132.187 189.109 132.733 188.006C133.296 186.903 133.746 185.728 134.085 184.481C134.198 184.097 134.303 183.69 134.4 183.258C134.497 182.826 134.578 182.41 134.643 182.01C134.708 181.611 134.748 181.283 134.765 181.027C134.782 180.771 134.75 180.587 134.67 180.474C134.606 180.346 134.471 180.242 134.263 180.162C134.087 180.065 133.895 179.993 133.687 179.944C133.48 179.88 133.296 179.823 133.136 179.775ZM133.958 209.185L133.963 206.905L136.339 207.15C136.322 207.31 136.25 207.446 136.122 207.558C136.009 207.67 135.801 207.749 135.497 207.796L135.494 209.188L140.798 209.2L140.803 206.92L143.179 207.166C143.162 207.326 143.09 207.469 142.962 207.597C142.849 207.709 142.641 207.78 142.337 207.812L142.334 209.204L145.91 209.212L147.017 207.822C147.017 207.822 147.129 207.918 147.353 208.111C147.592 208.287 147.872 208.512 148.191 208.785C148.51 209.041 148.798 209.29 149.053 209.531C149.021 209.659 148.949 209.754 148.837 209.818C148.725 209.882 148.581 209.914 148.405 209.913L142.333 209.9L142.33 211.076C142.33 211.156 142.21 211.251 141.969 211.363C141.745 211.458 141.433 211.506 141.033 211.505L140.793 211.504L140.797 209.896L135.493 209.884L135.49 211.156C135.49 211.252 135.353 211.348 135.081 211.443C134.809 211.523 134.513 211.562 134.193 211.562L133.953 211.561L133.957 209.881L127.501 209.867L127.358 209.17L133.958 209.185ZM136.818 218.407C136.16 219.222 135.358 220.036 134.412 220.85C133.482 221.664 132.425 222.414 131.239 223.099C130.07 223.784 128.764 224.349 127.323 224.794L127.108 224.482C128.389 223.893 129.575 223.215 130.664 222.45C131.754 221.668 132.708 220.838 133.526 219.96C134.36 219.066 135.034 218.195 135.548 217.349L137.85 218.05C137.802 218.162 137.706 218.257 137.562 218.337C137.418 218.401 137.169 218.424 136.818 218.407ZM141.303 219.353C141.814 219.899 142.509 220.396 143.388 220.846C144.283 221.296 145.242 221.682 146.266 222.004C147.289 222.311 148.264 222.553 149.192 222.731L149.167 222.995C148.879 223.042 148.631 223.178 148.422 223.401C148.23 223.625 148.085 223.929 147.988 224.312C147.077 223.974 146.166 223.58 145.255 223.13C144.36 222.664 143.529 222.134 142.763 221.541C142.012 220.947 141.397 220.298 140.919 219.593L141.303 219.353ZM146.922 218.094C146.922 218.094 147.034 218.182 147.258 218.359C147.497 218.519 147.777 218.728 148.096 218.985C148.416 219.225 148.711 219.466 148.983 219.707C148.918 219.962 148.702 220.09 148.334 220.089L127.622 220.043L127.431 219.322L145.815 219.363L146.922 218.094ZM132.93 218.087C132.93 218.119 132.866 218.183 132.738 218.278C132.61 218.358 132.441 218.43 132.233 218.493C132.041 218.541 131.833 218.564 131.609 218.564L131.393 218.563L131.408 211.867L131.41 211.123L133.088 211.871L144.176 211.896L144.174 212.616L132.943 212.591L132.93 218.087ZM142.378 221.9L143.099 221.205L144.513 222.337C144.449 222.448 144.296 222.528 144.056 222.576L144.043 228.36C144.043 228.408 143.963 228.471 143.803 228.551C143.659 228.631 143.491 228.702 143.298 228.766C143.106 228.845 142.922 228.885 142.746 228.885L142.506 228.884L142.522 221.9L142.378 221.9ZM143 211.893L143.818 210.983L145.663 212.403C145.599 212.483 145.479 212.563 145.302 212.642C145.142 212.722 144.958 212.778 144.75 212.809L144.739 217.969C144.738 218.017 144.666 218.089 144.522 218.185C144.378 218.28 144.202 218.36 143.994 218.423C143.801 218.487 143.617 218.519 143.441 218.518L143.201 218.518L143.216 211.894L143 211.893ZM144.141 217.008L144.139 217.704L132.235 217.677L132.237 216.981L144.141 217.008ZM144.05 214.464L144.049 215.16L132.241 215.133L132.242 214.437L144.05 214.464ZM133.675 228.408C133.675 228.44 133.619 228.496 133.507 228.576C133.395 228.672 133.242 228.751 133.05 228.815C132.874 228.895 132.658 228.934 132.402 228.934L132.162 228.933L132.178 221.877L132.635 221.302L133.978 221.881L133.69 221.88L133.675 228.408ZM143.207 226.942L143.205 227.662L132.885 227.639L132.887 226.919L143.207 226.942ZM143.116 224.421L143.115 225.141L132.891 225.119L132.892 224.399L143.116 224.421ZM143.146 221.902L143.144 222.598L132.728 222.574L132.73 221.878L143.146 221.902ZM134.422 237.922L134.567 237.394C135.687 237.493 136.583 237.679 137.254 237.952C137.925 238.21 138.469 238.483 138.884 238.772C139.411 239.125 139.77 239.486 139.962 239.854C140.153 240.223 140.248 240.615 140.247 241.031C140.246 241.335 140.182 241.567 140.053 241.727C139.925 241.87 139.733 241.942 139.477 241.941C139.269 241.941 139.093 241.925 138.949 241.892C138.805 241.86 138.637 241.836 138.445 241.819C138.253 241.787 137.981 241.778 137.629 241.793C137.165 241.808 136.693 241.855 136.213 241.934C135.733 241.997 135.293 242.076 134.892 242.171C134.508 242.25 134.212 242.314 134.004 242.361C133.812 242.409 133.676 242.472 133.596 242.552C133.531 242.632 133.499 242.736 133.499 242.864C133.499 242.992 133.546 243.2 133.642 243.488C133.737 243.761 133.784 244.017 133.784 244.257C133.799 244.545 133.75 244.857 133.638 245.192C133.541 245.528 133.436 245.904 133.323 246.32C133.194 246.863 133.065 247.439 132.935 248.047C132.806 248.655 132.741 249.254 132.739 249.846C132.739 250.118 132.851 250.167 133.075 249.991C133.748 249.433 134.421 248.938 135.094 248.508C135.783 248.077 136.464 247.719 137.137 247.432C137.825 247.146 138.506 246.931 139.178 246.789C139.851 246.63 140.491 246.552 141.099 246.553C142.315 246.556 143.306 246.79 144.073 247.256C144.856 247.705 145.439 248.299 145.821 249.036C146.22 249.756 146.418 250.517 146.416 251.317C146.414 252.181 146.18 252.948 145.715 253.619C145.25 254.274 144.616 254.833 143.815 255.295C143.014 255.757 142.093 256.123 141.053 256.393C140.028 256.679 138.948 256.868 137.811 256.962C136.691 257.071 135.587 257.093 134.499 257.026L134.429 256.426C135.277 256.38 136.109 256.294 136.925 256.168C137.758 256.042 138.446 255.907 138.99 255.764C140.463 255.368 141.616 254.898 142.449 254.356C143.299 253.814 143.892 253.247 144.229 252.656C144.566 252.065 144.736 251.473 144.737 250.881C144.739 250.161 144.572 249.545 144.237 249.032C143.902 248.503 143.447 248.102 142.872 247.829C142.313 247.54 141.689 247.394 141.001 247.393C140.329 247.391 139.649 247.51 138.96 247.748C138.288 247.987 137.623 248.305 136.966 248.704C136.325 249.102 135.716 249.557 135.139 250.068C134.578 250.562 134.057 251.081 133.575 251.624C133.463 251.752 133.351 251.912 133.238 252.103C133.126 252.279 133.006 252.439 132.877 252.583C132.765 252.71 132.629 252.774 132.469 252.774C132.197 252.773 131.925 252.605 131.654 252.268C131.51 252.108 131.391 251.923 131.295 251.715C131.216 251.507 131.176 251.323 131.176 251.163C131.177 250.971 131.209 250.739 131.274 250.467C131.339 250.195 131.387 249.915 131.42 249.627C131.485 249.148 131.566 248.62 131.663 248.044C131.761 247.468 131.866 246.9 131.979 246.341C132.092 245.781 132.173 245.309 132.222 244.925C132.303 244.413 132.336 243.989 132.321 243.653C132.306 243.317 132.299 243.021 132.299 242.765C132.3 242.509 132.364 242.286 132.493 242.094C132.637 241.902 132.901 241.759 133.286 241.664C133.702 241.552 134.198 241.434 134.774 241.307C135.367 241.164 135.943 241.021 136.503 240.879C137.08 240.72 137.52 240.585 137.824 240.474C138.193 240.347 138.201 240.091 137.85 239.706C137.547 239.321 137.084 238.984 136.46 238.695C135.853 238.389 135.174 238.132 134.422 237.922ZM131.236 267.659L131.237 267.155C131.557 267.092 131.845 267.044 132.101 267.013C132.357 266.982 132.589 266.974 132.797 266.991C133.085 266.991 133.389 267.064 133.709 267.209C134.028 267.353 134.324 267.53 134.595 267.739C134.883 267.947 135.114 268.164 135.29 268.388C135.482 268.597 135.577 268.781 135.577 268.941C135.576 269.117 135.528 269.269 135.432 269.396C135.351 269.524 135.263 269.684 135.167 269.876C135.07 270.068 134.982 270.355 134.901 270.739C134.787 271.491 134.665 272.395 134.535 273.45C134.404 274.506 134.298 275.618 134.215 276.786C134.133 277.938 134.09 279.057 134.088 280.145C134.085 281.153 134.196 281.97 134.418 282.594C134.641 283.203 135.008 283.652 135.519 283.941C136.047 284.214 136.742 284.351 137.606 284.353C138.646 284.356 139.623 284.214 140.535 283.928C141.464 283.626 142.321 283.236 143.106 282.758C143.891 282.263 144.58 281.713 145.174 281.106C145.783 280.5 146.296 279.877 146.714 279.238L147.241 279.599C146.791 280.542 146.237 281.405 145.579 282.187C144.921 282.954 144.176 283.624 143.343 284.198C142.525 284.756 141.628 285.186 140.652 285.488C139.691 285.806 138.675 285.964 137.603 285.961C136.531 285.959 135.627 285.765 134.892 285.379C134.173 285.01 133.63 284.408 133.264 283.576C132.914 282.743 132.74 281.646 132.743 280.286C132.745 279.534 132.763 278.734 132.797 277.887C132.847 277.023 132.897 276.159 132.947 275.295C133.012 274.431 133.07 273.615 133.12 272.847C133.186 272.079 133.235 271.408 133.269 270.832C133.318 270.256 133.343 269.824 133.343 269.536C133.344 269.104 133.305 268.8 133.225 268.623C133.146 268.431 133.002 268.279 132.794 268.167C132.603 268.054 132.371 267.958 132.099 267.877C131.827 267.78 131.539 267.708 131.236 267.659Z" fill="white"/>
<path d="M31.0597 283.47L31.3723 283.183C31.6122 283.263 31.8359 283.368 32.0436 283.496C32.2674 283.609 32.4831 283.753 32.6907 283.93C32.8344 284.058 33.002 284.242 33.1934 284.483C33.3849 284.707 33.5524 284.948 33.6958 285.204C33.8553 285.46 33.9347 285.7 33.9342 285.924C33.9336 286.228 33.8608 286.556 33.716 286.908C33.5873 287.244 33.4666 287.539 33.3541 287.795C33.177 288.259 33 288.73 32.8229 289.21C32.6618 289.69 32.5248 290.153 32.4118 290.601C32.2988 291.033 32.2419 291.441 32.2411 291.825C32.2402 292.209 32.2793 292.593 32.3585 292.977C32.4376 293.361 32.5489 293.665 32.6924 293.89C33.3196 292.483 34.0664 291.221 34.9329 290.103C35.7994 288.985 36.8096 288.011 37.9634 287.181C38.3961 286.862 38.9168 286.568 39.5254 286.297C40.134 286.026 40.8065 285.812 41.5429 285.653C42.2952 285.479 43.0954 285.393 43.9434 285.395C44.8554 285.397 45.6871 285.543 46.4385 285.832C47.2058 286.122 47.8689 286.54 48.4277 287.085C48.9865 287.63 49.417 288.279 49.7193 289.032C50.0377 289.768 50.1959 290.585 50.1939 291.481C50.1909 292.793 49.9004 293.936 49.3222 294.911C48.744 295.885 47.9263 296.644 46.8691 297.185C45.8279 297.727 44.5713 297.996 43.0993 297.993C41.8353 297.99 40.74 297.7 39.8133 297.122C38.8865 296.543 38.1764 295.71 37.6828 294.621C37.1893 293.532 36.9442 292.227 36.9476 290.707C36.9497 289.731 37.0158 288.819 37.1457 287.972C37.2756 287.124 37.4453 286.356 37.6548 285.669C37.8803 284.981 38.1297 284.39 38.4028 283.894C38.7883 283.191 39.2135 282.68 39.6782 282.361C40.1589 282.042 40.6073 281.883 41.0233 281.884C41.5993 281.885 42.1028 282.103 42.5338 282.536C42.9649 282.953 43.3156 283.529 43.586 284.266C43.8723 284.987 44.0865 285.819 44.2284 286.763C44.3703 287.692 44.4401 288.676 44.4378 289.716C44.4362 290.452 44.3863 291.268 44.2883 292.164C44.2064 293.043 44.0444 293.923 43.8024 294.802C43.5605 295.682 43.1986 296.505 42.7169 297.272C42.2835 297.927 41.7861 298.518 41.225 299.045C40.6638 299.555 39.9828 300.01 39.1819 300.408C38.397 300.806 37.4442 301.172 36.3235 301.506L36.0847 300.929C37.4138 300.468 38.5191 299.879 39.4007 299.161C40.2823 298.443 40.9802 297.612 41.4943 296.669C42.0244 295.71 42.3947 294.663 42.6053 293.528C42.8318 292.392 42.9465 291.169 42.9495 289.857C42.9525 288.497 42.891 287.36 42.7651 286.448C42.6551 285.536 42.5047 284.808 42.314 284.263C42.1232 283.703 41.9001 283.31 41.6446 283.086C41.4051 282.845 41.1574 282.725 40.9014 282.724C40.6294 282.723 40.3251 282.843 39.9886 283.082C39.6521 283.321 39.3391 283.744 39.0498 284.352C38.8408 284.783 38.6476 285.303 38.4703 285.911C38.3089 286.518 38.1795 287.166 38.0819 287.854C37.9844 288.525 37.9349 289.205 37.9334 289.893C37.9301 291.349 38.1194 292.566 38.5012 293.543C38.8991 294.52 39.4894 295.249 40.2724 295.731C41.0553 296.212 42.0307 296.454 43.1987 296.457C43.9187 296.459 44.607 296.356 45.2634 296.15C45.9199 295.943 46.5046 295.632 47.0175 295.218C47.5305 294.787 47.9397 294.244 48.2452 293.588C48.5506 292.933 48.7043 292.165 48.7063 291.285C48.7089 290.117 48.463 289.165 47.9687 288.428C47.4903 287.691 46.8835 287.145 46.1483 286.792C45.4131 286.422 44.6616 286.236 43.8936 286.235C42.7576 286.216 41.6772 286.39 40.6524 286.755C39.6436 287.105 38.6504 287.655 37.6727 288.405C37.0637 288.851 36.5185 289.378 36.0372 289.985C35.5558 290.592 35.1464 291.207 34.8091 291.83C34.4717 292.438 34.2064 293.013 34.0132 293.557C33.836 294.1 33.747 294.548 33.7462 294.9C33.7457 295.14 33.7692 295.356 33.8167 295.548C33.8804 295.724 33.936 295.892 33.9836 296.053C34.0473 296.213 34.0789 296.389 34.0784 296.581C34.078 296.773 34.0217 296.933 33.9094 297.06C33.7971 297.172 33.629 297.228 33.405 297.227C33.229 297.227 33.0612 297.154 32.9015 297.01C32.7418 296.866 32.5821 296.713 32.4225 296.553C32.1833 296.201 31.9205 295.664 31.6341 294.943C31.3477 294.207 31.2058 293.294 31.2082 292.206C31.2099 291.438 31.2996 290.679 31.4773 289.927C31.655 289.175 31.8326 288.456 32.0101 287.768C32.2036 287.081 32.301 286.465 32.3022 285.921C32.3033 285.441 32.1523 284.992 31.8492 284.576C31.5622 284.159 31.299 283.791 31.0597 283.47ZM35.3663 310.992L35.4155 310.44C35.6717 310.376 35.9118 310.329 36.1358 310.297C36.3759 310.266 36.6399 310.259 36.9279 310.275C37.2159 310.292 37.5437 310.365 37.9114 310.493C38.2952 310.606 38.6228 310.751 38.8944 310.928C39.1821 311.088 39.3257 311.264 39.3253 311.456C39.3249 311.6 39.2926 311.76 39.2282 311.936C39.1638 312.112 39.0833 312.32 38.9868 312.56C38.9063 312.8 38.8097 313.071 38.697 313.375C38.5679 313.855 38.3985 314.478 38.1888 315.246C37.9791 315.998 37.7373 316.805 37.4634 317.668C37.2055 318.532 36.9236 319.371 36.6178 320.186C36.328 320.986 36.0221 321.817 35.7002 322.68C35.3783 323.528 35.0485 324.351 34.7107 325.15C34.3889 325.95 34.0673 326.685 33.7458 327.356C33.4403 328.011 33.1591 328.547 32.9022 328.962C32.7416 329.234 32.5891 329.426 32.4449 329.537C32.3006 329.665 32.1005 329.728 31.8445 329.728C31.6525 329.727 31.4847 329.631 31.3411 329.439C31.2135 329.246 31.15 329.014 31.1507 328.742C31.151 328.566 31.1674 328.414 31.1997 328.286C31.248 328.159 31.3203 328.023 31.4166 327.879C31.5129 327.735 31.6173 327.559 31.7298 327.352C32.3398 326.441 32.9662 325.37 33.6089 324.14C34.2677 322.909 34.8949 321.455 35.4907 319.776C35.716 319.168 35.9255 318.521 36.119 317.833C36.3286 317.146 36.5221 316.458 36.6996 315.771C36.8772 315.083 37.0226 314.443 37.1359 313.852C37.2652 313.26 37.3463 312.764 37.3792 312.364C37.4118 312.092 37.3883 311.892 37.3086 311.764C37.2289 311.636 37.0851 311.515 36.8774 311.403C36.6376 311.306 36.3818 311.226 36.1099 311.161C35.8541 311.097 35.6062 311.04 35.3663 310.992ZM30.7265 314.485C31.2375 314.934 31.7087 315.272 32.1402 315.496C32.5717 315.721 33.0755 315.843 33.6514 315.86C34.3714 315.861 35.0675 315.807 35.7398 315.697C36.4121 315.57 37.0044 315.435 37.5167 315.292C38.3172 315.054 39.0298 314.808 39.6543 314.553C40.279 314.283 40.8155 314.036 41.264 313.813C41.4402 313.717 41.5924 313.638 41.7205 313.574C41.8647 313.51 41.9848 313.478 42.0808 313.479C42.2247 313.479 42.3767 313.511 42.5365 313.576C42.6964 313.624 42.8323 313.696 42.9441 313.793C43.0558 313.889 43.1116 314.009 43.1112 314.153C43.1107 314.377 43.0223 314.569 42.846 314.728C42.6856 314.872 42.3893 315.039 41.9568 315.23C41.7647 315.31 41.4044 315.445 40.8759 315.636C40.3635 315.827 39.7791 316.026 39.1226 316.232C38.4662 316.423 37.8178 316.581 37.1775 316.708C36.6973 316.819 36.1291 316.921 35.4728 317.016C34.8326 317.11 34.2245 317.157 33.6485 317.156C33.1845 317.155 32.7447 317.09 32.329 316.961C31.9293 316.816 31.5618 316.575 31.2266 316.238C30.8914 315.886 30.5884 315.405 30.3178 314.796L30.7265 314.485ZM41.1328 318.829L40.9901 318.252C41.5666 318.014 42.2311 317.815 42.9834 317.657C43.7518 317.482 44.536 317.396 45.336 317.398C46.136 317.4 46.7999 317.465 47.3276 317.594C47.8713 317.724 48.287 317.853 48.5747 317.981C48.8624 318.126 49.078 318.286 49.2216 318.463C49.3653 318.639 49.4368 318.831 49.4364 319.039C49.4359 319.247 49.3396 319.391 49.1474 319.47C48.9712 319.55 48.7391 319.606 48.451 319.637C48.227 319.652 48.0109 319.684 47.8028 319.731C47.6107 319.779 47.3545 319.874 47.0342 320.018C46.6658 320.161 46.2254 320.352 45.7129 320.591C45.2164 320.83 44.7599 321.053 44.3434 321.26L44.0324 320.827C44.3048 320.636 44.6172 320.428 44.9697 320.205C45.3222 319.982 45.6507 319.767 45.9552 319.559C46.2597 319.336 46.46 319.176 46.5563 319.081C46.7326 318.921 46.7009 318.809 46.461 318.744C46.1733 318.632 45.8374 318.559 45.4535 318.526C45.0856 318.477 44.7177 318.453 44.3497 318.452C43.8217 318.451 43.2856 318.481 42.7414 318.544C42.1973 318.607 41.6611 318.702 41.1328 318.829ZM39.6096 323.865L39.0334 323.936C39.0485 324.352 39.0875 324.784 39.1505 325.232C39.2135 325.68 39.3485 326.137 39.5555 326.601C39.7939 327.306 40.1846 327.874 40.7277 328.308C41.2867 328.741 41.95 329.054 42.7176 329.248C43.5011 329.458 44.3569 329.564 45.2849 329.566C45.9729 329.567 46.5889 329.537 47.1331 329.474C47.6772 329.411 48.1334 329.34 48.5015 329.261C48.8537 329.198 49.1579 329.094 49.4142 328.951C49.6866 328.808 49.823 328.616 49.8235 328.376C49.8239 328.184 49.7683 328.032 49.6565 327.92C49.5448 327.791 49.393 327.703 49.2011 327.655C49.0253 327.59 48.8413 327.558 48.6493 327.557C48.4093 327.557 48.1453 327.596 47.8571 327.676C47.5689 327.739 47.1848 327.81 46.7046 327.889C46.2244 327.968 45.5843 328.007 44.7843 328.005C43.7443 328.002 42.8567 327.856 42.1213 327.567C41.402 327.277 40.835 326.804 40.4205 326.147C40.1973 325.794 40.0221 325.41 39.895 324.994C39.784 324.578 39.6888 324.201 39.6096 323.865ZM35.244 355.039C35.8831 355.441 36.4503 355.786 36.9457 356.075C37.4571 356.348 37.8488 356.485 38.1208 356.486C38.5047 356.487 38.8409 356.408 39.1293 356.248C39.4337 356.073 39.7384 355.738 40.0435 355.242C40.2522 354.939 40.4531 354.539 40.6462 354.044C40.8394 353.532 41.0166 352.972 41.178 352.365C41.3553 351.741 41.4928 351.085 41.5903 350.398C41.6879 349.71 41.7374 349.03 41.7389 348.358C41.7409 347.478 41.6143 346.846 41.3591 346.461C41.12 346.061 40.6645 345.86 39.9925 345.858C39.6085 345.857 39.1444 345.912 38.6001 346.023C38.0559 346.134 37.4875 346.276 36.8951 346.451C36.3188 346.61 35.7744 346.785 35.262 346.976C34.7496 347.15 34.3413 347.293 34.037 347.405C33.5246 347.596 33.1402 347.755 32.8839 347.882C32.6277 348.01 32.3555 348.073 32.0675 348.072C31.8755 348.072 31.6517 347.983 31.3961 347.807C31.1565 347.63 30.941 347.414 30.7496 347.157C30.5581 346.901 30.4307 346.645 30.3673 346.389C30.3197 346.196 30.3042 345.972 30.3208 345.716C30.3373 345.461 30.3699 345.221 30.4184 344.997L30.8985 344.926C31.0258 345.246 31.1611 345.566 31.3044 345.887C31.4477 346.191 31.6874 346.344 32.0234 346.344C32.2474 346.345 32.5675 346.306 32.9836 346.226C33.3998 346.147 33.864 346.052 34.3763 345.942C34.9045 345.831 35.4328 345.712 35.9611 345.585C36.5054 345.458 37.0096 345.347 37.4738 345.252C37.81 345.173 38.2582 345.094 38.8184 345.015C39.3945 344.937 39.8826 344.898 40.2826 344.899C41.1786 344.901 41.874 345.19 42.3687 345.767C42.8634 346.328 43.1092 347.313 43.1061 348.721C43.104 349.681 43.0057 350.673 42.8115 351.696C42.6332 352.704 42.3751 353.655 42.0371 354.551C41.6991 355.43 41.2895 356.165 40.8082 356.756C40.4552 357.203 40.0303 357.57 39.5337 357.857C39.0531 358.128 38.5088 358.263 37.9008 358.261C37.5008 358.261 37.229 358.18 37.0853 358.02C36.9417 357.843 36.7903 357.579 36.6311 357.227C36.5834 357.098 36.5117 356.97 36.416 356.842C36.3362 356.714 36.1846 356.546 35.9611 356.337C35.7376 356.113 35.4023 355.808 34.9551 355.423L35.244 355.039ZM35.7803 340.545L35.7814 340.041C35.9736 339.961 36.1978 339.89 36.4539 339.826C36.7261 339.763 37.0221 339.731 37.3421 339.732C37.5821 339.733 37.854 339.781 38.1578 339.878C38.4776 339.959 38.7814 340.079 39.069 340.24C39.3727 340.385 39.6204 340.537 39.812 340.698C40.0036 340.858 40.0993 341.018 40.0989 341.178C40.0985 341.354 40.0502 341.514 39.9539 341.658C39.8736 341.786 39.7773 341.922 39.6649 342.065C39.5527 342.193 39.4483 342.361 39.3518 342.569C39.1909 342.968 38.9737 343.496 38.7003 344.151C38.4268 344.807 38.1132 345.542 37.7594 346.357C37.4216 347.156 37.0597 347.98 36.6738 348.827C36.288 349.658 35.9102 350.465 35.5404 351.248C35.203 351.903 34.8735 352.543 34.5522 353.166C34.2468 353.789 33.9414 354.381 33.6362 354.94C33.3469 355.499 33.0578 356.019 32.7687 356.498C32.4957 356.961 32.2307 357.385 31.9739 357.768C31.7973 358.04 31.6288 358.231 31.4686 358.343C31.3243 358.455 31.1642 358.51 30.9882 358.51C30.8282 358.51 30.6684 358.429 30.5088 358.269C30.3491 358.109 30.2696 357.892 30.2702 357.62C30.2707 357.412 30.2951 357.228 30.3434 357.069C30.4078 356.893 30.5122 356.709 30.6567 356.517C31.1059 355.942 31.5232 355.367 31.9085 354.792C32.3098 354.217 32.7112 353.586 33.1127 352.899C33.5303 352.212 33.964 351.445 34.4139 350.598C34.7353 349.974 35.0648 349.295 35.4024 348.56C35.7401 347.825 36.0617 347.081 36.3674 346.33C36.6731 345.579 36.9467 344.875 37.1881 344.22C37.4296 343.548 37.6229 342.973 37.768 342.493C37.9131 342.013 37.9858 341.694 37.9861 341.534C37.9864 341.39 37.9627 341.27 37.9149 341.173C37.8832 341.061 37.7794 340.973 37.6035 340.909C37.4277 340.812 37.1479 340.74 36.764 340.691C36.3961 340.626 36.0683 340.577 35.7803 340.545ZM44.6973 345.509L44.9866 344.933C45.9622 345.079 46.7697 345.321 47.4089 345.659C48.0482 345.98 48.6073 346.405 49.0861 346.934C49.533 347.415 49.8916 348.04 50.1619 348.809C50.4322 349.561 50.5664 350.402 50.5643 351.33C50.5632 351.81 50.4823 352.226 50.3215 352.577C50.1608 352.913 49.9044 353.088 49.5523 353.103C49.3123 353.103 49.1365 353.046 49.0247 352.934C48.929 352.822 48.8252 352.702 48.7135 352.574C48.6178 352.429 48.45 352.333 48.2102 352.284C48.0502 352.252 47.7942 352.244 47.4422 352.259C47.0902 352.258 46.7222 352.273 46.3381 352.304C45.97 352.335 45.65 352.367 45.3779 352.398L45.2352 351.822C45.5393 351.774 45.8834 351.711 46.2676 351.632C46.6678 351.537 47.052 351.45 47.4202 351.371C47.8044 351.276 48.1006 351.188 48.3088 351.109C48.565 351.013 48.7252 350.902 48.7895 350.774C48.8538 350.63 48.8784 350.398 48.8631 350.078C48.8478 349.758 48.7687 349.358 48.6258 348.877C48.4828 348.397 48.2359 347.9 47.8851 347.388C47.5501 346.923 47.127 346.53 46.6157 346.209C46.1204 345.888 45.4809 345.654 44.6973 345.509ZM43.6276 373.138L43.6529 372.538C44.2451 372.46 44.8291 372.445 45.405 372.494C45.9969 372.544 46.5167 372.657 46.9643 372.834C47.6997 373.107 48.2509 373.469 48.6179 373.917C48.9849 374.35 49.1679 374.807 49.1668 375.287C49.1662 375.559 49.1097 375.774 48.9974 375.934C48.885 376.078 48.7089 376.15 48.4689 376.149C48.2929 376.149 48.117 376.116 47.9411 376.052C47.7652 375.987 47.5574 375.931 47.3175 375.882C47.0936 375.818 46.8137 375.801 46.4776 375.833C46.0615 375.88 45.6533 375.983 45.2529 376.142C44.8526 376.285 44.5161 376.492 44.2435 376.764C43.9709 377.035 43.7942 377.355 43.7134 377.722C43.6485 378.09 43.6237 378.49 43.6387 378.922C43.654 379.21 43.6932 379.61 43.756 380.123C43.8349 380.619 43.9137 381.163 43.9924 381.755C44.071 382.347 44.1337 382.931 44.1805 383.508C44.2432 384.068 44.2741 384.548 44.2732 384.948C44.271 385.94 43.9253 386.707 43.2361 387.249C42.5469 387.808 41.5862 388.086 40.3542 388.083C39.1062 388.08 38.1548 387.814 37.5 387.285C36.8452 386.755 36.5185 386.146 36.5201 385.458C36.5214 384.85 36.7307 384.307 37.1477 383.828C37.5648 383.349 38.1496 382.974 38.9022 382.704C39.6708 382.433 40.5911 382.299 41.6631 382.302C43.0071 382.305 44.1987 382.516 45.2377 382.934C46.2928 383.352 47.1558 383.802 47.8267 384.284C48.4019 384.637 48.8172 384.99 49.0724 385.342C49.3436 385.679 49.4789 385.999 49.4782 386.303C49.4777 386.543 49.4213 386.735 49.3089 386.879C49.2127 387.007 49.0685 387.07 48.8765 387.07C48.7325 387.07 48.5966 387.029 48.4688 386.949C48.341 386.869 48.2052 386.765 48.0615 386.636C47.9338 386.492 47.7821 386.34 47.6065 386.179C47.0797 385.65 46.4807 385.185 45.8096 384.783C45.1545 384.366 44.4113 384.036 43.5798 383.794C42.7644 383.536 41.8287 383.406 40.7727 383.404C39.6847 383.401 38.8523 383.592 38.2754 383.974C37.7146 384.341 37.4337 384.74 37.4327 385.172C37.4318 385.588 37.639 385.949 38.0543 386.254C38.4857 386.543 39.1333 386.688 39.9973 386.69C40.7653 386.692 41.3496 386.581 41.7501 386.358C42.1666 386.119 42.4473 385.808 42.5922 385.424C42.7531 385.024 42.834 384.593 42.8351 384.129C42.8363 383.585 42.8135 383.032 42.7668 382.472C42.72 381.912 42.6732 381.36 42.6265 380.816C42.5797 380.272 42.5568 379.76 42.5579 379.28C42.5594 378.592 42.6487 378.016 42.8257 377.552C43.0188 377.073 43.3158 376.65 43.7166 376.282C44.1015 375.883 44.5342 375.572 45.0147 375.349C45.5112 375.126 45.9676 374.919 46.3841 374.728C46.6403 374.617 46.7526 374.481 46.721 374.321C46.7053 374.161 46.5937 374.009 46.386 373.864C46.0506 373.608 45.643 373.423 45.1632 373.31C44.6835 373.197 44.1716 373.139 43.6276 373.138ZM31.0073 371.478C31.3586 371.767 31.6701 372.016 31.9416 372.224C32.2291 372.433 32.5408 372.594 32.8765 372.706C33.2283 372.819 33.6762 372.876 34.2202 372.877C34.5722 372.878 34.9242 372.855 35.2763 372.808C35.6445 372.744 35.9806 372.681 36.2847 372.618C36.6049 372.539 36.8691 372.475 37.0772 372.428C38.0218 372.158 38.7343 371.919 39.2148 371.712C39.6953 371.489 40.0557 371.314 40.2959 371.187C40.5363 371.043 40.7364 370.972 40.8964 370.972C41.1524 370.973 41.3603 371.045 41.5199 371.19C41.6957 371.318 41.7833 371.486 41.7828 371.694C41.7823 371.918 41.6779 372.11 41.4695 372.269C41.2612 372.413 41.093 372.525 40.9648 372.604C40.6444 372.764 40.22 372.939 39.6916 373.129C39.1792 373.304 38.6028 373.479 37.9624 373.654C37.3221 373.812 36.6578 373.947 35.9695 374.057C35.2813 374.152 34.6092 374.198 33.9532 374.197C33.3612 374.195 32.8574 374.114 32.4417 373.953C32.0421 373.792 31.6907 373.536 31.3875 373.183C31.1003 372.83 30.8293 372.374 30.5745 371.813L31.0073 371.478ZM35.0693 368.775L35.0702 368.391C35.2623 368.312 35.4865 368.248 35.7426 368.201C36.0147 368.137 36.2628 368.106 36.4868 368.106C36.8068 368.107 37.1267 368.14 37.4466 368.204C37.7664 368.269 38.0302 368.374 38.2379 368.518C38.3498 368.582 38.4135 368.679 38.4293 368.807C38.461 368.935 38.4445 369.151 38.3798 369.455C38.3312 369.742 38.2262 370.158 38.065 370.702C37.9198 371.246 37.7182 371.981 37.4601 372.908C37.3151 373.372 37.1298 373.94 36.9043 374.611C36.6788 375.267 36.4052 375.986 36.0835 376.769C35.7777 377.553 35.4399 378.352 35.0701 379.167C34.7003 379.966 34.3066 380.757 33.8888 381.541C33.4871 382.308 33.0615 383.019 32.6121 383.674C32.4515 383.913 32.2831 384.121 32.1067 384.297C31.9463 384.456 31.7541 384.536 31.5301 384.535C31.3061 384.535 31.1303 384.438 31.0028 384.246C30.8912 384.038 30.8357 383.822 30.8362 383.598C30.8366 383.406 30.8691 383.222 30.9335 383.046C30.9979 382.854 31.1103 382.654 31.2708 382.447C31.7843 381.76 32.3381 380.961 32.9321 380.05C33.5422 379.124 34.1205 378.109 34.6669 377.006C35.2294 375.904 35.68 374.729 36.0188 373.481C36.1317 373.098 36.2366 372.69 36.3335 372.258C36.4305 371.826 36.5114 371.41 36.5763 371.011C36.6412 370.611 36.682 370.283 36.6985 370.027C36.7151 369.771 36.6835 369.587 36.6038 369.475C36.54 369.346 36.4043 369.242 36.1965 369.162C36.0207 369.065 35.8288 368.993 35.6209 368.944C35.4131 368.88 35.2292 368.823 35.0693 368.775ZM35.915 398.497L47.4829 398.523L48.6142 397.061C48.6142 397.061 48.6781 397.118 48.8058 397.23C48.9496 397.342 49.1333 397.487 49.3569 397.663C49.5805 397.84 49.8121 398.032 50.0516 398.241C50.2911 398.449 50.5147 398.65 50.7222 398.842C50.6577 399.098 50.4414 399.226 50.0734 399.225L36.1054 399.194L35.915 398.497ZM34.5334 415.318L48.3094 415.349L49.4407 413.863C49.4407 413.863 49.5126 413.927 49.6563 414.056C49.8 414.168 49.9837 414.321 50.2073 414.513C50.4309 414.69 50.6624 414.882 50.902 415.091C51.1575 415.299 51.3891 415.5 51.5966 415.692C51.5321 415.948 51.3238 416.076 50.9718 416.075L34.7238 416.038L34.5334 415.318ZM41.9869 398.535L43.6669 398.538L43.628 415.986L41.948 415.983L41.9869 398.535ZM30.9759 396.278C31.8876 396.424 32.6311 396.634 33.2065 396.907C33.7819 397.164 34.2213 397.453 34.5246 397.774C34.8279 398.079 35.0112 398.383 35.0746 398.687C35.1539 398.991 35.1373 399.255 35.0248 399.479C34.9283 399.687 34.76 399.823 34.5199 399.886C34.2797 399.949 34.0158 399.901 33.7282 399.74C33.5851 399.356 33.3459 398.963 33.0108 398.563C32.6918 398.146 32.3326 397.761 31.9334 397.408C31.5342 397.055 31.1428 396.758 30.7594 396.518L30.9759 396.278ZM29.0443 401.482C29.9081 401.564 30.6118 401.725 31.1552 401.966C31.6987 402.192 32.1061 402.457 32.3775 402.761C32.6648 403.05 32.8402 403.338 32.9035 403.626C32.9669 403.915 32.9423 404.162 32.8299 404.37C32.7334 404.562 32.5651 404.69 32.325 404.753C32.1009 404.817 31.845 404.776 31.5573 404.631C31.4141 404.263 31.1909 403.903 30.8877 403.55C30.6005 403.181 30.2733 402.837 29.906 402.516C29.5387 402.179 29.1794 401.906 28.8278 401.697L29.0443 401.482ZM30.5349 411.061C30.6789 411.061 30.783 411.046 30.847 411.014C30.9271 410.966 31.0315 410.822 31.16 410.583C31.2564 410.407 31.3528 410.239 31.4491 410.079C31.5455 409.919 31.682 409.664 31.8588 409.312C32.0356 408.96 32.3008 408.441 32.6543 407.754C33.0078 407.067 33.4819 406.132 34.0766 404.949C34.6872 403.75 35.4747 402.208 36.4389 400.322L36.8706 400.467C36.6293 401.059 36.3478 401.73 36.0261 402.481C35.7204 403.217 35.3987 403.976 35.061 404.759C34.7393 405.542 34.4336 406.294 34.144 407.013C33.8544 407.717 33.597 408.332 33.3718 408.859C33.1627 409.387 33.0178 409.771 32.9373 410.01C32.8085 410.362 32.7037 410.714 32.6229 411.066C32.5581 411.418 32.5254 411.746 32.5247 412.05C32.5241 412.306 32.5555 412.578 32.6189 412.866C32.6983 413.154 32.7776 413.458 32.8569 413.778C32.9362 414.082 33.0074 414.435 33.0705 414.835C33.1336 415.219 33.1567 415.651 33.1396 416.131C33.1224 416.659 32.9935 417.067 32.7529 417.354C32.5122 417.658 32.1839 417.809 31.7679 417.808C31.5439 417.807 31.3601 417.695 31.2166 417.471C31.0891 417.262 31.0097 416.974 30.9785 416.606C31.0924 415.774 31.1501 415.031 31.1515 414.375C31.169 413.703 31.1302 413.158 31.0352 412.742C30.9561 412.31 30.8207 412.038 30.629 411.925C30.4692 411.813 30.2934 411.733 30.1015 411.684C29.9096 411.636 29.6777 411.603 29.4057 411.587L29.4069 411.059C29.4069 411.059 29.4789 411.059 29.6229 411.059C29.7829 411.059 29.9509 411.06 30.1269 411.06C30.3189 411.061 30.4549 411.061 30.5349 411.061ZM31.5804 426.527L39.3324 426.545L39.3308 427.241L31.5789 427.223L31.5804 426.527ZM33.7422 436.492L39.5742 436.505L39.5725 437.225L33.7406 437.212L33.7422 436.492ZM31.5669 432.575L39.4149 432.593L39.4133 433.289L31.5654 433.271L31.5669 432.575ZM30.5964 426.525L30.5981 425.757L32.3724 426.529L32.0844 426.529L32.0676 434.065C32.0675 434.113 32.0113 434.184 31.8991 434.28C31.8029 434.36 31.6587 434.44 31.4666 434.519C31.2904 434.583 31.0744 434.614 30.8184 434.614L30.5784 434.613L30.5964 426.525ZM38.8764 426.544L38.6604 426.543L39.4784 425.633L41.3473 427.053C41.2831 427.133 41.1629 427.221 40.9867 427.316C40.8105 427.396 40.6104 427.452 40.3863 427.483L40.3723 433.747C40.3722 433.795 40.2921 433.859 40.1319 433.939C39.9877 434.002 39.8196 434.066 39.6275 434.129C39.4353 434.193 39.2512 434.225 39.0752 434.224L38.8592 434.224L38.8764 426.544ZM38.9982 436.504L38.7342 436.503L39.6242 435.569L41.3969 437.061C41.2365 437.237 40.9243 437.356 40.4601 437.419C40.3925 439.051 40.2773 440.459 40.1147 441.643C39.9681 442.81 39.774 443.762 39.5323 444.497C39.2907 445.217 39.0096 445.72 38.6889 446.007C38.4003 446.279 38.0479 446.478 37.6316 446.605C37.2313 446.732 36.7992 446.795 36.3352 446.794C36.3357 446.57 36.3121 446.362 36.2646 446.17C36.217 445.978 36.1133 445.826 35.9536 445.713C35.7939 445.585 35.5301 445.472 35.1623 445.376C34.7946 445.279 34.4107 445.198 34.0109 445.133L34.0358 444.701C34.3238 444.734 34.6517 444.774 35.0196 444.823C35.4035 444.856 35.7635 444.881 36.0994 444.898C36.4354 444.914 36.6834 444.923 36.8434 444.923C37.2114 444.924 37.4915 444.845 37.6839 444.685C38.0045 444.398 38.2704 443.55 38.4816 442.143C38.7087 440.735 38.8809 438.856 38.9982 436.504ZM33.5346 432.724L35.0706 432.727C35.0035 434.103 34.9045 435.447 34.7736 436.759C34.6427 438.054 34.3839 439.31 33.9972 440.525C33.6265 441.724 33.048 442.859 32.2616 443.929C31.4752 444.983 30.409 445.957 29.063 446.85L28.7518 446.513C29.842 445.508 30.7004 444.462 31.3268 443.375C31.9533 442.272 32.4198 441.137 32.7264 439.97C33.033 438.787 33.2357 437.587 33.3344 436.371C33.4492 435.156 33.5159 433.94 33.5346 432.724ZM43.5074 427.01L45.9068 427.279C45.8744 427.439 45.7941 427.583 45.6658 427.711C45.5375 427.823 45.3214 427.894 45.0173 427.925L44.9871 441.485C44.9869 441.549 44.9227 441.629 44.7945 441.725C44.6823 441.805 44.5302 441.876 44.338 441.94C44.1619 442.004 43.9698 442.035 43.7618 442.035L43.4738 442.034L43.5074 427.01ZM48.311 425.365L50.7584 425.658C50.742 425.818 50.6617 425.962 50.5174 426.09C50.3892 426.201 50.173 426.273 49.8689 426.304L49.8283 444.52C49.8273 444.952 49.7705 445.328 49.6578 445.648C49.561 445.984 49.3284 446.255 48.96 446.462C48.5915 446.67 48.0232 446.812 47.255 446.891C47.2076 446.634 47.1441 446.402 47.0645 446.194C46.985 446.002 46.8574 445.834 46.6817 445.689C46.49 445.545 46.2263 445.424 45.8905 445.327C45.5547 445.231 45.0989 445.15 44.523 445.084L44.5239 444.7C44.5239 444.7 44.6598 444.717 44.9318 444.749C45.2037 444.766 45.5237 444.791 45.8916 444.823C46.2756 444.84 46.6355 444.865 46.9714 444.898C47.3074 444.915 47.5394 444.923 47.6674 444.923C47.9074 444.924 48.0675 444.884 48.1477 444.805C48.2279 444.709 48.2682 444.565 48.2686 444.373L48.311 425.365Z" fill="white"/>
<path d="M88.8659 189.818C90.0018 189.82 91.0176 189.926 91.9131 190.136C92.8247 190.33 93.5523 190.516 94.0959 190.693C94.3358 190.742 94.3759 190.686 94.2163 190.525C93.7854 190.012 93.3467 189.46 92.9 188.867C92.4533 188.274 92.0067 187.657 91.5601 187.016C91.1295 186.375 90.707 185.718 90.2925 185.045C90.0375 184.596 89.7905 184.148 89.5515 183.699C89.3285 183.235 89.1055 182.786 88.8825 182.354C88.6595 181.921 88.4363 181.545 88.213 181.224C88.0057 180.904 87.7261 180.735 87.3742 180.718C87.0382 180.685 86.5263 180.668 85.8383 180.667L85.7433 180.211C86.1437 180.003 86.5121 179.852 86.8483 179.757C87.2005 179.662 87.5046 179.614 87.7606 179.615C88.2086 179.616 88.6325 179.681 89.0322 179.81C89.4319 179.939 89.6635 180.115 89.727 180.339C89.8701 180.74 90.0052 181.164 90.1322 181.612C90.2752 182.045 90.4421 182.517 90.633 183.029C90.8399 183.526 91.1027 184.062 91.4214 184.639C91.8039 185.328 92.2344 186.009 92.7129 186.682C93.1914 187.355 93.7019 187.996 94.2446 188.606C94.7872 189.215 95.3379 189.784 95.8968 190.313C96.1842 190.586 96.3837 190.802 96.4953 190.963C96.607 191.123 96.6706 191.299 96.6861 191.491C96.7016 191.715 96.6691 191.955 96.5885 192.211C96.524 192.451 96.4195 192.658 96.2751 192.834C96.1468 192.994 95.9946 193.073 95.8186 193.073C95.5626 193.072 95.3308 193 95.1231 192.855C94.9154 192.695 94.6358 192.518 94.2843 192.326C93.8209 192.053 93.2854 191.795 92.678 191.554C92.0866 191.297 91.431 191.095 90.7113 190.95C89.9917 190.788 89.2239 190.706 88.4079 190.704C87.5119 190.702 86.7035 190.853 85.9829 191.155C85.2622 191.457 84.6853 191.872 84.2521 192.399C83.8349 192.91 83.6256 193.494 83.6242 194.15C83.6221 195.062 84.1325 195.815 85.1551 196.409C86.1778 196.988 87.6252 197.279 89.4972 197.283C90.1052 197.284 90.6092 197.261 91.0093 197.214C91.4255 197.167 91.7775 197.128 92.0656 197.097C92.3697 197.049 92.6658 197.026 92.9538 197.027C93.3218 197.027 93.6176 197.1 93.8413 197.245C94.081 197.373 94.2006 197.565 94.2 197.821C94.1993 198.125 93.8788 198.381 93.2383 198.587C92.6138 198.794 91.5496 198.896 90.0456 198.892C89.0536 198.89 88.0938 198.8 87.1662 198.622C86.2546 198.46 85.4391 198.202 84.7199 197.848C84.0007 197.479 83.4338 197.005 83.0191 196.428C82.6044 195.852 82.3979 195.155 82.3997 194.339C82.4017 193.475 82.6834 192.708 83.2449 192.037C83.8224 191.35 84.5996 190.808 85.5765 190.41C86.5534 190.012 87.6499 189.815 88.8659 189.818ZM90.6789 183.99C91.6556 183.656 92.4243 183.337 92.985 183.035C93.5617 182.716 94.0023 182.445 94.3068 182.222C94.6113 181.998 94.8837 181.823 95.124 181.695C95.3642 181.6 95.6283 181.569 95.9162 181.601C96.2042 181.618 96.412 181.706 96.5396 181.867C96.6513 182.011 96.6749 182.171 96.6105 182.347C96.5622 182.523 96.4498 182.682 96.2735 182.826C96.017 183.033 95.6324 183.289 95.1198 183.591C94.6071 183.878 94.0145 184.173 93.3418 184.475C92.6851 184.762 91.9966 185.024 91.276 185.263C90.7957 185.422 90.2113 185.589 89.5229 185.763C88.8345 185.937 88.1302 186.088 87.4099 186.214C86.6896 186.325 86.0175 186.379 85.3935 186.378C84.6255 186.376 83.9937 186.287 83.4981 186.11C83.0025 185.916 82.5552 185.627 82.156 185.243C81.7729 184.842 81.3581 184.329 80.9115 183.704L81.3443 183.321C81.8395 183.706 82.2628 184.027 82.6142 184.284C82.9816 184.54 83.3812 184.725 83.813 184.838C84.2447 184.951 84.7726 185.008 85.3966 185.01C85.8926 185.011 86.4607 184.964 87.1009 184.87C87.7411 184.775 88.3734 184.648 88.9977 184.49C89.6381 184.331 90.1985 184.164 90.6789 183.99ZM83.0037 214.076C83.1788 214.477 83.3781 214.805 83.6015 215.062C83.841 215.302 84.0807 215.423 84.3207 215.423C84.5607 215.424 84.9608 215.369 85.5211 215.258C86.0813 215.147 86.6976 215.021 87.3699 214.878C88.0583 214.72 88.7066 214.569 89.3149 214.427C89.9233 214.268 90.4036 214.141 90.7558 214.046C91.076 213.967 91.3082 213.863 91.4525 213.735C91.5968 213.608 91.7569 213.544 91.9329 213.544C92.1089 213.545 92.3168 213.593 92.5566 213.69C92.7964 213.786 93.0281 213.915 93.2517 214.075C93.4914 214.236 93.683 214.404 93.8266 214.581C93.9862 214.757 94.0658 214.933 94.0654 215.109C94.0651 215.269 93.9848 215.405 93.8245 215.517C93.6803 215.628 93.488 215.748 93.2477 215.875C93.0074 216.003 92.743 216.17 92.4546 216.378C92.2141 216.569 91.8855 216.84 91.4688 217.191C91.068 217.526 90.6352 217.91 90.1702 218.34C89.7053 218.755 89.2483 219.17 88.7994 219.585C88.3665 219.984 87.9897 220.344 87.669 220.663C87.9091 220.599 88.1572 220.568 88.4132 220.569C88.6852 220.553 88.9173 220.546 89.1093 220.546C89.5253 220.547 89.909 220.652 90.2606 220.861C90.6121 221.053 90.8674 221.374 91.0264 221.822C91.1536 222.207 91.2806 222.631 91.4076 223.095C91.5345 223.56 91.6535 224.016 91.7645 224.464C91.9231 225.088 92.1302 225.529 92.3856 225.785C92.641 226.026 93.0568 226.147 93.6328 226.148C94.3208 226.15 94.8808 226.127 95.3129 226.08C95.745 226.033 96.0892 225.978 96.3453 225.914C96.6174 225.851 96.8496 225.795 97.0417 225.748C97.2498 225.7 97.4658 225.677 97.6898 225.677C98.1538 225.678 98.5057 225.759 98.7453 225.92C99.0009 226.08 99.1285 226.289 99.1279 226.545C99.1274 226.785 98.9589 226.976 98.6226 227.119C98.3023 227.279 97.878 227.398 97.3498 227.477C96.8376 227.571 96.2935 227.634 95.7174 227.665C95.1573 227.696 94.6533 227.711 94.2053 227.71C93.3413 227.708 92.6695 227.626 92.1898 227.465C91.7102 227.32 91.3427 227.063 91.0875 226.695C90.8484 226.31 90.6576 225.79 90.515 225.133C90.4519 224.749 90.3728 224.325 90.2779 223.861C90.1829 223.381 90.08 222.924 89.9689 222.492C89.9056 222.172 89.7702 221.908 89.5627 221.699C89.3712 221.475 89.0754 221.362 88.6754 221.361C88.2914 221.36 87.9153 221.431 87.547 221.575C87.1947 221.702 86.8422 221.925 86.4895 222.244C85.9445 222.675 85.4314 223.17 84.9502 223.729C84.4689 224.272 84.0197 224.815 83.6025 225.358C83.1853 225.901 82.8162 226.372 82.4954 226.771C82.351 226.947 82.1986 227.091 82.0384 227.202C81.8941 227.314 81.71 227.37 81.486 227.369C81.294 227.369 81.1262 227.296 80.9825 227.152C80.8388 227.008 80.7672 226.824 80.7677 226.6C80.7684 226.312 80.8249 226.064 80.9374 225.856C81.0499 225.648 81.1943 225.448 81.3707 225.257C81.5472 225.065 81.7396 224.866 81.9481 224.658C82.2848 224.339 82.7017 223.948 83.1987 223.485C83.7118 223.006 84.2328 222.519 84.762 222.024C85.2911 221.53 85.7641 221.083 86.181 220.684C86.7903 220.093 87.4237 219.47 88.0811 218.816C88.7546 218.145 89.38 217.515 89.9574 216.924C90.5507 216.317 91.0158 215.822 91.3527 215.439C91.5131 215.247 91.5534 215.104 91.4736 215.007C91.3938 214.911 91.2419 214.895 91.0177 214.958C90.6496 215.022 90.1773 215.141 89.6009 215.315C89.0246 215.49 88.4241 215.681 87.7997 215.887C87.1912 216.078 86.6548 216.269 86.1904 216.46C85.87 216.619 85.6217 216.778 85.4453 216.938C85.269 217.082 85.0528 217.153 84.7968 217.152C84.4768 217.152 84.157 217.063 83.8374 216.886C83.5338 216.71 83.2783 216.493 83.0709 216.237C82.8634 215.98 82.72 215.74 82.6405 215.516C82.5609 215.308 82.5294 215.091 82.5459 214.867C82.5624 214.644 82.5869 214.412 82.6195 214.172L83.0037 214.076ZM85.4174 207.938L85.7541 207.603C86.5529 208.148 87.312 208.574 88.0313 208.88C88.7667 209.169 89.5263 209.331 90.3102 209.365C90.6462 209.382 90.9022 209.374 91.0783 209.342C91.2704 209.295 91.4704 209.271 91.6784 209.272C91.9184 209.272 92.1583 209.321 92.3981 209.417C92.6539 209.514 92.8616 209.65 93.0212 209.827C93.1968 210.003 93.2843 210.211 93.2838 210.451C93.2835 210.595 93.2192 210.731 93.0909 210.859C92.9626 210.987 92.7465 211.05 92.4425 211.05C92.2185 211.049 91.9945 211.049 91.7705 211.048C91.5465 211.048 91.2744 211.063 90.9544 211.094C90.6023 211.109 90.1622 211.188 89.6338 211.331C89.1215 211.474 88.6012 211.625 88.0728 211.784C87.5605 211.943 87.1442 212.078 86.8239 212.189L86.609 211.685C87.0895 211.478 87.602 211.263 88.1465 211.04C88.707 210.817 89.1714 210.618 89.5398 210.443C89.268 210.378 88.9002 210.274 88.4365 210.129C87.9729 209.968 87.4774 209.718 86.9502 209.381C86.423 209.028 85.912 208.547 85.4174 207.938ZM95.7154 239.289C95.4602 238.968 95.1889 238.648 94.9016 238.327C94.6303 238.006 94.2631 237.662 93.7999 237.293L94.1368 236.885C94.6643 237.127 95.1277 237.368 95.5272 237.608C95.9427 237.849 96.2941 238.098 96.5815 238.355C96.8849 238.644 97.1003 238.908 97.2278 239.148C97.3553 239.373 97.4188 239.597 97.4183 239.821C97.4178 240.029 97.3534 240.189 97.2252 240.3C97.113 240.396 96.9689 240.444 96.7929 240.443C96.6169 240.443 96.4491 240.331 96.2896 240.106C96.1302 239.866 95.9388 239.593 95.7154 239.289ZM98.4059 238.215C98.1506 237.894 97.8872 237.59 97.6159 237.301C97.3445 237.013 96.9692 236.692 96.49 236.339L96.779 235.907C97.3545 236.133 97.842 236.35 98.2415 236.559C98.6411 236.751 98.9926 236.984 99.296 237.257C99.5994 237.514 99.8069 237.762 99.9183 238.002C100.046 238.243 100.109 238.475 100.109 238.699C100.108 238.891 100.052 239.043 99.9398 239.154C99.8275 239.266 99.6834 239.322 99.5074 239.321C99.3314 239.321 99.1636 239.209 99.0041 238.984C98.8446 238.76 98.6452 238.503 98.4059 238.215ZM79.3663 241.556L79.8228 241.365C80.0142 241.638 80.1896 241.894 80.3491 242.135C80.5086 242.359 80.6921 242.551 80.8998 242.712C81.1075 242.856 81.3473 242.929 81.6193 242.929C81.8273 242.946 82.1953 242.923 82.7234 242.86C83.2676 242.797 83.9078 242.719 84.644 242.624C85.3962 242.53 86.1724 242.428 86.9727 242.317C87.7729 242.207 88.5411 242.113 89.2773 242.035C90.0135 241.94 90.6377 241.87 91.1498 241.823C92.238 241.713 93.1582 241.619 93.9104 241.541C94.6786 241.447 95.3108 241.376 95.8069 241.329C96.319 241.266 96.7191 241.219 97.0072 241.188C97.2953 241.156 97.5033 241.141 97.6313 241.141C97.9193 241.142 98.2232 241.199 98.5429 241.311C98.8627 241.408 99.1344 241.545 99.358 241.721C99.5976 241.898 99.7172 242.114 99.7166 242.37C99.7161 242.594 99.6597 242.754 99.5475 242.849C99.4353 242.945 99.2672 242.993 99.0432 242.992C98.8512 242.992 98.5712 242.967 98.2034 242.918C97.8355 242.854 97.3556 242.797 96.7637 242.747C96.1718 242.698 95.4199 242.672 94.5079 242.67C93.6119 242.668 92.5318 242.722 91.2675 242.831C90.4034 242.909 89.5151 243.019 88.6028 243.161C87.6905 243.303 86.8261 243.461 86.0097 243.635C85.2094 243.793 84.529 243.944 83.9687 244.087C83.6005 244.182 83.2883 244.277 83.0321 244.373C82.7919 244.468 82.5757 244.556 82.3835 244.635C82.2073 244.699 82.0073 244.73 81.7833 244.73C81.5273 244.729 81.2395 244.633 80.9199 244.44C80.6163 244.247 80.3449 244.015 80.1055 243.742C79.8661 243.454 79.6987 243.197 79.6032 242.973C79.5236 242.781 79.4681 242.557 79.4367 242.301C79.4053 242.029 79.3818 241.78 79.3663 241.556ZM88.0366 238.744L87.9898 238.24C88.198 238.128 88.4463 238.017 88.7345 237.905C89.0228 237.794 89.3189 237.739 89.6229 237.739C89.9429 237.74 90.2948 237.797 90.6785 237.91C91.0783 238.007 91.414 238.143 91.6856 238.32C91.9572 238.481 92.0928 238.665 92.0924 238.873C92.0918 239.145 92.0272 239.393 91.8987 239.616C91.7862 239.84 91.7136 240.104 91.6809 240.408C91.6643 240.696 91.6474 241.112 91.6302 241.656C91.629 242.184 91.6276 242.784 91.6261 243.456C91.6246 244.128 91.6231 244.816 91.6215 245.52C91.636 246.208 91.6506 246.848 91.6652 247.44L90.4439 246.261C90.4444 246.005 90.4372 245.677 90.4221 245.277C90.407 244.861 90.392 244.405 90.3771 243.909C90.3622 243.413 90.3394 242.909 90.3085 242.397C90.2937 241.869 90.2708 241.373 90.2398 240.909C90.2089 240.429 90.1858 240.005 90.1707 239.637C90.1392 239.396 90.0836 239.228 90.0038 239.132C89.94 239.036 89.8122 238.964 89.6203 238.915C89.4604 238.867 89.2445 238.826 88.9725 238.794C88.7006 238.761 88.3886 238.745 88.0366 238.744ZM89.4613 245.635C90.2133 245.637 90.8209 245.814 91.2841 246.167C91.7473 246.52 92.0902 247.001 92.3129 247.609C92.5355 248.218 92.6459 248.93 92.6441 249.746C92.6416 250.85 92.4394 251.842 92.0375 252.721C91.6515 253.6 91.1057 254.383 90.4002 255.069C89.6947 255.756 88.8534 256.338 87.8763 256.815C86.8992 257.293 85.8344 257.675 84.6817 257.96L84.3711 257.36C85.8283 256.819 87.1178 256.126 88.2397 255.28C89.3616 254.435 90.1399 253.421 90.5745 252.237C89.8057 252.604 89.0936 252.674 88.4381 252.449C87.7986 252.223 87.2795 251.798 86.8809 251.173C86.4983 250.548 86.3079 249.828 86.3097 249.012C86.311 248.436 86.4402 247.892 86.6974 247.381C86.9545 246.853 87.3155 246.43 87.7802 246.111C88.2449 245.792 88.8053 245.634 89.4613 245.635ZM89.2328 251.202C89.8408 251.204 90.2972 251.045 90.6019 250.726C90.9067 250.39 91.06 249.807 91.0618 248.975C91.0635 248.207 90.8888 247.622 90.5377 247.221C90.2026 246.821 89.7791 246.62 89.2671 246.619C88.6591 246.617 88.1786 246.848 87.8255 247.311C87.4725 247.759 87.2953 248.286 87.294 248.894C87.2925 249.582 87.4752 250.143 87.8422 250.575C88.2253 250.992 88.6888 251.201 89.2328 251.202ZM83.9681 265.887L84.2808 265.575C84.5206 265.64 84.7284 265.712 84.9043 265.793C85.0961 265.873 85.2719 265.978 85.4316 266.106C85.7351 266.299 85.9986 266.539 86.222 266.828C86.4614 267.1 86.6527 267.373 86.7961 267.645C86.9395 267.917 87.011 268.142 87.0106 268.318C87.0101 268.558 86.9776 268.781 86.9131 268.989C86.8487 269.197 86.7761 269.445 86.6955 269.733C86.5666 270.117 86.4618 270.5 86.3809 270.884C86.3 271.268 86.2191 271.692 86.1381 272.156C86.0895 272.396 86.1052 272.524 86.1852 272.54C86.2652 272.556 86.3694 272.444 86.498 272.204C86.8835 271.533 87.3088 270.942 87.7739 270.431C88.2551 269.92 88.76 269.521 89.2886 269.235C89.8333 268.932 90.3616 268.781 90.8736 268.782C91.8336 268.784 92.6169 269.106 93.2235 269.747C93.846 270.389 94.3081 271.262 94.6096 272.367C94.9112 273.471 95.0603 274.736 95.0572 276.16C95.0535 277.808 94.7781 279.335 94.2309 280.742C93.6838 282.148 92.7771 283.37 91.5107 284.408C90.2605 285.429 88.5547 286.225 86.3934 286.796L86.1306 286.244C87.5879 285.671 88.7814 285.018 89.711 284.284C90.6567 283.534 91.3945 282.727 91.9244 281.865C92.4543 281.002 92.8244 280.075 93.0346 279.083C93.2608 278.092 93.3751 277.06 93.3775 275.988C93.3805 274.676 93.271 273.556 93.049 272.627C92.8271 271.699 92.5087 270.986 92.0938 270.489C91.6789 269.992 91.1915 269.743 90.6315 269.742C90.2635 269.741 89.8632 269.852 89.4307 270.075C88.9982 270.298 88.5815 270.609 88.1806 271.008C87.7797 271.407 87.4347 271.879 87.1455 272.422C86.7598 273.157 86.4542 273.892 86.2286 274.628C86.0029 275.363 85.8891 276.155 85.8872 277.003C85.8861 277.499 85.9092 277.939 85.9563 278.323C86.0035 278.691 86.0266 279.067 86.0258 279.451C86.0253 279.675 85.9609 279.859 85.8326 280.003C85.7042 280.147 85.5441 280.218 85.3521 280.218C85.1761 280.218 85.0162 280.177 84.8723 280.097C84.7445 280.017 84.6249 279.856 84.5134 279.616C84.4338 279.44 84.3623 279.224 84.2989 278.968C84.2515 278.695 84.2121 278.415 84.1807 278.127C84.1654 277.839 84.1579 277.591 84.1584 277.383C84.1598 276.743 84.2175 276.007 84.3313 275.176C84.4452 274.328 84.5751 273.488 84.7209 272.656C84.8828 271.809 85.0205 271.049 85.134 270.377C85.2636 269.69 85.3287 269.186 85.3294 268.866C85.3303 268.45 85.2911 268.09 85.2118 267.786C85.1325 267.481 84.9892 267.185 84.7818 266.897C84.5744 266.608 84.3032 266.272 83.9681 265.887ZM81.1845 297.929L81.4494 297.545C81.8329 297.754 82.2085 297.923 82.5763 298.052C82.96 298.165 83.3439 298.221 83.7279 298.222C84.1279 298.223 84.5119 298.2 84.88 298.153C85.2642 298.09 85.6244 298.003 85.9606 297.891C86.2969 297.78 86.6091 297.661 86.8974 297.533C87.2818 297.358 87.5461 297.231 87.6903 297.151C87.8345 297.071 87.9786 297.032 88.1226 297.032C88.3465 297.033 88.5544 297.089 88.7462 297.202C88.9539 297.314 89.1216 297.45 89.2493 297.611C89.3769 297.771 89.4406 297.907 89.4404 298.019C89.4401 298.147 89.3998 298.267 89.3195 298.379C89.2393 298.475 89.0871 298.57 88.8629 298.666C88.5746 298.793 88.2383 298.936 87.8539 299.096C87.4696 299.239 87.0931 299.478 86.7243 299.813C86.3556 300.132 85.9226 300.587 85.4253 301.178C84.944 301.753 84.4705 302.44 84.0047 303.239C83.5389 304.022 83.153 304.893 82.8469 305.852C82.5407 306.796 82.3865 307.787 82.3842 308.827C82.382 309.819 82.6041 310.652 83.0506 311.325C83.4972 311.982 84.0801 312.479 84.7993 312.817C85.5186 313.138 86.2942 313.3 87.1262 313.302C88.3102 313.305 89.3187 313.083 90.1517 312.637C91.0008 312.175 91.6822 311.544 92.196 310.745C92.7258 309.93 93.1039 308.987 93.3303 307.916C93.5727 306.828 93.6953 305.653 93.6981 304.389C93.6999 303.605 93.6775 302.893 93.6309 302.252C93.6003 301.612 93.5218 300.956 93.3953 300.284C93.3478 300.076 93.3003 299.836 93.2529 299.564C93.2056 299.275 93.1582 298.987 93.1108 298.699C93.0795 298.411 93.0641 298.155 93.0646 297.931C93.0655 297.515 93.1462 297.203 93.3066 296.996C93.4671 296.788 93.6673 296.684 93.9073 296.685C94.1153 296.685 94.2832 296.734 94.411 296.83C94.5548 296.926 94.6585 297.071 94.7221 297.263C94.8017 297.439 94.8412 297.639 94.8407 297.863C94.8394 298.471 94.8539 299.135 94.8843 299.855C94.9307 300.559 95.0092 301.231 95.1198 301.872C95.2779 302.72 95.5562 303.473 95.9547 304.13C96.3693 304.787 96.808 305.356 97.2709 305.837C97.7338 306.318 98.1329 306.726 98.4682 307.063C98.6599 307.208 98.8195 307.384 98.947 307.592C99.0905 307.801 99.1699 308.089 99.1851 308.457C99.1846 308.665 99.1362 308.857 99.0398 309.033C98.9594 309.192 98.8153 309.272 98.6073 309.272C98.4313 309.271 98.2314 309.207 98.0077 309.078C97.784 308.95 97.5764 308.765 97.3849 308.525C97.1136 308.22 96.8344 307.876 96.5472 307.491C96.2601 307.106 95.9811 306.658 95.7102 306.145C95.4394 305.632 95.1767 305.056 94.9221 304.415C94.8108 304.079 94.7072 303.919 94.6112 303.935C94.5312 303.934 94.4908 304.118 94.4899 304.486C94.4893 304.79 94.4804 305.166 94.4634 305.614C94.4624 306.046 94.4454 306.526 94.4122 307.054C94.395 307.582 94.3458 308.142 94.2644 308.734C94.1669 309.438 93.9653 310.157 93.6596 310.893C93.37 311.612 92.9445 312.283 92.3831 312.906C91.8378 313.512 91.1407 313.999 90.2919 314.365C89.443 314.747 88.4186 314.937 87.2186 314.934C86.4666 314.932 85.7308 314.827 85.0113 314.617C84.2918 314.408 83.6445 314.07 83.0695 313.605C82.4946 313.124 82.032 312.507 81.6817 311.754C81.3474 310.985 81.1815 310.049 81.1839 308.945C81.1866 307.761 81.3812 306.609 81.7677 305.49C82.1702 304.371 82.7005 303.3 83.3588 302.277C84.0332 301.239 84.7713 300.281 85.5733 299.402C85.3011 299.45 84.9971 299.481 84.661 299.496C84.341 299.512 84.005 299.511 83.653 299.494C83.1732 299.445 82.7494 299.316 82.3819 299.107C82.0144 298.882 81.6153 298.49 81.1845 297.929ZM96.671 327.323C96.4637 326.987 96.2165 326.642 95.9293 326.29C95.6581 325.937 95.2829 325.56 94.8038 325.159L95.1646 324.776C95.74 325.065 96.2114 325.354 96.5787 325.643C96.9621 325.932 97.2894 326.221 97.5608 326.509C97.8321 326.798 98.0235 327.062 98.135 327.303C98.2465 327.527 98.294 327.759 98.2775 327.999C98.261 328.191 98.1967 328.343 98.0844 328.454C97.9882 328.55 97.8601 328.59 97.7002 328.574C97.5082 328.557 97.3405 328.429 97.197 328.188C97.0696 327.948 96.8942 327.66 96.671 327.323ZM98.6667 325.672C98.4274 325.351 98.1641 325.039 97.8767 324.734C97.6055 324.413 97.2142 324.06 96.7031 323.675L97.016 323.292C97.6074 323.533 98.1029 323.774 98.5024 324.015C98.9019 324.24 99.2373 324.489 99.5087 324.762C99.812 325.05 100.027 325.323 100.155 325.579C100.282 325.819 100.33 326.051 100.297 326.275C100.297 326.467 100.241 326.619 100.128 326.731C100.032 326.827 99.888 326.866 99.696 326.85C99.536 326.85 99.3843 326.729 99.2408 326.489C99.1134 326.233 98.922 325.96 98.6667 325.672ZM80.5911 327.239L80.8559 326.88C81.2395 327.073 81.6151 327.234 81.9828 327.362C82.3506 327.475 82.7345 327.532 83.1345 327.533C83.5345 327.534 83.9185 327.511 84.2866 327.464C84.6548 327.4 85.007 327.313 85.3432 327.202C85.6955 327.091 86.0157 326.971 86.304 326.844C86.6724 326.669 86.9287 326.542 87.0729 326.462C87.233 326.382 87.3851 326.343 87.5291 326.343C87.7371 326.343 87.937 326.408 88.1287 326.536C88.3364 326.649 88.5041 326.785 88.6318 326.945C88.7755 327.09 88.8472 327.218 88.8469 327.33C88.8466 327.474 88.8063 327.594 88.7261 327.69C88.6459 327.785 88.4937 327.881 88.2695 327.977C87.9812 328.104 87.6449 328.247 87.2605 328.406C86.8762 328.549 86.4916 328.797 86.1069 329.148C85.7382 329.451 85.3052 329.898 84.8079 330.489C84.3266 331.064 83.853 331.751 83.3873 332.55C82.9375 333.333 82.5596 334.204 82.2534 335.163C81.9473 336.106 81.7931 337.098 81.7908 338.138C81.7886 339.13 82.0027 339.963 82.4332 340.636C82.8797 341.293 83.4626 341.79 84.1819 342.127C84.9012 342.449 85.6768 342.611 86.5088 342.613C87.7088 342.615 88.7253 342.394 89.5583 341.947C90.3913 341.501 91.0647 340.879 91.5785 340.08C92.1083 339.265 92.4944 338.314 92.7368 337.227C92.9793 336.139 93.1019 334.963 93.1047 333.699C93.1065 332.915 93.084 332.211 93.0374 331.587C93.0069 330.947 92.9203 330.283 92.7779 329.595C92.7463 329.387 92.6989 329.146 92.6355 328.874C92.5881 328.586 92.5408 328.298 92.4934 328.01C92.4621 327.722 92.4466 327.466 92.4471 327.242C92.4481 326.826 92.5288 326.514 92.6892 326.306C92.8657 326.099 93.0739 325.995 93.3139 325.996C93.5219 325.996 93.6898 326.053 93.8175 326.165C93.9453 326.261 94.049 326.397 94.1286 326.574C94.2082 326.75 94.2478 326.95 94.2473 327.174C94.2459 327.798 94.2604 328.47 94.2908 329.19C94.3372 329.894 94.4077 330.558 94.5023 331.182C94.6765 332.031 94.9628 332.783 95.3613 333.44C95.7758 334.097 96.2146 334.674 96.6774 335.171C97.1404 335.652 97.5395 336.053 97.8748 336.374C98.0664 336.518 98.2261 336.695 98.3536 336.903C98.4971 337.111 98.5765 337.4 98.5917 337.768C98.5912 337.976 98.5428 338.167 98.4464 338.343C98.35 338.503 98.2058 338.583 98.0138 338.582C97.8218 338.582 97.614 338.517 97.3903 338.389C97.1826 338.26 96.975 338.076 96.7675 337.836C96.5122 337.531 96.2409 337.186 95.9538 336.802C95.6667 336.417 95.3877 335.968 95.1168 335.456C94.846 334.943 94.5832 334.367 94.3287 333.726C94.2174 333.39 94.1138 333.23 94.0177 333.245C93.9377 333.245 93.8973 333.429 93.8965 333.797C93.8958 334.101 93.887 334.477 93.87 334.925C93.869 335.357 93.852 335.837 93.8188 336.365C93.7856 336.893 93.7283 337.453 93.647 338.045C93.5495 338.748 93.3558 339.468 93.0662 340.203C92.7766 340.939 92.3511 341.61 91.7897 342.216C91.2444 342.823 90.5473 343.31 89.6984 343.676C88.8496 344.058 87.8172 344.248 86.6012 344.245C85.8492 344.243 85.1134 344.138 84.3939 343.928C83.6903 343.718 83.0511 343.381 82.4761 342.916C81.9012 342.434 81.4386 341.817 81.0883 341.065C80.754 340.296 80.5881 339.359 80.5905 338.255C80.5932 337.071 80.7877 335.92 81.1742 334.801C81.5607 333.682 82.0831 332.611 82.7414 331.588C83.4157 330.55 84.1539 329.591 84.9558 328.713C84.6837 328.761 84.3876 328.8 84.0676 328.831C83.7475 328.846 83.4115 328.838 83.0596 328.805C82.5797 328.756 82.156 328.627 81.7885 328.418C81.421 328.193 81.0219 327.8 80.5911 327.239ZM89.2928 353.355L89.5819 352.9C89.8697 352.964 90.1256 353.029 90.3494 353.093C90.5893 353.158 90.8291 353.262 91.0687 353.407C91.3404 353.551 91.604 353.752 91.8594 354.009C92.1309 354.249 92.3543 354.506 92.5297 354.778C92.7051 355.034 92.7926 355.259 92.7922 355.451C92.7918 355.611 92.7435 355.755 92.6472 355.882C92.551 355.994 92.4147 356.114 92.2384 356.241C92.0621 356.369 91.8297 356.545 91.5412 356.768C91.1565 357.087 90.6836 357.494 90.1225 357.989C89.5614 358.467 88.9923 358.97 88.4151 359.497C87.838 360.008 87.3089 360.486 86.8279 360.933C86.3629 361.38 86.0021 361.732 85.7456 361.987C85.4088 362.338 85.1842 362.602 85.0718 362.777C84.9594 362.937 84.9031 363.089 84.9028 363.233C84.9024 363.393 84.9661 363.553 85.0937 363.714C85.2374 363.874 85.4449 364.058 85.7165 364.267C86.531 364.925 87.3056 365.55 88.0403 366.144C88.791 366.738 89.4936 367.347 90.1482 367.973C90.8029 368.582 91.4094 369.248 91.9678 369.969C92.3028 370.402 92.5818 370.842 92.8048 371.291C93.0279 371.723 93.139 372.116 93.1382 372.468C93.1377 372.675 93.1053 372.851 93.041 372.995C92.9767 373.155 92.8724 373.275 92.7282 373.355C92.6 373.45 92.4319 373.498 92.2239 373.497C92.0319 373.497 91.864 373.433 91.7203 373.304C91.5766 373.192 91.4649 373.064 91.3852 372.92C91.2577 372.679 91.1143 372.399 90.9551 372.079C90.8118 371.758 90.5727 371.342 90.2378 370.829C89.6797 369.98 88.9377 369.098 88.0117 368.184C87.1018 367.254 85.9282 366.163 84.491 364.912C84.1876 364.656 83.9562 364.399 83.7968 364.143C83.6373 363.886 83.5579 363.63 83.5585 363.374C83.5589 363.166 83.6154 362.958 83.7279 362.75C83.8404 362.527 83.9928 362.311 84.1853 362.103C84.4259 361.816 84.7467 361.465 85.1477 361.05C85.5486 360.635 85.9816 360.187 86.4467 359.709C86.9278 359.214 87.4008 358.727 87.8659 358.248C88.331 357.769 88.756 357.33 89.1409 356.931C89.5258 356.515 89.8306 356.172 90.0552 355.901C90.2637 355.661 90.4081 355.469 90.4884 355.326C90.5688 355.182 90.6091 355.038 90.6094 354.894C90.6098 354.702 90.5143 354.486 90.3229 354.245C90.1474 353.989 89.8041 353.692 89.2928 353.355Z" fill="white"/>
<line x1="0.5" y1="377" x2="0.500006" y2="519" stroke="white"/>
<line x1="180.5" y1="-2.18557e-08" x2="180.5" y2="142" stroke="white"/>
</svg>
